<svg width="50" height="30" viewBox="0 0 481 359" fill="none" xmlns="http://www.w3.org/2000/svg">
<path d="M195.617 384.999C303.654 384.999 391.235 339.102 391.235 282.485C391.235 225.868 303.654 179.971 195.617 179.971C87.5808 179.971 0 225.868 0 282.485C0 339.102 87.5808 384.999 195.617 384.999Z" fill="#F0F0F0"/>
<path d="M268.598 341.702C280.872 341.702 290.822 335.958 290.822 328.872C290.822 321.785 280.872 316.041 268.598 316.041C256.323 316.041 246.373 321.785 246.373 328.872C246.373 335.958 256.323 341.702 268.598 341.702Z" fill="#E0E0E0"/>
<path d="M194.134 361.328C226.525 361.328 252.783 346.168 252.783 327.468C252.783 308.767 226.525 293.607 194.134 293.607C161.743 293.607 135.484 308.767 135.484 327.468C135.484 346.168 161.743 361.328 194.134 361.328Z" fill="#E0E0E0"/>
<path d="M208.632 50.6699C207.983 51.6247 207.384 52.6115 206.835 53.6268C204.951 57.3426 204.846 61.8172 203.66 65.8382C202.474 69.8592 200.703 73.6884 197.703 76.6016C194.616 79.4526 190.784 81.3701 186.651 82.1316C182.539 82.8874 178.35 83.1306 174.178 82.8556C170.999 82.8131 167.835 82.4034 164.749 81.6345C158.347 79.8376 153.558 75.3194 153.41 68.0973C153.332 63.8408 155.556 59.6104 161.444 57.0198C157.082 53.5832 156.716 46.2564 160.746 42.4273C163.441 39.8716 167.357 39.0604 170.34 36.8973C175.556 33.1815 175.242 26.9973 177.789 21.7639C180.485 16.2002 185.016 11.7363 190.62 9.12515C198.959 5.3309 209.67 6.88349 217.79 10.6428C223.434 13.2596 228.371 18.2575 229.173 24.4242C230.045 31.2539 225.483 38.0835 219.238 40.9968C216.935 42.0697 214.45 42.6889 212.095 43.6659C211.76 43.7735 211.46 43.9658 211.222 44.2241C211.005 44.6071 210.891 45.0398 210.891 45.4801C210.551 47.3619 209.777 49.1387 208.632 50.6699Z" fill="#263238"/>
<path d="M212.261 71.739C218.83 71.6095 224.051 66.1788 223.921 59.6094C223.792 53.0399 218.361 47.8194 211.792 47.949C205.222 48.0785 200.002 53.5092 200.131 60.0786C200.261 66.6481 205.691 71.8686 212.261 71.739Z" fill="#263238"/>
<path d="M312.429 131.667C308.982 130.958 305.6 129.961 302.32 128.684C302.32 128.684 308.836 127.341 309.298 124.602C309.9 121.217 305.713 124.453 299.86 123.625C294.697 122.883 290.266 123.834 287.649 123.058L247.648 108.718C247.648 108.718 233.5 78.1114 229.47 73.628C225.441 69.1447 222.815 68.1766 216.779 67.3828L219.038 92.7912C219.038 92.7912 229.924 113.367 232.994 118.383C236.065 123.398 236.736 124.628 244.046 127C253.64 130.123 279.162 134.763 286.515 137.973C296.11 142.134 306.873 146.251 312.682 143.093C315.299 141.672 316.651 139.116 317.427 137.424C318.474 135.016 315.866 132.286 312.429 131.667Z" fill="#B16668"/>
<path d="M191.318 39.3477C195.742 36.8922 200.01 34.1656 204.097 31.1835C212.758 24.9296 216.308 20.5684 216.308 20.5684C216.308 20.5684 217.669 30.8433 210.604 36.8182C203.538 42.793 193.054 43.0983 192.784 43.1332C192.513 43.1681 191.318 39.3477 191.318 39.3477Z" fill="#04054F"/>
<path d="M179.735 19.7062L173.812 16.3306C173.99 15.9173 174.252 15.5457 174.583 15.24C174.913 14.9343 175.303 14.7012 175.729 14.5557C176.155 14.4102 176.606 14.3556 177.054 14.3954C177.502 14.4352 177.937 14.5685 178.331 14.7868C179.141 15.2796 179.735 16.0598 179.996 16.9716C180.256 17.8835 180.163 18.8599 179.735 19.7062Z" fill="#263238"/>
<path d="M179.848 17.8905L177.99 11.1219C178.417 10.9783 178.869 10.9244 179.318 10.9636C179.766 11.0027 180.202 11.1341 180.597 11.3494C180.993 11.5648 181.34 11.8595 181.616 12.2151C181.892 12.5706 182.092 12.9795 182.203 13.4159C182.446 14.3212 182.338 15.2847 181.901 16.1141C181.465 16.9435 180.732 17.5778 179.848 17.8905Z" fill="#263238"/>
<path d="M224.019 302.023L225.763 299.834C226.635 304.91 231.433 310.571 236.056 314.793C239.728 318.142 245.205 322.242 245.066 325.678C244.891 329.778 238.088 330.86 234.66 330.258C230.674 329.551 225.519 327.292 222.71 323.838C220.739 321.413 217.948 318.23 216.535 316.328C215.122 314.427 211.877 312.29 211.118 310.083C210.7 308.87 211.197 306.219 211.781 303.977C212.322 301.919 212.906 299.616 213.613 299.851V301.125C214.485 302.058 218.332 303.297 220.966 303.393C222.658 303.497 224.036 303.323 224.019 302.023Z" fill="#263238"/>
<path d="M166.659 309.89C166.111 313.001 165.819 316.152 165.787 319.311C165.673 325.024 164.627 327.056 164.487 331.74C164.33 337.104 165.447 340.462 167.627 343.446C169.808 346.429 176.742 347.702 179.158 342.573C181.574 337.445 181.26 334.147 180.484 328.888C179.69 323.454 179.612 320.453 179.123 316.301C178.722 312.655 178.251 309.873 178.251 309.873L166.659 309.89Z" fill="#263238"/>
<path d="M164.261 244.735C165.596 230.954 167.576 225.171 167.837 222.057C167.837 222.057 169.922 189.714 169.102 162.344C168.701 149.164 168.404 134.641 177.92 119.011L221.995 118.365C226.923 136.682 231.869 203.496 229.889 223.209C228.728 234.661 225.266 292.517 225.266 292.517V297.122C225.408 299.38 226.155 301.558 227.429 303.428C229.497 307.029 231.961 310.387 234.773 313.442C236.056 314.793 237.267 316.211 238.402 317.69C241.245 321.004 239.003 322.391 234.625 321.807C230.011 321.187 226.138 317.611 224.106 314.829C221.07 310.633 214.197 303.891 213.639 301.475H213.586V301.187C213.586 301.187 213.307 297.532 212.932 293.171C212.557 288.81 205.387 253.371 205.222 240.662C205.152 234.609 206.748 225.607 206.748 225.607L201.724 178.995C201.724 178.995 193.874 212.323 192.129 226.445C190.585 238.717 183.939 274.889 180.232 291.2C178.844 297.323 178.183 303.588 178.261 309.866V309.909C178.261 311.723 178.862 326.185 178.313 330.276C177.17 338.824 169.591 338.065 168.099 331.244C166.834 325.444 166.765 312.116 166.703 309.892C166.66 308.287 166.581 306.507 166.485 304.606C166.328 303.437 162.709 260.758 164.261 244.735Z" fill="#B16668"/>
<path d="M190.385 67.6792L178.096 68.3334C180.503 82.6469 173.734 95.242 173.734 95.242L178.244 117.92C178 118.321 178.915 121.558 177.215 125.648C185.065 136.115 212.75 139.264 225.301 130.01C224.969 126.399 224.445 122.809 223.731 119.255L226.112 105.822C225.877 94.9629 218.698 74.2559 216.788 67.3216L206.391 66.5977L190.385 67.6792Z" fill="#04054F"/>
<path d="M216.316 20.5684C219.805 22.1035 223.207 27.5027 223.154 42.6099C223.111 55.4056 219.186 58.6504 217.197 59.6011C215.208 60.5518 211.344 60.0721 207.602 59.4877V66.8494C207.602 66.8494 210.428 69.6144 209.443 71.3676C208.457 73.1208 204.794 74.5862 199.115 72.8068C192.678 70.7832 191.483 67.6955 191.483 67.6955L191.082 50.3815C191.082 50.3815 188.91 52.6581 185.107 49.3261C181.958 46.5698 180.833 41.8423 183.188 39.2517C185.543 36.6612 188.588 36.4519 191.326 39.3477C191.326 39.3477 197.048 40.1327 204.602 35.3964C212.321 30.5468 215.557 25.4791 216.316 20.5684Z" fill="#B16668"/>
<path d="M216.648 38.2582C216.648 38.6032 216.751 38.9405 216.942 39.2273C217.134 39.5142 217.407 39.7378 217.725 39.8698C218.044 40.0019 218.395 40.0364 218.733 39.9691C219.072 39.9018 219.382 39.7357 219.626 39.4917C219.87 39.2477 220.037 38.9369 220.104 38.5985C220.171 38.2601 220.137 37.9093 220.005 37.5906C219.873 37.2718 219.649 36.9994 219.362 36.8077C219.075 36.616 218.738 36.5137 218.393 36.5137C217.93 36.5137 217.487 36.6975 217.159 37.0246C216.832 37.3518 216.648 37.7955 216.648 38.2582Z" fill="#263238"/>
<path d="M203.067 39.1032C203.058 39.45 203.153 39.7914 203.34 40.084C203.526 40.3765 203.795 40.6069 204.113 40.7457C204.431 40.8844 204.783 40.9252 205.124 40.8629C205.465 40.8006 205.78 40.638 206.029 40.3959C206.277 40.1537 206.448 39.843 206.519 39.5035C206.589 39.164 206.558 38.811 206.427 38.4897C206.296 38.1684 206.073 37.8933 205.785 37.6996C205.497 37.506 205.158 37.4025 204.811 37.4023C204.356 37.4022 203.919 37.58 203.593 37.8978C203.267 38.2156 203.078 38.6481 203.067 39.1032Z" fill="#263238"/>
<path d="M205.718 50.5996L210.21 51.9952C210.148 52.3044 210.022 52.5974 209.841 52.8556C209.659 53.1138 209.427 53.3317 209.157 53.4956C208.887 53.6595 208.587 53.7658 208.274 53.8078C207.962 53.8498 207.644 53.8266 207.34 53.7397C206.726 53.5138 206.219 53.0662 205.919 52.4849C205.619 51.9037 205.547 51.2311 205.718 50.5996Z" fill="#9A4A4D"/>
<path d="M221.148 35.0909L216.787 33.3465C216.889 33.0522 217.05 32.782 217.261 32.5528C217.472 32.3236 217.728 32.1403 218.012 32.0143C218.297 31.8883 218.605 31.8223 218.916 31.8204C219.228 31.8184 219.536 31.8807 219.823 32.0032C220.398 32.2487 220.857 32.7065 221.104 33.2815C221.351 33.8565 221.367 34.5045 221.148 35.0909Z" fill="#263238"/>
<path d="M191.354 38.9648V44.3727C191.701 44.3862 192.047 44.3278 192.371 44.201C192.694 44.0743 192.988 43.882 193.234 43.6363C193.48 43.3906 193.672 43.0967 193.799 42.7731C193.925 42.4495 193.984 42.1033 193.97 41.756C193.972 41.045 193.702 40.3603 193.215 39.8416C192.729 39.3229 192.063 39.0093 191.354 38.9648Z" fill="#263238"/>
<path d="M210.936 37.2891L212.305 47.6862L216.937 45.4358L210.936 37.2891Z" fill="#9A4A4D"/>
<path d="M207.585 59.4885C203.617 59.0262 195.444 56.7497 194.109 53.3828C194.64 55.0524 195.661 56.5235 197.04 57.6045C199.517 59.724 207.585 61.9657 207.585 61.9657V59.4885Z" fill="#9A4A4D"/>
<path d="M228.808 153.019C228.57 141.481 227.256 129.99 224.883 118.696C225.851 107.226 228.328 97.2393 225.354 86.6678C223.609 80.3702 220.12 70.7581 216.771 67.3476C216.771 67.3476 212.776 65.8299 209.392 66.833C209.392 66.833 215.776 73.0172 217.626 87.2085C212.82 87.4004 203.173 87.6708 197.433 88.3076C196.116 81.1209 193.741 74.1692 190.386 67.6791C187.456 67.4295 184.506 67.588 181.62 68.1501C186.341 78.1353 189.044 88.9544 189.574 99.9869C189.74 103.737 189.88 107.924 189.653 111.867C189.653 111.867 188.859 119.49 178.235 117.911C171.615 128.509 167.934 135.496 167.707 173.735C167.646 183.696 167.236 222.484 167.236 222.484C162.875 236.013 163.18 255.333 163.18 255.333C163.18 255.333 163.922 259.842 174.397 260.418C184.873 260.994 187.481 257.644 187.481 257.644C187.481 257.644 190.97 240.993 192.802 225.371C194.633 209.75 201.585 180.887 201.585 180.887L206.313 225.127C205.338 229.446 204.803 233.853 204.716 238.281C204.716 243.514 206.06 253.859 206.06 253.859C206.06 253.859 208.485 256.964 217.032 256.624C225.58 256.284 228.171 253.274 228.171 253.274C228.171 253.274 230.517 223.278 230.936 210.535C231.267 200.068 230.099 170.821 228.808 153.019Z" fill="#37474F"/>
<path d="M178.522 140.58C175.576 139.895 172.76 138.737 170.184 137.153L171.405 132.163C169.213 131.945 167.003 131.98 164.819 132.268C163.45 132.39 162.203 131.317 161.016 130.114C160.292 129.355 153.384 121.932 149.067 114.762L172.748 93.1829L174.405 98.7042C185.073 93.776 183.128 77.0813 178.06 68.3328C172.975 68.2281 168.404 69.3184 162.639 75.3107C156.734 81.4949 137.082 100.292 132.512 106.711C127.941 113.131 127.662 119.481 146.799 137.013C150.882 140.768 155.178 144.286 159.664 147.55C170.288 154.833 176.411 152.251 180.45 150.07C188.213 145.901 185.247 142.177 178.522 140.58Z" fill="#B16668"/>
<path d="M201.566 180.948L205.526 155.696C205.526 155.696 214.057 154.467 221.959 145.875C221.959 145.875 219.343 153.394 209.748 157.781L205.553 181.497L205.055 213.77L201.566 180.948Z" fill="#263238"/>
<path d="M115.283 138.113C116.284 140.191 116.646 142.519 116.325 144.803C116.003 147.087 115.012 149.225 113.477 150.946C111.941 152.667 109.93 153.895 107.697 154.473C105.465 155.052 103.11 154.957 100.932 154.199C98.7536 153.44 96.8487 152.054 95.4579 150.214C94.0671 148.373 93.2527 146.162 93.1177 143.86C92.9826 141.557 93.5329 139.266 94.6991 137.276C95.8652 135.286 97.595 133.686 99.6698 132.678C101.051 132.005 102.552 131.612 104.085 131.521C105.619 131.429 107.156 131.642 108.607 132.148C110.058 132.653 111.395 133.44 112.541 134.463C113.686 135.487 114.618 136.727 115.283 138.113Z" fill="#37474F"/>
<path d="M92.5095 149.984C83.6126 149.321 80.4726 142.814 85.5316 135.435C90.5906 128.056 101.825 122.604 110.722 123.224C119.619 123.843 122.768 130.385 117.752 137.764C112.737 145.143 101.415 150.621 92.5095 149.984Z" fill="#455A64"/>
<path d="M90.2929 146.354C81.117 145.674 77.881 138.966 83.0533 131.36C88.2257 123.754 99.844 118.137 109.02 118.818C118.196 119.498 121.432 126.205 116.26 133.811C111.087 141.417 99.4602 147.026 90.2929 146.354Z" fill="#37474F"/>
<path d="M88.0089 142.639C78.5538 141.941 75.2132 135.024 80.5425 127.183C85.8719 119.341 97.8565 113.558 107.312 114.256C116.767 114.954 120.099 121.871 114.769 129.704C109.44 137.536 97.4553 143.337 88.0089 142.639Z" fill="#455A64"/>
<path d="M85.6447 138.81C75.9018 138.087 72.4564 130.96 77.9515 122.883C83.4466 114.806 95.7975 108.832 105.54 109.556C115.283 110.279 118.729 117.406 113.234 125.483C107.739 133.56 95.3876 139.517 85.6447 138.81Z" fill="#37474F"/>
<path d="M83.3247 134.711C73.3812 133.978 69.8661 126.703 75.4746 118.461C81.0831 110.218 93.6782 104.13 103.622 104.863C113.565 105.595 117.08 112.87 111.472 121.112C105.863 129.355 93.2683 135.443 83.3247 134.711Z" fill="#455A64"/>
<path d="M38.2909 5.54939C31.7205 8.72559 25.8401 13.1648 20.9855 18.6137C16.1308 24.0625 12.3969 30.4142 9.997 37.3061C7.59711 44.198 6.57821 51.4952 6.99848 58.7808C7.41875 66.0665 9.26997 73.1981 12.4464 79.7683C31.6357 119.499 67.6069 110.297 75.3437 126.276C76.5735 128.832 79.4868 130.568 83.8044 130.882C92.4221 131.518 103.36 126.241 108.227 119.089C110.661 115.513 111.114 112.111 109.884 109.599C102.148 93.5846 131.743 71.1506 112.553 31.42C109.379 24.8427 104.939 18.9555 99.4877 14.0951C94.0365 9.23469 87.6808 5.49629 80.7839 3.09365C73.887 0.690999 66.5842 -0.328788 59.293 0.0925852C52.0018 0.513958 44.8651 2.36823 38.2909 5.54939Z" fill="#04054F"/>
<g opacity="0.6">
<path d="M38.2909 5.54939C31.7205 8.72559 25.8401 13.1648 20.9855 18.6137C16.1308 24.0625 12.3969 30.4142 9.997 37.3061C7.59711 44.198 6.57821 51.4952 6.99848 58.7808C7.41875 66.0665 9.26997 73.1981 12.4464 79.7683C31.6357 119.499 67.6069 110.297 75.3437 126.276C76.5735 128.832 79.4868 130.568 83.8044 130.882C92.4221 131.518 103.36 126.241 108.227 119.089C110.661 115.513 111.114 112.111 109.884 109.599C102.148 93.5846 131.743 71.1506 112.553 31.42C109.379 24.8427 104.939 18.9555 99.4877 14.0951C94.0365 9.23469 87.6808 5.49629 80.7839 3.09365C73.887 0.690999 66.5842 -0.328788 59.293 0.0925852C52.0018 0.513958 44.8651 2.36823 38.2909 5.54939Z" fill="white"/>
</g>
<path d="M85.7573 127.254C79.2678 126.774 76.9826 122.02 80.6372 116.656C84.2919 111.292 92.5171 107.306 98.9543 107.785C105.391 108.265 107.729 113.019 104.074 118.383C100.42 123.747 92.238 127.733 85.7573 127.254Z" fill="#04054F"/>
<path d="M98.4488 113.054C98.0017 113.265 97.4896 113.292 97.0229 113.128C96.5563 112.965 96.1724 112.625 95.9542 112.182C91.3315 102.549 87.8706 92.4 85.6443 81.9498C84.9896 78.9309 84.5408 75.871 84.3011 72.7912C82.515 72.9786 80.7142 72.9786 78.9281 72.7912C75.7171 72.4599 72.5723 71.6576 69.5951 70.41C68.719 73.5018 67.3905 76.4469 65.6526 79.1499C64.6973 80.668 63.5833 82.0803 62.3293 83.3628C64.5911 85.4667 66.7068 87.7223 68.6618 90.1139C75.4877 98.3611 81.3032 107.395 85.9845 117.023C86.1849 117.477 86.2005 117.992 86.0279 118.457C85.8553 118.923 85.5081 119.303 85.0599 119.517C84.8344 119.621 84.5905 119.679 84.3424 119.688C84.0943 119.698 83.8469 119.658 83.6142 119.571C83.3816 119.484 83.1684 119.352 82.9869 119.183C82.8054 119.014 82.6591 118.81 82.5566 118.584C77.9832 109.273 72.3458 100.525 65.7572 92.5126C63.8046 90.1269 61.6794 87.888 59.3986 85.8138C55.5346 88.4305 51.5485 88.7794 48.5916 87.6106C45.6347 86.4418 43.9687 83.7727 44.4746 80.9554C44.6098 79.9673 45.0376 79.0422 45.7029 78.2992C46.3682 77.5562 47.2405 77.0293 48.2078 76.7861C51.1385 76.0273 55.0723 77.5101 59.4771 80.9118C60.6332 79.7728 61.652 78.5023 62.5125 77.1263C64.1967 74.5068 65.4457 71.6319 66.2108 68.6132C62.1723 66.1622 59.6167 63.0483 59.1282 60.2659C58.9518 59.1416 59.1418 57.9904 59.67 56.9824C60.1982 55.9743 61.0367 55.163 62.0615 54.6681C63.0864 54.1733 64.2432 54.0213 65.3611 54.2346C66.479 54.4478 67.4986 55.015 68.2693 55.8523C70.1446 57.9719 70.9907 61.958 70.3976 66.5983C73.2379 67.8737 76.2659 68.6808 79.3642 68.9883C80.9784 69.1726 82.6084 69.1726 84.2226 68.9883C84.3011 63.4234 85.5745 59.3936 87.9994 57.5881C88.7947 57 89.7452 56.6584 90.7329 56.6057C91.7207 56.5529 92.7021 56.7914 93.5555 57.2915C96.0763 58.6435 97.1405 61.6004 96.1723 64.6532C95.2041 67.7061 92.474 70.5932 88.0517 72.0062C88.2526 75.0813 88.6841 78.1369 89.3426 81.1473C91.5193 91.2904 94.8679 101.146 99.3211 110.516C99.5471 110.961 99.5878 111.478 99.4342 111.954C99.2806 112.429 98.9452 112.825 98.5011 113.054H98.4488ZM48.862 80.528C48.5741 80.6676 48.3212 80.9467 48.1991 81.6358C47.9199 83.1622 49.49 83.9036 49.9435 84.0955C50.9902 84.4286 52.0971 84.5285 53.1865 84.3884C54.276 84.2483 55.3215 83.8714 56.2498 83.2843C52.8306 80.8333 50.3186 80.1181 49.0887 80.4408C49.01 80.4608 48.9338 80.4901 48.862 80.528ZM87.9994 67.9939C89.0359 67.6284 89.9807 67.0421 90.7683 66.2755C91.556 65.509 92.1677 64.5805 92.5612 63.5542C92.7095 63.0571 93.1107 61.3649 91.7326 60.6322C90.9388 60.2048 90.5289 60.3793 90.2236 60.6322C89.2031 61.3562 88.2087 63.7636 87.9994 67.9939ZM63.6639 58.1114C63.3457 58.2011 63.0758 58.4125 62.9125 58.6999C62.7492 58.9873 62.7058 59.3274 62.7916 59.6466C63.0446 61.0771 64.4314 62.9088 66.7778 64.5835C66.926 61.7051 66.3504 59.4721 65.3909 58.3906C65.1983 58.1263 64.9109 57.9469 64.5889 57.89C64.2669 57.833 63.9354 57.903 63.6639 58.0853V58.1114Z" fill="white"/>
<path d="M289.767 283.148L264.472 327.632C264.309 327.913 264.063 328.136 263.768 328.27C263.473 328.405 263.144 328.444 262.825 328.383C262.507 328.321 262.216 328.162 261.992 327.928C261.768 327.693 261.623 327.395 261.576 327.074L254.52 276.092L289.767 283.148Z" fill="#FFA8A7"/>
<path d="M261.593 327.092C261.64 327.413 261.785 327.711 262.009 327.946C262.233 328.18 262.524 328.339 262.842 328.401C263.161 328.462 263.49 328.423 263.785 328.288C264.08 328.154 264.326 327.931 264.489 327.65L269.426 318.928C267.914 319.406 266.3 319.458 264.761 319.077C263.223 318.697 261.818 317.9 260.703 316.774L260.084 316.154L261.593 327.092Z" fill="#263238"/>
<path d="M295.157 64.0859L294.285 68.735L293.186 74.3435L254.537 276.101C257.459 281.073 262.579 284.283 268.083 285.905C276.448 288.4 285.728 287.249 289.741 283.149L328.346 81.5133L330.405 70.776C328.686 77.6493 293.526 71.0028 295.157 64.0859Z" fill="#04054F"/>
<path opacity="0.5" d="M295.157 64.0859L294.285 68.735L293.186 74.3435L254.537 276.101C257.459 281.073 262.579 284.283 268.083 285.905C276.448 288.4 285.728 287.249 289.741 283.149L328.346 81.5133L330.405 70.776C328.686 77.6493 293.526 71.0028 295.157 64.0859Z" fill="white"/>
<path d="M291.712 81.7832L289.741 92.1803C289.069 95.1721 295.114 98.3296 302.397 100.406C312.061 103.197 324.15 102.708 325.075 98.7483L326.54 91.09L327.02 88.3425C326.148 92.3024 314.032 92.7996 304.342 90.0084C297.364 88.011 291.502 84.9931 291.677 82.1147C291.657 82.0031 291.669 81.8881 291.712 81.7832Z" fill="#EBEBEB"/>
<path d="M291.241 84.3834C289.662 91.3613 324.953 97.8944 326.523 90.9427L328.529 80.5456C326.959 87.5235 291.677 80.9381 293.247 73.9863L291.241 84.3834Z" fill="#04054F"/>
<path d="M295.158 64.0859L293.169 74.3435C291.582 81.1557 325.573 87.776 328.347 81.5133C328.41 81.3922 328.457 81.2631 328.486 81.1295L330.405 70.776C328.687 77.6493 293.527 71.0028 295.158 64.0859Z" fill="#EBEBEB"/>
<path opacity="0.1" d="M328.345 81.5127L330.404 70.7754C329.627 73.8806 321.987 74.8662 313.945 73.6451L273.124 287.021L264.523 327.65L289.818 283.166L328.345 81.5127Z" fill="black"/>
<path d="M338.918 26.3439C338.918 26.2305 338.996 26.1171 339.023 26.0037C339.895 21.4855 332.664 16.3393 322.93 14.4988C313.196 12.6584 304.613 14.8303 303.74 19.331L295.14 64.0682C294.451 67.0338 300.426 70.1739 307.639 72.2935C317.286 75.1108 329.445 74.7008 330.387 70.7583L338.822 26.998C338.822 26.7974 338.883 26.6055 338.909 26.3962C338.918 26.4049 338.909 26.3787 338.918 26.3439Z" fill="#F28F8F"/>
<path opacity="0.1" d="M325.005 14.9609L313.945 73.654C321.909 74.7966 329.646 73.8808 330.396 70.7756L338.822 26.9978C338.822 26.7972 338.883 26.6053 338.909 26.396C338.909 26.396 338.909 26.3437 338.909 26.3088C338.909 26.2739 338.987 26.082 339.013 25.9686C339.807 21.8167 333.667 17.0892 325.005 14.9609Z" fill="black"/>
<path d="M339.021 26.0063C339.873 21.4903 332.67 16.3406 322.932 14.5042C313.195 12.6678 304.611 14.8401 303.759 19.3562C302.907 23.8722 310.111 29.0219 319.848 30.8583C329.585 32.6947 338.17 30.5224 339.021 26.0063Z" fill="#FFA8A7"/>
<path d="M44.3532 153.471C44.2026 153.642 44.1244 153.864 44.1351 154.091L44.3096 157.048C44.2944 157.289 44.2216 157.524 44.0971 157.732C43.9727 157.94 43.8003 158.115 43.5943 158.243C43.324 158.417 43.0623 158.618 42.8093 158.818C42.4081 159.158 41.876 159.333 41.6056 159.167L41.405 154.457L38.3609 157.946C38.2959 158.019 38.2375 158.098 38.1865 158.181L36.8694 160.449C36.5903 160.929 36.5379 161.496 36.7647 161.714L38.8581 163.816C38.9755 164.004 39.051 164.215 39.0796 164.435C39.1082 164.655 39.0892 164.878 39.0238 165.09V165.22C38.8281 165.128 38.6192 165.066 38.4045 165.037L35.3517 168.526C35.2723 168.613 35.2113 168.715 35.1724 168.826C35.1334 168.937 35.1172 169.054 35.1249 169.172L35.6482 172.521C35.6801 172.705 35.7787 172.871 35.9251 172.987C36.0716 173.103 36.2556 173.16 36.442 173.149L38.9191 172.957C39.1062 172.946 39.2926 172.989 39.4563 173.08C39.6201 173.171 39.7545 173.307 39.8437 173.472C40.0978 174.012 40.3893 174.534 40.716 175.033C40.8049 175.251 40.8447 175.486 40.8326 175.721C40.8206 175.956 40.7569 176.186 40.6462 176.394L39.6344 178.548C39.4076 179.028 39.425 179.586 39.6344 179.778L42.1639 181.802C42.3819 181.985 42.8006 181.802 43.1233 181.462L45.1905 179.072C45.3387 178.996 45.5093 178.978 45.6703 179.019C46.148 179.183 46.638 179.308 47.1356 179.394C47.3198 179.433 47.4901 179.52 47.6284 179.648C47.7667 179.775 47.8677 179.938 47.9207 180.118L48.6882 183.084C48.7448 183.261 48.8658 183.411 49.0274 183.503C49.1889 183.595 49.3792 183.623 49.5605 183.581L52.2295 183.023C52.4013 182.985 52.5551 182.889 52.6656 182.752L55.7272 179.211L52.7093 179.168C52.7236 178.927 52.7962 178.693 52.9208 178.486C53.0454 178.28 53.2182 178.106 53.4245 177.981C53.6941 177.801 53.9533 177.606 54.2008 177.397C54.6107 177.065 55.1428 176.882 55.4132 177.048L57.8293 178.566C58.0386 178.697 58.3701 178.566 58.6318 178.269L61.6846 174.78L60.132 173.821L58.1782 172.451C58.0605 172.265 57.9846 172.056 57.956 171.837C57.9274 171.619 57.9467 171.397 58.0125 171.187C58.1171 170.733 58.2044 170.271 58.2654 169.808C58.2997 169.577 58.3932 169.358 58.5369 169.173C58.6805 168.988 58.8694 168.844 59.0853 168.753L61.2921 167.994C61.4556 167.939 61.6005 167.839 61.7108 167.706L64.7811 164.165L61.5712 164.784L61.4055 163.703C61.3756 163.517 61.2778 163.349 61.1312 163.232C60.9845 163.114 60.7994 163.055 60.6118 163.066L58.1346 163.267C57.9457 163.275 57.7581 163.231 57.5931 163.138C57.4281 163.046 57.2924 162.909 57.2013 162.743C56.9483 162.194 57.0443 161.365 56.7216 160.877C56.5384 160.606 56.1808 160.31 56.4076 159.83L57.4194 157.676C57.5395 157.491 57.6034 157.276 57.6034 157.056C57.6034 156.836 57.5395 156.621 57.4194 156.437L54.8899 154.413C54.6456 154.213 54.1746 154.413 53.8344 154.867L52.5261 156.611C52.4066 156.809 52.2351 156.969 52.0305 157.075C51.8259 157.181 51.596 157.229 51.366 157.213C50.8928 157.044 50.4053 156.919 49.9094 156.838C49.7156 156.801 49.5358 156.712 49.3896 156.58C49.2435 156.447 49.1366 156.277 49.0807 156.088L48.3219 153.114C48.2839 152.99 48.2126 152.879 48.1157 152.792C48.0188 152.706 47.9 152.648 47.7724 152.625L47.3886 149.982L44.3532 153.471ZM54.2095 166.947C54.7765 170.576 52.6918 174.048 49.543 174.71C46.3942 175.373 44.0566 172.39 43.4897 168.762C42.9227 165.133 44.3619 162.22 47.4845 161.566C50.6072 160.912 53.6426 163.31 54.2095 166.939V166.947Z" fill="#04054F"/>
<path opacity="0.3" d="M44.3532 153.471C44.2026 153.642 44.1244 153.864 44.1351 154.091L44.3096 157.048C44.2944 157.289 44.2216 157.524 44.0971 157.732C43.9727 157.94 43.8003 158.115 43.5943 158.243C43.324 158.417 43.0623 158.618 42.8093 158.818C42.4081 159.158 41.876 159.333 41.6056 159.167L41.405 154.457L38.3609 157.946C38.2959 158.019 38.2375 158.098 38.1865 158.181L36.8694 160.449C36.5903 160.929 36.5379 161.496 36.7647 161.714L38.8581 163.816C38.9755 164.004 39.051 164.215 39.0796 164.435C39.1082 164.655 39.0892 164.878 39.0238 165.09V165.22C38.8281 165.128 38.6192 165.066 38.4045 165.037L35.3517 168.526C35.2723 168.613 35.2113 168.715 35.1724 168.826C35.1334 168.937 35.1172 169.054 35.1249 169.172L35.6482 172.521C35.6801 172.705 35.7787 172.871 35.9251 172.987C36.0716 173.103 36.2556 173.16 36.442 173.149L38.9191 172.957C39.1062 172.946 39.2926 172.989 39.4563 173.08C39.6201 173.171 39.7545 173.307 39.8437 173.472C40.0978 174.012 40.3893 174.534 40.716 175.033C40.8049 175.251 40.8447 175.486 40.8326 175.721C40.8206 175.956 40.7569 176.186 40.6462 176.394L39.6344 178.548C39.4076 179.028 39.425 179.586 39.6344 179.778L42.1639 181.802C42.3819 181.985 42.8006 181.802 43.1233 181.462L45.1905 179.072C45.3387 178.996 45.5093 178.978 45.6703 179.019C46.148 179.183 46.638 179.308 47.1356 179.394C47.3198 179.433 47.4901 179.52 47.6284 179.648C47.7667 179.775 47.8677 179.938 47.9207 180.118L48.6882 183.084C48.7448 183.261 48.8658 183.411 49.0274 183.503C49.1889 183.595 49.3792 183.623 49.5605 183.581L52.2295 183.023C52.4013 182.985 52.5551 182.889 52.6656 182.752L55.7272 179.211L52.7093 179.168C52.7236 178.927 52.7962 178.693 52.9208 178.486C53.0454 178.28 53.2182 178.106 53.4245 177.981C53.6941 177.801 53.9533 177.606 54.2008 177.397C54.6107 177.065 55.1428 176.882 55.4132 177.048L57.8293 178.566C58.0386 178.697 58.3701 178.566 58.6318 178.269L61.6846 174.78L60.132 173.821L58.1782 172.451C58.0605 172.265 57.9846 172.056 57.956 171.837C57.9274 171.619 57.9467 171.397 58.0125 171.187C58.1171 170.733 58.2044 170.271 58.2654 169.808C58.2997 169.577 58.3932 169.358 58.5369 169.173C58.6805 168.988 58.8694 168.844 59.0853 168.753L61.2921 167.994C61.4556 167.939 61.6005 167.839 61.7108 167.706L64.7811 164.165L61.5712 164.784L61.4055 163.703C61.3756 163.517 61.2778 163.349 61.1312 163.232C60.9845 163.114 60.7994 163.055 60.6118 163.066L58.1346 163.267C57.9457 163.275 57.7581 163.231 57.5931 163.138C57.4281 163.046 57.2924 162.909 57.2013 162.743C56.9483 162.194 57.0443 161.365 56.7216 160.877C56.5384 160.606 56.1808 160.31 56.4076 159.83L57.4194 157.676C57.5395 157.491 57.6034 157.276 57.6034 157.056C57.6034 156.836 57.5395 156.621 57.4194 156.437L54.8899 154.413C54.6456 154.213 54.1746 154.413 53.8344 154.867L52.5261 156.611C52.4066 156.809 52.2351 156.969 52.0305 157.075C51.8259 157.181 51.596 157.229 51.366 157.213C50.8928 157.044 50.4053 156.919 49.9094 156.838C49.7156 156.801 49.5358 156.712 49.3896 156.58C49.2435 156.447 49.1366 156.277 49.0807 156.088L48.3219 153.114C48.2839 152.99 48.2126 152.879 48.1157 152.792C48.0188 152.706 47.9 152.648 47.7724 152.625L47.3886 149.982L44.3532 153.471ZM54.2095 166.947C54.7765 170.576 52.6918 174.048 49.543 174.71C46.3942 175.373 44.0566 172.39 43.4897 168.762C42.9227 165.133 44.3619 162.22 47.4845 161.566C50.6072 160.912 53.6426 163.31 54.2095 166.939V166.947Z" fill="black"/>
<path d="M47.9297 180.189L48.6885 183.119C48.7187 183.225 48.7742 183.321 48.8502 183.4C48.9262 183.48 49.0205 183.539 49.1247 183.573L52.9015 179.212H52.727C52.7414 178.971 52.814 178.737 52.9386 178.531C53.0631 178.324 53.236 178.151 53.4422 178.026V173.83L47.9297 180.189Z" fill="#04054F"/>
<path opacity="0.1" d="M47.9297 180.189L48.6885 183.119C48.7187 183.225 48.7742 183.321 48.8502 183.4C48.9262 183.48 49.0205 183.539 49.1247 183.573L52.9015 179.212H52.727C52.7414 178.971 52.814 178.737 52.9386 178.531C53.0631 178.324 53.236 178.151 53.4422 178.026V173.83L47.9297 180.189Z" fill="black"/>
<path d="M45.0435 172.714C44.801 172.371 44.5852 172.009 44.398 171.633L40.7695 175.811C40.7482 176.025 40.6923 176.234 40.6038 176.43L39.592 178.585C39.4575 178.854 39.4059 179.158 39.4437 179.457L45.026 173.02L45.0435 172.714Z" fill="#04054F"/>
<path opacity="0.1" d="M45.0435 172.714C44.801 172.371 44.5852 172.009 44.398 171.633L40.7695 175.811C40.7482 176.025 40.6923 176.234 40.6038 176.43L39.592 178.585C39.4575 178.854 39.4059 179.158 39.4437 179.457L45.026 173.02L45.0435 172.714Z" fill="black"/>
<path d="M47.3897 149.982C47.2465 150.149 47.1718 150.364 47.1804 150.584L47.3635 153.55C47.3484 153.792 47.2755 154.026 47.1511 154.234C47.0267 154.442 46.8543 154.617 46.6483 154.745C46.3779 154.928 46.1162 155.111 45.8633 155.321C45.4533 155.661 44.9213 155.835 44.6509 155.669L44.206 155.39L44.1275 154.117C44.1192 153.889 44.2006 153.666 44.3543 153.498L47.3897 149.982Z" fill="#04054F"/>
<path opacity="0.1" d="M47.3897 149.982C47.2465 150.149 47.1718 150.364 47.1804 150.584L47.3635 153.55C47.3484 153.792 47.2755 154.026 47.1511 154.234C47.0267 154.442 46.8543 154.617 46.6483 154.745C46.3779 154.928 46.1162 155.111 45.8633 155.321C45.4533 155.661 44.9213 155.835 44.6509 155.669L44.206 155.39L44.1275 154.117C44.1192 153.889 44.2006 153.666 44.3543 153.498L47.3897 149.982Z" fill="black"/>
<path d="M42.9753 158.705L42.8358 158.801C42.4345 159.141 41.9025 159.315 41.6321 159.15L41.4315 154.439L38.3873 157.928C38.3223 158.002 38.2639 158.08 38.2129 158.164L36.8696 160.449C36.5905 160.929 36.5382 161.496 36.765 161.714L38.8583 163.816C38.9693 163.953 39.0362 164.12 39.0502 164.296L43.141 159.577L42.9753 158.705Z" fill="#04054F"/>
<path opacity="0.1" d="M42.9753 158.705L42.8358 158.801C42.4345 159.141 41.9025 159.315 41.6321 159.15L41.4315 154.439L38.3873 157.928C38.3223 158.002 38.2639 158.08 38.2129 158.164L36.8696 160.449C36.5905 160.929 36.5382 161.496 36.765 161.714L38.8583 163.816C38.9693 163.953 39.0362 164.12 39.0502 164.296L43.141 159.577L42.9753 158.705Z" fill="black"/>
<path d="M35.9974 173.105L39.7742 168.744L38.902 165.159C38.727 165.094 38.5458 165.047 38.3612 165.02L35.3084 168.508C35.2345 168.601 35.1802 168.707 35.1487 168.821C35.1172 168.935 35.1092 169.054 35.1252 169.171L35.6485 172.521C35.6585 172.638 35.6951 172.752 35.7555 172.853C35.816 172.955 35.8987 173.041 35.9974 173.105Z" fill="#04054F"/>
<path opacity="0.1" d="M35.9974 173.105L39.7742 168.744L38.902 165.159C38.727 165.094 38.5458 165.047 38.3612 165.02L35.3084 168.508C35.2345 168.601 35.1802 168.707 35.1487 168.821C35.1172 168.935 35.1092 169.054 35.1252 169.171L35.6485 172.521C35.6585 172.638 35.6951 172.752 35.7555 172.853C35.816 172.955 35.8987 173.041 35.9974 173.105Z" fill="black"/>
<path d="M50.5194 149.111L47.8504 149.669C47.6552 149.715 47.4819 149.827 47.3596 149.986C47.2372 150.144 47.1734 150.341 47.1787 150.541L47.3619 153.507C47.3467 153.749 47.2739 153.983 47.1494 154.191C47.025 154.399 46.8526 154.574 46.6467 154.702C46.3739 154.878 46.1117 155.07 45.8617 155.277C45.4517 155.609 44.9196 155.792 44.658 155.626L42.2419 154.109C41.9715 153.943 41.5266 154.196 41.2388 154.667L39.8955 156.9C39.6164 157.371 39.5641 157.938 39.7909 158.164L41.8842 160.267C42.0016 160.455 42.0772 160.666 42.1058 160.885C42.1344 161.105 42.1154 161.328 42.05 161.54C41.9389 161.991 41.8544 162.448 41.797 162.909C41.7633 163.142 41.6701 163.363 41.5265 163.549C41.3829 163.735 41.1937 163.882 40.9771 163.974L38.7703 164.724C38.5729 164.788 38.4027 164.916 38.2872 165.089C38.1717 165.261 38.1176 165.468 38.1336 165.674L38.657 169.015C38.6869 169.201 38.7846 169.369 38.9313 169.486C39.0779 169.604 39.263 169.663 39.4507 169.652L41.9279 169.451C42.1159 169.441 42.3028 169.485 42.4667 169.578C42.6305 169.67 42.7644 169.808 42.8524 169.975C43.1013 170.515 43.393 171.034 43.7247 171.527C43.8137 171.747 43.8536 171.983 43.8416 172.22C43.8295 172.456 43.7658 172.687 43.6549 172.897L42.6431 175.042C42.4163 175.531 42.425 176.08 42.6431 176.281L45.1639 178.304C45.4168 178.505 45.8878 178.304 46.2193 177.86L47.5364 176.115C47.8678 175.67 48.4086 175.409 48.6877 175.522C49.1644 175.687 49.6548 175.81 50.1531 175.888C50.3371 175.93 50.5068 176.02 50.6448 176.148C50.7827 176.277 50.884 176.44 50.9381 176.621L51.7057 179.587C51.7622 179.764 51.8833 179.913 52.0448 180.005C52.2064 180.097 52.3967 180.125 52.5779 180.084L55.1946 179.526C55.3898 179.48 55.5631 179.368 55.6854 179.209C55.8078 179.05 55.8716 178.854 55.8663 178.653L55.6918 175.688C55.707 175.446 55.7798 175.211 55.9043 175.003C56.0287 174.796 56.2011 174.62 56.407 174.493C56.6785 174.319 56.9379 174.126 57.1833 173.917C57.5933 173.586 58.1254 173.402 58.3957 173.568L60.8119 175.086C61.0735 175.252 61.5271 175.007 61.8062 174.528L63.1495 172.295C63.2872 172.117 63.3711 171.903 63.3912 171.679C63.4113 171.455 63.3668 171.23 63.2628 171.03L61.2916 168.928C61.1742 168.74 61.0986 168.529 61.07 168.309C61.0414 168.089 61.0605 167.866 61.1259 167.654C61.2305 167.21 61.3178 166.782 61.3788 166.285C61.4131 166.053 61.5066 165.835 61.6503 165.65C61.7939 165.465 61.9828 165.32 62.1987 165.23L64.4055 164.471C64.6006 164.406 64.7687 164.278 64.8839 164.108C64.999 163.938 65.0547 163.734 65.0422 163.529L64.5102 160.179C64.4841 159.994 64.3886 159.825 64.243 159.706C64.0973 159.588 63.9123 159.53 63.7251 159.543L61.248 159.743C61.059 159.752 60.8714 159.708 60.7065 159.615C60.5415 159.523 60.4058 159.386 60.3147 159.22C60.066 158.68 59.7743 158.161 59.4424 157.667C59.3534 157.448 59.3135 157.211 59.3255 156.975C59.3376 156.738 59.4013 156.507 59.5122 156.298L60.524 154.152C60.6441 153.968 60.7081 153.753 60.7081 153.533C60.7081 153.313 60.6441 153.098 60.524 152.914L57.9335 150.855C57.6892 150.654 57.2182 150.855 56.8781 151.309L55.5697 153.053C55.2295 153.498 54.6975 153.76 54.4096 153.646C53.9362 153.48 53.4486 153.358 52.953 153.28C52.7694 153.238 52.5998 153.149 52.4607 153.022C52.3216 152.896 52.2178 152.735 52.1592 152.556L51.4004 149.582C51.3387 149.407 51.2141 149.263 51.0511 149.175C50.8882 149.088 50.6985 149.065 50.5194 149.111ZM57.2618 163.415C57.8288 167.044 55.7441 170.515 52.5954 171.17C49.4466 171.824 46.4897 169.425 45.8791 165.788C45.2685 162.151 47.3968 158.688 50.5369 158.034C53.6769 157.379 56.6949 159.787 57.2618 163.415Z" fill="#04054F"/>
<path d="M101.528 166.887L98.6412 170.454C98.5208 170.614 98.4482 170.804 98.4319 171.004L98.0393 177.293C98.0171 177.524 97.9334 177.746 97.797 177.934C97.6605 178.123 97.4762 178.272 97.2631 178.365C96.2538 178.766 95.2867 179.266 94.3759 179.857C94.2126 179.988 94.0155 180.071 93.8072 180.096C93.599 180.121 93.388 180.086 93.1984 179.996L88.5494 175.967C88.3139 175.757 87.8341 175.967 87.4852 176.368L83.7084 181.034C83.3595 181.462 83.2287 182.029 83.4293 182.29L87.2148 187.376C87.3119 187.591 87.3621 187.824 87.3621 188.06C87.3621 188.296 87.3119 188.53 87.2148 188.745C86.9619 189.338 86.7438 189.957 86.5432 190.585L82.2518 190.725L79.356 194.301C79.2308 194.467 79.1634 194.669 79.1641 194.877L79.3996 201.916C79.3935 202.107 79.4549 202.293 79.573 202.443C79.691 202.593 79.8582 202.697 80.045 202.736L85.6448 203.259C85.8297 203.294 86.0018 203.378 86.1431 203.502C86.2843 203.627 86.3894 203.787 86.4473 203.966C86.8375 205.3 87.3545 206.594 87.9911 207.83C88.0478 208.068 88.0538 208.315 88.0087 208.555C87.9636 208.796 87.8685 209.024 87.7295 209.225L84.7377 213.848C84.4324 214.319 84.3626 214.886 84.5807 215.122L89.2297 220.154C89.4478 220.39 89.9362 220.277 90.32 219.893L94.123 216.133C94.5068 215.758 94.9952 215.584 95.3092 215.75C96.3943 216.383 97.547 216.892 98.7459 217.267C98.923 217.342 99.0774 217.462 99.1937 217.615C99.3101 217.768 99.3842 217.949 99.4088 218.14L100.229 224.55C100.25 224.736 100.337 224.909 100.475 225.035C100.613 225.162 100.792 225.234 100.979 225.24L107.084 225.039C107.18 225.034 107.273 225.008 107.358 224.962C107.442 224.917 107.516 224.854 107.573 224.777L110.46 221.21L110.696 216.046C111.091 215.837 111.475 215.61 111.847 215.366C112.01 215.233 112.207 215.15 112.416 215.127C112.625 215.103 112.836 215.141 113.024 215.235L117.673 219.265C117.909 219.474 118.389 219.265 118.738 218.855L122.514 214.197C122.863 213.761 122.994 213.203 122.794 212.932L119.008 207.847C118.911 207.633 118.861 207.401 118.861 207.167C118.861 206.932 118.911 206.7 119.008 206.486C119.471 205.374 119.838 204.224 120.107 203.05C120.153 202.826 120.259 202.618 120.412 202.448C120.565 202.277 120.761 202.151 120.979 202.082L126.387 201.209C126.574 201.174 126.742 201.072 126.858 200.922L129.737 197.363L126.823 193.298C126.818 193.11 126.753 192.929 126.637 192.781C126.52 192.633 126.359 192.527 126.178 192.478L120.578 191.955C120.238 191.955 120.011 191.519 120.055 191.083C120.237 189.234 120.002 187.368 119.366 185.622C119.309 185.381 119.304 185.129 119.353 184.886C119.401 184.642 119.5 184.411 119.645 184.209L121.476 181.383C121.782 180.912 121.851 180.345 121.633 180.11L116.984 175.077C116.766 174.842 116.278 174.964 115.894 175.339L113.391 177.807C113.246 177.978 113.058 178.108 112.846 178.183C112.635 178.258 112.408 178.276 112.187 178.235C110.699 177.757 109.129 177.588 107.573 177.737C107.387 177.748 107.204 177.686 107.061 177.567C106.919 177.447 106.827 177.277 106.805 177.092L105.985 170.681C105.965 170.494 105.878 170.321 105.74 170.193C105.602 170.065 105.423 169.99 105.235 169.983L103.7 166.956L101.528 166.887ZM113.399 197.276C113.609 203.852 109.963 208.056 104.267 208.24C98.5714 208.423 93.8003 203.154 93.5648 196.586C93.3292 190.019 97.0537 185.91 102.706 185.745C108.358 185.579 113.181 190.708 113.399 197.276Z" fill="#04054F"/>
<path opacity="0.3" d="M101.528 166.887L98.6412 170.454C98.5208 170.614 98.4482 170.804 98.4319 171.004L98.0393 177.293C98.0171 177.524 97.9334 177.746 97.797 177.934C97.6605 178.123 97.4762 178.272 97.2631 178.365C96.2538 178.766 95.2867 179.266 94.3759 179.857C94.2126 179.988 94.0155 180.071 93.8072 180.096C93.599 180.121 93.388 180.086 93.1984 179.996L88.5494 175.967C88.3139 175.757 87.8341 175.967 87.4852 176.368L83.7084 181.034C83.3595 181.462 83.2287 182.029 83.4293 182.29L87.2148 187.376C87.3119 187.591 87.3621 187.824 87.3621 188.06C87.3621 188.296 87.3119 188.53 87.2148 188.745C86.9619 189.338 86.7438 189.957 86.5432 190.585L82.2518 190.725L79.356 194.301C79.2308 194.467 79.1634 194.669 79.1641 194.877L79.3996 201.916C79.3935 202.107 79.4549 202.293 79.573 202.443C79.691 202.593 79.8582 202.697 80.045 202.736L85.6448 203.259C85.8297 203.294 86.0018 203.378 86.1431 203.502C86.2843 203.627 86.3894 203.787 86.4473 203.966C86.8375 205.3 87.3545 206.594 87.9911 207.83C88.0478 208.068 88.0538 208.315 88.0087 208.555C87.9636 208.796 87.8685 209.024 87.7295 209.225L84.7377 213.848C84.4324 214.319 84.3626 214.886 84.5807 215.122L89.2297 220.154C89.4478 220.39 89.9362 220.277 90.32 219.893L94.123 216.133C94.5068 215.758 94.9952 215.584 95.3092 215.75C96.3943 216.383 97.547 216.892 98.7459 217.267C98.923 217.342 99.0774 217.462 99.1937 217.615C99.3101 217.768 99.3842 217.949 99.4088 218.14L100.229 224.55C100.25 224.736 100.337 224.909 100.475 225.035C100.613 225.162 100.792 225.234 100.979 225.24L107.084 225.039C107.18 225.034 107.273 225.008 107.358 224.962C107.442 224.917 107.516 224.854 107.573 224.777L110.46 221.21L110.696 216.046C111.091 215.837 111.475 215.61 111.847 215.366C112.01 215.233 112.207 215.15 112.416 215.127C112.625 215.103 112.836 215.141 113.024 215.235L117.673 219.265C117.909 219.474 118.389 219.265 118.738 218.855L122.514 214.197C122.863 213.761 122.994 213.203 122.794 212.932L119.008 207.847C118.911 207.633 118.861 207.401 118.861 207.167C118.861 206.932 118.911 206.7 119.008 206.486C119.471 205.374 119.838 204.224 120.107 203.05C120.153 202.826 120.259 202.618 120.412 202.448C120.565 202.277 120.761 202.151 120.979 202.082L126.387 201.209C126.574 201.174 126.742 201.072 126.858 200.922L129.737 197.363L126.823 193.298C126.818 193.11 126.753 192.929 126.637 192.781C126.52 192.633 126.359 192.527 126.178 192.478L120.578 191.955C120.238 191.955 120.011 191.519 120.055 191.083C120.237 189.234 120.002 187.368 119.366 185.622C119.309 185.381 119.304 185.129 119.353 184.886C119.401 184.642 119.5 184.411 119.645 184.209L121.476 181.383C121.782 180.912 121.851 180.345 121.633 180.11L116.984 175.077C116.766 174.842 116.278 174.964 115.894 175.339L113.391 177.807C113.246 177.978 113.058 178.108 112.846 178.183C112.635 178.258 112.408 178.276 112.187 178.235C110.699 177.757 109.129 177.588 107.573 177.737C107.387 177.748 107.204 177.686 107.061 177.567C106.919 177.447 106.827 177.277 106.805 177.092L105.985 170.681C105.965 170.494 105.878 170.321 105.74 170.193C105.602 170.065 105.423 169.99 105.235 169.983L103.7 166.956L101.528 166.887ZM113.399 197.276C113.609 203.852 109.963 208.056 104.267 208.24C98.5714 208.423 93.8003 203.154 93.5648 196.586C93.3292 190.019 97.0537 185.91 102.706 185.745C108.358 185.579 113.181 190.708 113.399 197.276Z" fill="black"/>
<path d="M90.0758 177.293L88.5407 175.967C88.3052 175.758 87.8255 175.967 87.4766 176.368L83.6998 181.035C83.3509 181.462 83.22 182.029 83.4207 182.291L87.2062 187.376C87.2697 187.479 87.3085 187.596 87.3196 187.716L92.1692 181.724L90.0758 177.293Z" fill="#04054F"/>
<path opacity="0.1" d="M90.0758 177.293L88.5407 175.967C88.3052 175.758 87.8255 175.967 87.4766 176.368L83.6998 181.035C83.3509 181.462 83.22 182.029 83.4207 182.291L87.2062 187.376C87.2697 187.479 87.3085 187.596 87.3196 187.716L92.1692 181.724L90.0758 177.293Z" fill="black"/>
<path d="M99.1816 217.651C99.2833 217.8 99.349 217.97 99.3735 218.148L100.193 224.559C100.224 224.714 100.293 224.858 100.394 224.978L103.665 220.94L103.438 212.4L99.1816 217.651Z" fill="#04054F"/>
<path opacity="0.1" d="M99.1816 217.651C99.2833 217.8 99.349 217.97 99.3735 218.148L100.193 224.559C100.224 224.714 100.293 224.858 100.394 224.978L103.665 220.94L103.438 212.4L99.1816 217.651Z" fill="black"/>
<path d="M84.5117 214.224C84.4399 214.358 84.4023 214.508 84.4023 214.66C84.4023 214.812 84.4399 214.962 84.5117 215.096L89.1607 220.129C89.2194 220.184 89.2913 220.222 89.3693 220.24C89.4473 220.259 89.5287 220.256 89.6056 220.234L93.33 215.646L88.9688 208.668L84.5117 214.224Z" fill="#04054F"/>
<path opacity="0.1" d="M84.5117 214.224C84.4399 214.358 84.4023 214.508 84.4023 214.66C84.4023 214.812 84.4399 214.962 84.5117 215.096L89.1607 220.129C89.2194 220.184 89.2913 220.222 89.3693 220.24C89.4473 220.259 89.5287 220.256 89.6056 220.234L93.33 215.646L88.9688 208.668L84.5117 214.224Z" fill="black"/>
<path d="M79.722 202.614L84.3187 196.935L84.1094 190.664L82.2166 190.725L79.3208 194.301C79.1957 194.467 79.1283 194.669 79.1289 194.877L79.3644 201.916C79.3654 202.052 79.3983 202.186 79.4604 202.307C79.5225 202.428 79.6121 202.533 79.722 202.614Z" fill="#04054F"/>
<path opacity="0.1" d="M79.722 202.614L84.3187 196.935L84.1094 190.664L82.2166 190.725L79.3208 194.301C79.1957 194.467 79.1283 194.669 79.1289 194.877L79.3644 201.916C79.3654 202.052 79.3983 202.186 79.4604 202.307C79.5225 202.428 79.6121 202.533 79.722 202.614Z" fill="black"/>
<path d="M108.122 166.425L102.017 166.625C101.819 166.653 101.639 166.751 101.509 166.902C101.379 167.053 101.308 167.246 101.31 167.445L100.918 173.734C100.893 173.965 100.808 174.186 100.672 174.374C100.536 174.562 100.353 174.711 100.141 174.807C99.1278 175.204 98.1574 175.704 97.2456 176.299C97.0828 176.432 96.885 176.515 96.6761 176.538C96.4672 176.561 96.256 176.523 96.068 176.429L91.4277 172.4C91.1835 172.199 90.7038 172.4 90.3549 172.81L86.5868 177.467C86.2379 177.903 86.1158 178.47 86.3077 178.732L90.0932 183.817C90.1923 184.03 90.2436 184.263 90.2436 184.498C90.2436 184.733 90.1923 184.965 90.0932 185.178C89.6344 186.292 89.2669 187.441 88.9942 188.615C88.9495 188.84 88.8448 189.048 88.6913 189.219C88.5378 189.389 88.341 189.515 88.1219 189.583L82.714 190.455C82.5205 190.503 82.3492 190.615 82.2286 190.774C82.108 190.933 82.0453 191.128 82.0512 191.327L82.2779 198.366C82.2833 198.555 82.35 198.738 82.468 198.886C82.586 199.033 82.7489 199.139 82.9321 199.186L88.5232 199.709C88.7104 199.741 88.8852 199.824 89.0284 199.948C89.1716 200.073 89.2775 200.235 89.3343 200.416C89.7215 201.75 90.2356 203.044 90.8695 204.28C90.9333 204.517 90.9428 204.766 90.8975 205.008C90.8522 205.249 90.7532 205.477 90.6078 205.676L87.616 210.298C87.3108 210.769 87.241 211.336 87.459 211.572L92.1168 216.605C92.3349 216.84 92.8233 216.718 93.2071 216.343L97.0013 212.584C97.3851 212.209 97.8736 212.034 98.1876 212.191C99.2868 212.833 100.458 213.342 101.677 213.709C101.853 213.785 102.006 213.905 102.122 214.058C102.238 214.211 102.313 214.391 102.339 214.581L103.159 220.992C103.178 221.18 103.265 221.354 103.403 221.482C103.541 221.611 103.721 221.685 103.909 221.69L110.015 221.489C110.208 221.452 110.383 221.351 110.511 221.202C110.639 221.053 110.713 220.866 110.722 220.669L111.114 214.381C111.138 214.148 111.223 213.926 111.361 213.738C111.499 213.549 111.685 213.401 111.899 213.308C112.908 212.905 113.875 212.406 114.786 211.816C114.949 211.683 115.147 211.6 115.356 211.577C115.565 211.554 115.776 211.591 115.964 211.685L120.604 215.706C120.848 215.916 121.328 215.706 121.677 215.305L125.454 210.639C125.616 210.478 125.729 210.275 125.778 210.052C125.828 209.829 125.812 209.597 125.733 209.383L121.947 204.297C121.848 204.083 121.797 203.849 121.797 203.613C121.797 203.376 121.848 203.143 121.947 202.928C122.408 201.818 122.775 200.671 123.046 199.5C123.09 199.275 123.195 199.066 123.348 198.895C123.502 198.725 123.699 198.599 123.919 198.532L129.327 197.66C129.52 197.612 129.691 197.499 129.812 197.341C129.933 197.182 129.995 196.987 129.989 196.787L129.763 189.749C129.768 189.557 129.706 189.369 129.586 189.219C129.466 189.068 129.297 188.966 129.108 188.929L123.517 188.405C123.331 188.373 123.158 188.29 123.016 188.165C122.875 188.041 122.77 187.879 122.715 187.699C122.321 186.366 121.804 185.072 121.171 183.835C121.107 183.597 121.098 183.349 121.143 183.107C121.188 182.866 121.287 182.637 121.433 182.439L124.425 177.816C124.73 177.345 124.8 176.778 124.582 176.543L119.924 171.51C119.706 171.274 119.217 171.388 118.834 171.772L115.039 175.531C114.655 175.906 114.123 176.08 113.853 175.915C112.766 175.28 111.61 174.771 110.408 174.397C110.232 174.321 110.078 174.201 109.962 174.048C109.846 173.895 109.771 173.715 109.745 173.525L108.925 167.114C108.905 166.918 108.811 166.737 108.661 166.609C108.512 166.481 108.319 166.415 108.122 166.425ZM116.243 193.717C116.461 200.285 112.021 205.763 106.334 205.929C100.647 206.094 95.8674 200.939 95.6407 194.371C95.4139 187.803 99.8623 182.317 105.549 182.16C111.236 182.003 116.06 187.149 116.243 193.717Z" fill="#04054F"/>
<path d="M101.538 166.887C101.405 167.046 101.328 167.246 101.32 167.454L100.928 173.734C100.904 173.965 100.82 174.186 100.683 174.374C100.547 174.562 100.364 174.712 100.152 174.807C99.4582 175.078 98.7848 175.399 98.1367 175.766L98.4333 171.012C98.448 170.81 98.5206 170.616 98.6426 170.454L101.538 166.887Z" fill="#04054F"/>
<path d="M101.538 166.887C101.405 167.046 101.328 167.246 101.32 167.454L100.928 173.734C100.904 173.965 100.82 174.186 100.683 174.374C100.547 174.562 100.364 174.712 100.152 174.807C99.4582 175.078 98.7848 175.399 98.1367 175.766L98.4333 171.012C98.448 170.81 98.5206 170.616 98.6426 170.454L101.538 166.887Z" fill="#04054F"/>
<path opacity="0.1" d="M101.538 166.887C101.405 167.046 101.328 167.246 101.32 167.454L100.928 173.734C100.904 173.965 100.82 174.186 100.683 174.374C100.547 174.562 100.364 174.712 100.152 174.807C99.4582 175.078 98.7848 175.399 98.1367 175.766L98.4333 171.012C98.448 170.81 98.5206 170.616 98.6426 170.454L101.538 166.887Z" fill="black"/>
<path d="M281.359 323.777C289.524 315.569 300.898 311.069 312.385 309.603C323.872 308.138 335.534 309.464 346.917 311.592C351.322 312.464 356.267 313.258 360.001 310.72C363.734 308.182 364.728 302.564 363.045 298.273C361.361 293.981 357.602 290.807 353.598 288.53C338.919 280.165 319.223 281.36 305.372 291.042C293.161 299.581 285.799 311.435 281.394 323.777" fill="#04054F"/>
<path opacity="0.3" d="M281.359 323.777C289.524 315.569 300.898 311.069 312.385 309.603C323.872 308.138 335.534 309.464 346.917 311.592C351.322 312.464 356.267 313.258 360.001 310.72C363.734 308.182 364.728 302.564 363.045 298.273C361.361 293.981 357.602 290.807 353.598 288.53C338.919 280.165 319.223 281.36 305.372 291.042C293.161 299.581 285.799 311.435 281.394 323.777" fill="black"/>
<path d="M343.733 271.991C341.494 272.2 339.29 272.689 337.174 273.448C336.214 273.797 335.333 274.32 334.409 274.712C333.411 275.174 332.446 275.705 331.521 276.3C331.729 275.628 332.022 274.986 332.394 274.39C333.374 272.53 334.64 270.834 336.144 269.366C340.917 264.606 346.634 260.897 352.926 258.48C357.08 256.87 361.446 255.873 365.888 255.523C371.767 255.078 378.186 255.977 382.46 260.068C384.44 261.978 385.853 264.743 385.313 267.438C385.059 268.475 384.588 269.447 383.931 270.289C383.274 271.131 382.445 271.824 381.501 272.323C379.604 273.302 377.525 273.878 375.395 274.015C370.162 274.538 364.824 273.77 359.581 272.994C354.339 272.218 349.001 271.476 343.733 271.991Z" fill="#04054F"/>
<path opacity="0.15" d="M343.733 271.991C341.494 272.2 339.29 272.689 337.174 273.448C336.214 273.797 335.333 274.32 334.409 274.712C333.411 275.174 332.446 275.705 331.521 276.3C331.729 275.628 332.022 274.986 332.394 274.39C333.374 272.53 334.64 270.834 336.144 269.366C340.917 264.606 346.634 260.897 352.926 258.48C357.08 256.87 361.446 255.873 365.888 255.523C371.767 255.078 378.186 255.977 382.46 260.068C384.44 261.978 385.853 264.743 385.313 267.438C385.059 268.475 384.588 269.447 383.931 270.289C383.274 271.131 382.445 271.824 381.501 272.323C379.604 273.302 377.525 273.878 375.395 274.015C370.162 274.538 364.824 273.77 359.581 272.994C354.339 272.218 349.001 271.476 343.733 271.991Z" fill="black"/>
<path d="M345.381 235.193C337.976 247.762 328.05 256.999 316.693 265.791C321.717 255.769 323.628 244.796 324.395 233.719C325.163 222.641 323.104 211.555 321.822 200.573C321.098 194.346 321.246 187.795 323.924 182.117C326.602 176.439 332.272 171.859 338.543 171.947C344.038 172.025 349.062 175.654 351.923 180.346C354.784 185.039 355.778 190.647 355.996 196.142C356.555 209.924 352.394 223.295 345.381 235.193Z" fill="#04054F"/>
<path d="M345.887 169.172C348.311 170.008 350.514 171.385 352.327 173.198C354.141 175.012 355.518 177.215 356.354 179.639C356.641 180.511 357.043 181.567 357.95 181.663C358.988 181.776 359.607 180.529 359.694 179.5C360.471 171.388 351.748 169.085 345.887 169.172Z" fill="#04054F"/>
<path opacity="0.4" d="M345.887 169.172C348.311 170.008 350.514 171.385 352.327 173.198C354.141 175.012 355.518 177.215 356.354 179.639C356.641 180.511 357.043 181.567 357.95 181.663C358.988 181.776 359.607 180.529 359.694 179.5C360.471 171.388 351.748 169.085 345.887 169.172Z" fill="white"/>
<path d="M133.741 304.675C142.071 311.051 150.156 319.817 152.843 330.258C156.157 313.476 151.229 294.74 142.167 280.54C133.444 266.838 116.941 253.972 99.7408 260.531C95.3796 262.206 91.6028 266.079 91.0708 270.745C90.6085 274.871 92.667 278.962 95.5977 281.892C98.5284 284.823 102.279 286.786 105.969 288.67C115.511 293.519 125.245 298.168 133.741 304.675Z" fill="#04054F"/>
<path opacity="0.15" d="M133.741 304.675C142.071 311.051 150.156 319.817 152.843 330.258C156.157 313.476 151.229 294.74 142.167 280.54C133.444 266.838 116.941 253.972 99.7408 260.531C95.3796 262.206 91.6028 266.079 91.0708 270.745C90.6085 274.871 92.667 278.962 95.5977 281.892C98.5284 284.823 102.279 286.786 105.969 288.67C115.511 293.519 125.245 298.168 133.741 304.675Z" fill="black"/>
<path d="M151.379 227.917C151.03 233.421 148.378 239.98 146.913 244.236C144.715 250.63 142.639 257.512 144.366 264.045C139.769 258.079 135.408 251.267 133.384 243.983C131.265 236.299 131.526 227.55 137.405 221.48C141.234 217.528 149.172 217.258 150.977 223.416C151.369 224.882 151.505 226.405 151.379 227.917Z" fill="#04054F"/>
<path opacity="0.3" d="M151.379 227.917C151.03 233.421 148.378 239.98 146.913 244.236C144.715 250.63 142.639 257.512 144.366 264.045C139.769 258.079 135.408 251.267 133.384 243.983C131.265 236.299 131.526 227.55 137.405 221.48C141.234 217.528 149.172 217.258 150.977 223.416C151.369 224.882 151.505 226.405 151.379 227.917Z" fill="black"/>
<path d="M29.8921 289.951C57.2019 310.187 93.5656 299.249 123.466 313.719C115.686 298.289 95.3188 294.696 80.9879 283.051C67.7735 272.305 62.165 262.065 51.4015 253.622C42.5221 246.644 28.5488 244.123 20.4981 252.026C15.2123 257.259 14.0609 265.685 16.3637 272.733C18.6664 279.78 23.9347 285.537 29.8921 289.951Z" fill="#04054F"/>
<path d="M58.4486 214.111C61.0826 217.376 62.9487 221.192 63.9089 225.275C65.2696 231.198 65.1736 237.338 65.0777 243.409C63.1326 237.792 58.972 233.126 54.0874 229.759C47.1095 224.935 38.8494 222.493 30.5369 221.036C28.4143 220.775 26.3281 220.275 24.3179 219.545C23.3117 219.177 22.3882 218.615 21.6008 217.888C20.8133 217.162 20.1775 216.288 19.7299 215.314C19.1033 213.53 19.1813 211.574 19.948 209.845C21.6924 205.58 25.7832 203.74 30.1096 202.868C40.7945 200.861 51.8283 205.807 58.4486 214.111Z" fill="#04054F"/>
<path opacity="0.5" d="M58.4486 214.111C61.0826 217.376 62.9487 221.192 63.9089 225.275C65.2696 231.198 65.1736 237.338 65.0777 243.409C63.1326 237.792 58.972 233.126 54.0874 229.759C47.1095 224.935 38.8494 222.493 30.5369 221.036C28.4143 220.775 26.3281 220.275 24.3179 219.545C23.3117 219.177 22.3882 218.615 21.6008 217.888C20.8133 217.162 20.1775 216.288 19.7299 215.314C19.1033 213.53 19.1813 211.574 19.948 209.845C21.6924 205.58 25.7832 203.74 30.1096 202.868C40.7945 200.861 51.8283 205.807 58.4486 214.111Z" fill="white"/>
<path d="M102.732 248.659C105.276 248.219 107.893 248.522 110.269 249.531C112.958 250.738 115.168 252.807 116.549 255.41C116.06 254.486 112.188 254.102 111.219 253.98C107.874 253.512 104.476 253.559 101.145 254.119C99.4499 254.446 97.7988 254.97 96.2256 255.681C95.615 255.951 92.1784 257.425 92.1348 258.097C92.3267 254.922 94.5421 252.122 97.3071 250.543C98.9874 249.594 100.825 248.956 102.732 248.659Z" fill="#04054F"/>
</svg>
