<svg width="481" height="359" viewBox="0 0 481 359" fill="none" xmlns="http://www.w3.org/2000/svg">
<path d="M481 314.959H0V315.199H481V314.959Z" fill="#EBEBEB"/>
<path d="M432.804 330.438H400.942V330.678H432.804V330.438Z" fill="#EBEBEB"/>
<path d="M318.633 333.055H310.273V333.295H318.633V333.055Z" fill="#EBEBEB"/>
<path d="M399.98 321.51H381.52V321.75H399.98V321.51Z" fill="#EBEBEB"/>
<path d="M92.0156 323.127H50.4668V323.367H92.0156V323.127Z" fill="#EBEBEB"/>
<path d="M106.676 323.127H100.587V323.367H106.676V323.127Z" fill="#EBEBEB"/>
<path d="M216.595 327.186H126.475V327.426H216.595V327.186Z" fill="#EBEBEB"/>
<path d="M227.994 272.054H42.2412C40.786 272.051 39.3913 271.471 38.3633 270.441C37.3352 269.411 36.7578 268.016 36.7578 266.561V5.44492C36.7705 3.9981 37.3535 2.6147 38.3802 1.59521C39.4069 0.575717 40.7943 0.00247848 42.2412 0H227.994C229.451 0 230.848 0.578727 231.878 1.60887C232.908 2.63901 233.487 4.03618 233.487 5.49302V266.561C233.487 268.017 232.908 269.415 231.878 270.445C230.848 271.475 229.451 272.054 227.994 272.054ZM42.2412 0.192401C40.8498 0.194949 39.5163 0.749461 38.5333 1.73422C37.5504 2.71899 36.9983 4.05353 36.9983 5.44492V266.561C36.9983 267.952 37.5504 269.286 38.5333 270.271C39.5163 271.256 40.8498 271.811 42.2412 271.813H227.994C229.386 271.811 230.721 271.256 231.705 270.272C232.69 269.287 233.244 267.953 233.246 266.561V5.44492C233.244 4.05265 232.69 2.71812 231.705 1.73364C230.721 0.749148 229.386 0.194944 227.994 0.192401H42.2412Z" fill="#EBEBEB"/>
<path d="M436.084 272.054H250.322C248.866 272.051 247.47 271.472 246.441 270.442C245.411 269.412 244.832 268.017 244.829 266.561V5.44492C244.844 3.99722 245.429 2.61383 246.458 1.5946C247.486 0.575381 248.874 0.00245145 250.322 0H436.084C437.53 0.00500672 438.915 0.579364 439.939 1.59858C440.964 2.6178 441.545 3.99976 441.558 5.44492V266.561C441.558 268.014 440.982 269.408 439.956 270.438C438.93 271.468 437.538 272.048 436.084 272.054ZM250.322 0.192401C248.93 0.194944 247.595 0.749148 246.611 1.73364C245.626 2.71812 245.072 4.05265 245.07 5.44492V266.561C245.072 267.953 245.626 269.287 246.611 270.272C247.595 271.256 248.93 271.811 250.322 271.813H436.084C437.477 271.811 438.811 271.256 439.796 270.272C440.78 269.287 441.334 267.953 441.337 266.561V5.44492C441.334 4.05265 440.78 2.71812 439.796 1.73364C438.811 0.749148 437.477 0.194944 436.084 0.192401H250.322Z" fill="#EBEBEB"/>
<path d="M166.026 74.919L158.211 76.6016L159.893 84.4167L167.709 82.7342L166.026 74.919Z" fill="#EBEBEB"/>
<path d="M216.462 126.113C217.761 101.809 199.112 81.053 174.808 79.7538C150.504 78.4545 129.748 97.1036 128.449 121.408C127.15 145.712 145.799 166.467 170.103 167.767C194.407 169.066 215.163 150.417 216.462 126.113Z" fill="#E0E0E0"/>
<path d="M196.543 153.634C213.032 140.329 215.614 116.175 202.308 99.6856C189.003 83.1961 164.849 80.6148 148.36 93.9202C131.87 107.226 129.289 131.379 142.594 147.869C155.9 164.358 180.053 166.939 196.543 153.634Z" fill="#F0F0F0"/>
<path d="M167.699 67.5041L153.62 70.5352L155.517 79.3472L169.596 76.3161L167.699 67.5041Z" fill="#E0E0E0"/>
<path d="M176.104 122.973C176.255 123.694 176.189 124.445 175.913 125.129C175.638 125.813 175.167 126.401 174.558 126.817C173.949 127.233 173.231 127.46 172.493 127.469C171.756 127.477 171.033 127.267 170.414 126.865C169.796 126.463 169.311 125.886 169.02 125.209C168.729 124.531 168.646 123.782 168.78 123.057C168.914 122.332 169.26 121.663 169.775 121.134C170.289 120.605 170.948 120.241 171.669 120.087C172.15 119.984 172.646 119.977 173.13 120.066C173.613 120.156 174.074 120.34 174.486 120.608C174.898 120.876 175.253 121.223 175.531 121.629C175.809 122.035 176.003 122.491 176.104 122.973Z" fill="#E0E0E0"/>
<path d="M163.223 92.7852C164.387 95.2479 165.387 97.7587 166.397 100.27L167.84 104.05L169.206 107.898C170.168 110.438 170.967 112.997 171.784 115.594C172.602 118.192 173.401 120.731 174.141 123.29L171.255 122.501C173 120.904 174.76 119.327 176.537 117.768C178.316 116.21 180.125 114.68 181.943 113.18C183.761 111.679 185.618 110.188 187.484 108.726C189.351 107.263 191.265 105.839 193.256 104.512C191.765 106.436 190.197 108.168 188.619 109.938C187.042 111.708 185.426 113.439 183.809 115.132C182.193 116.826 180.51 118.528 178.826 120.183C177.143 121.838 175.44 123.483 173.708 125.089L171.65 127.013L170.813 124.3C170.024 121.722 169.283 119.134 168.562 116.537C167.84 113.94 167.148 111.342 166.513 108.716L165.551 104.781L164.695 100.827C164.127 98.1243 163.588 95.4788 163.223 92.7852Z" fill="#E0E0E0"/>
<path d="M407.339 104.127L372.707 204.723L232.804 156.584L267.436 55.9785L272.14 57.5947C271.783 57.8995 271.501 58.2826 271.316 58.7143C271.132 59.1459 271.049 59.6143 271.075 60.083C271.101 60.5518 271.235 61.0082 271.466 61.4167C271.698 61.8252 272.02 62.1748 272.409 62.4382C272.797 62.7016 273.242 62.8718 273.707 62.9354C274.172 62.999 274.645 62.9543 275.09 62.8049C275.536 62.6555 275.94 62.4054 276.273 62.074C276.605 61.7426 276.857 61.3389 277.008 60.8943C277.191 60.3856 277.228 59.8356 277.113 59.307L281.808 60.9232C281.392 61.2699 281.082 61.7266 280.913 62.2411C280.651 63.0065 280.703 63.845 281.058 64.5721C281.413 65.2991 282.043 65.8552 282.808 66.118C283.574 66.3808 284.412 66.3288 285.139 65.9734C285.866 65.6179 286.423 64.9883 286.685 64.2229C286.865 63.7132 286.899 63.1632 286.782 62.6356L291.476 64.2421C291.06 64.5888 290.75 65.0455 290.581 65.56C290.451 65.939 290.397 66.3399 290.422 66.7399C290.447 67.1398 290.55 67.531 290.726 67.891C290.902 68.251 291.147 68.5728 291.448 68.838C291.748 69.1033 292.098 69.3068 292.477 69.4369C292.856 69.567 293.256 69.6212 293.656 69.5964C294.056 69.5716 294.447 69.4682 294.807 69.2922C295.167 69.1163 295.489 68.8711 295.755 68.5708C296.02 68.2704 296.223 67.9207 296.353 67.5418C296.531 67.0318 296.567 66.4834 296.459 65.9545L301.144 67.561C300.787 67.8658 300.505 68.249 300.321 68.6806C300.136 69.1122 300.053 69.5806 300.079 70.0494C300.105 70.5181 300.239 70.9745 300.471 71.383C300.702 71.7915 301.025 72.1411 301.413 72.4045C301.802 72.6679 302.246 72.8381 302.711 72.9017C303.176 72.9653 303.65 72.9207 304.095 72.7712C304.54 72.6218 304.944 72.3717 305.277 72.0403C305.609 71.7089 305.861 71.3052 306.012 70.8607C306.19 70.3508 306.226 69.8023 306.118 69.2734L310.803 70.8895C310.39 71.2396 310.081 71.6951 309.908 72.2075C309.754 72.6507 309.704 73.1236 309.762 73.5893C309.82 74.055 309.985 74.5009 310.244 74.8924C310.503 75.2839 310.849 75.6103 311.255 75.8463C311.66 76.0823 312.115 76.2214 312.583 76.2529C313.052 76.2844 313.521 76.2073 313.955 76.0278C314.388 75.8482 314.775 75.571 315.084 75.2177C315.393 74.8644 315.616 74.4445 315.736 73.9908C315.856 73.5371 315.87 73.0618 315.776 72.6019L320.461 74.2084C320.049 74.5585 319.74 75.014 319.566 75.5264C319.304 76.2918 319.356 77.1302 319.711 77.8573C320.067 78.5843 320.696 79.1404 321.462 79.4032C322.227 79.666 323.066 79.614 323.793 79.2586C324.52 78.9032 325.076 78.2735 325.338 77.5081C325.516 76.9981 325.552 76.4498 325.444 75.9208L330.129 77.5369C329.713 77.8836 329.403 78.3403 329.235 78.8549C329.104 79.2339 329.05 79.6348 329.075 80.0347C329.1 80.4347 329.203 80.8258 329.379 81.1858C329.555 81.5458 329.8 81.8676 330.101 82.1329C330.401 82.3981 330.751 82.6016 331.13 82.7317C331.509 82.8619 331.91 82.9161 332.31 82.8912C332.71 82.8664 333.101 82.7631 333.461 82.5871C333.821 82.4111 334.142 82.1659 334.408 81.8656C334.673 81.5652 334.876 81.2156 335.007 80.8366C335.184 80.3265 335.22 79.7783 335.112 79.2493L339.797 80.8558C339.44 81.1607 339.158 81.5438 338.974 81.9754C338.789 82.407 338.707 82.8754 338.733 83.3442C338.759 83.8129 338.893 84.2693 339.124 84.6778C339.355 85.0863 339.678 85.4359 340.066 85.6994C340.455 85.9628 340.899 86.1329 341.364 86.1965C341.829 86.2601 342.303 86.2155 342.748 86.0661C343.193 85.9167 343.598 85.6665 343.93 85.3351C344.263 85.0037 344.514 84.6 344.665 84.1555C344.848 83.6468 344.885 83.0968 344.771 82.5682L349.456 84.1844C349.1 84.4903 348.82 84.8741 348.637 85.306C348.454 85.7379 348.373 86.2061 348.401 86.6744C348.428 87.1426 348.563 87.5982 348.795 88.0058C349.028 88.4133 349.351 88.7618 349.739 89.0241C350.128 89.2864 350.572 89.4554 351.037 89.5181C351.502 89.5808 351.975 89.5354 352.42 89.3855C352.864 89.2356 353.268 88.9851 353.6 88.6537C353.932 88.3222 354.183 87.9186 354.333 87.4744C354.513 86.9647 354.547 86.4148 354.429 85.8871L359.124 87.5033C358.708 87.8499 358.398 88.3067 358.229 88.8212C358.075 89.2644 358.025 89.7373 358.083 90.203C358.142 90.6687 358.307 91.1147 358.566 91.5062C358.825 91.8976 359.17 92.2241 359.576 92.4601C359.982 92.696 360.436 92.8352 360.905 92.8666C361.373 92.8981 361.842 92.8211 362.276 92.6415C362.71 92.462 363.096 92.1847 363.405 91.8314C363.714 91.4781 363.937 91.0583 364.057 90.6046C364.177 90.1508 364.191 89.6755 364.097 89.2156L368.782 90.8222C368.37 91.1722 368.061 91.6278 367.888 92.1401C367.758 92.5191 367.703 92.92 367.728 93.3199C367.753 93.7199 367.856 94.111 368.032 94.471C368.208 94.831 368.454 95.1528 368.754 95.4181C369.054 95.6833 369.404 95.8868 369.783 96.017C370.162 96.1471 370.563 96.2013 370.963 96.1765C371.363 96.1516 371.754 96.0483 372.114 95.8723C372.474 95.6963 372.796 95.4512 373.061 95.1508C373.326 94.8505 373.53 94.5008 373.66 94.1218C373.837 93.6119 373.874 93.0635 373.766 92.5345L378.451 94.1507C378.035 94.4974 377.725 94.9541 377.556 95.4686C377.293 96.234 377.345 97.0725 377.7 97.7995C378.056 98.5266 378.686 99.0827 379.451 99.3455C380.216 99.6083 381.055 99.5562 381.782 99.2008C382.509 98.8454 383.065 98.2158 383.328 97.4503C383.505 96.9403 383.541 96.392 383.434 95.863L388.119 97.4696C387.706 97.8197 387.397 98.2752 387.224 98.7875C386.961 99.5529 387.013 100.391 387.369 101.118C387.724 101.846 388.354 102.402 389.119 102.664C389.884 102.927 390.723 102.875 391.45 102.52C392.177 102.164 392.733 101.535 392.996 100.769C393.173 100.259 393.21 99.7109 393.102 99.1819L397.787 100.798C397.375 101.145 397.065 101.597 396.892 102.106C396.762 102.485 396.708 102.886 396.733 103.286C396.757 103.686 396.861 104.077 397.037 104.437C397.213 104.797 397.458 105.119 397.758 105.384C398.059 105.65 398.408 105.853 398.787 105.983C399.166 106.113 399.567 106.168 399.967 106.143C400.367 106.118 400.758 106.015 401.118 105.839C401.478 105.663 401.8 105.417 402.065 105.117C402.33 104.817 402.534 104.467 402.664 104.088C402.842 103.578 402.878 103.03 402.77 102.501L407.339 104.127Z" fill="#F0F0F0"/>
<path d="M407.34 104.127L400.289 124.627L260.327 76.5274L267.379 56.0176L272.083 57.6337C271.726 57.9386 271.444 58.3217 271.259 58.7533C271.075 59.1849 270.992 59.6533 271.018 60.1221C271.044 60.5908 271.178 61.0472 271.409 61.4557C271.641 61.8643 271.963 62.2138 272.352 62.4773C272.74 62.7407 273.185 62.9108 273.65 62.9744C274.115 63.038 274.588 62.9934 275.033 62.844C275.478 62.6946 275.883 62.4444 276.216 62.113C276.548 61.7816 276.8 61.3779 276.951 60.9334C277.134 60.4247 277.17 59.8747 277.056 59.3461L281.751 60.9623C281.335 61.3089 281.025 61.7656 280.856 62.2802C280.593 63.0456 280.645 63.8841 281.001 64.6111C281.356 65.3382 281.986 65.8943 282.751 66.1571C283.517 66.4198 284.355 66.3678 285.082 66.0124C285.809 65.657 286.365 65.0273 286.628 64.2619C286.808 63.7523 286.842 63.2023 286.724 62.6746L291.419 64.2812C291.003 64.6278 290.693 65.0846 290.524 65.5991C290.394 65.9781 290.34 66.379 290.365 66.7789C290.39 67.1789 290.493 67.57 290.669 67.93C290.845 68.29 291.09 68.6118 291.39 68.8771C291.691 69.1423 292.04 69.3458 292.419 69.476C292.798 69.6061 293.199 69.6603 293.599 69.6355C293.999 69.6106 294.39 69.5073 294.75 69.3313C295.11 69.1553 295.432 68.9102 295.697 68.6098C295.963 68.3095 296.166 67.9598 296.296 67.5808C296.474 67.0709 296.51 66.5225 296.402 65.9935L301.087 67.6001C300.73 67.9049 300.448 68.288 300.264 68.7196C300.079 69.1512 299.996 69.6197 300.022 70.0884C300.048 70.5572 300.182 71.0136 300.414 71.4221C300.645 71.8306 300.967 72.1802 301.356 72.4436C301.745 72.707 302.189 72.8771 302.654 72.9408C303.119 73.0044 303.593 72.9597 304.038 72.8103C304.483 72.6609 304.887 72.4108 305.22 72.0794C305.552 71.748 305.804 71.3443 305.955 70.8997C306.133 70.3899 306.169 69.8414 306.061 69.3124L310.746 70.9286C310.333 71.2786 310.024 71.7342 309.851 72.2465C309.697 72.6898 309.647 73.1627 309.705 73.6284C309.763 74.0941 309.928 74.54 310.187 74.9315C310.446 75.323 310.792 75.6494 311.198 75.8854C311.603 76.1213 312.058 76.2605 312.526 76.292C312.995 76.3234 313.464 76.2464 313.898 76.0668C314.331 75.8873 314.718 75.6101 315.026 75.2568C315.335 74.9034 315.559 74.4836 315.679 74.0299C315.799 73.5762 315.813 73.1008 315.719 72.6409L320.404 74.2475C319.992 74.5975 319.683 75.0531 319.509 75.5654C319.379 75.9444 319.325 76.3453 319.35 76.7453C319.375 77.1452 319.478 77.5364 319.654 77.8964C319.83 78.2564 320.075 78.5782 320.376 78.8434C320.676 79.1087 321.026 79.3122 321.405 79.4423C321.784 79.5724 322.184 79.6266 322.584 79.6018C322.984 79.577 323.375 79.4736 323.735 79.2976C324.095 79.1217 324.417 78.8765 324.683 78.5761C324.948 78.2758 325.151 77.9261 325.281 77.5471C325.459 77.0372 325.495 76.4888 325.387 75.9598L330.072 77.576C329.656 77.9227 329.346 78.3794 329.177 78.8939C328.915 79.6593 328.967 80.4978 329.322 81.2249C329.678 81.9519 330.307 82.508 331.073 82.7708C331.838 83.0336 332.677 82.9816 333.404 82.6261C334.131 82.2707 334.687 81.6411 334.949 80.8757C335.126 80.3656 335.163 79.8174 335.055 79.2884L339.74 80.8949C339.383 81.1997 339.101 81.5829 338.917 82.0145C338.732 82.4461 338.649 82.9145 338.675 83.3833C338.702 83.852 338.835 84.3084 339.067 84.7169C339.298 85.1254 339.621 85.475 340.009 85.7384C340.398 86.0018 340.842 86.172 341.307 86.2356C341.772 86.2992 342.246 86.2546 342.691 86.1051C343.136 85.9557 343.54 85.7056 343.873 85.3742C344.206 85.0428 344.457 84.6391 344.608 84.1946C344.791 83.6858 344.828 83.1358 344.714 82.6073L349.399 84.2234C349.043 84.5294 348.763 84.9132 348.58 85.3451C348.397 85.7769 348.316 86.2452 348.343 86.7134C348.371 87.1817 348.506 87.6373 348.738 88.0448C348.97 88.4524 349.294 88.8008 349.682 89.0631C350.071 89.3254 350.515 89.4945 350.98 89.5572C351.445 89.6199 351.918 89.5745 352.363 89.4246C352.807 89.2746 353.211 89.0242 353.543 88.6927C353.875 88.3613 354.126 87.9577 354.276 87.5135C354.456 87.0038 354.489 86.4538 354.372 85.9262L359.067 87.5423C358.651 87.889 358.341 88.3457 358.172 88.8603C358.018 89.3035 357.968 89.7764 358.026 90.2421C358.085 90.7078 358.25 91.1538 358.509 91.5452C358.767 91.9367 359.113 92.2632 359.519 92.4991C359.925 92.7351 360.379 92.8742 360.848 92.9057C361.316 92.9372 361.785 92.8601 362.219 92.6806C362.652 92.501 363.039 92.2238 363.348 91.8705C363.657 91.5172 363.88 91.0973 364 90.6436C364.12 90.1899 364.134 89.7146 364.04 89.2547L368.725 90.8612C368.313 91.2113 368.004 91.6669 367.831 92.1792C367.701 92.5582 367.646 92.9591 367.671 93.359C367.696 93.7589 367.799 94.1501 367.975 94.5101C368.151 94.8701 368.396 95.1919 368.697 95.4572C368.997 95.7224 369.347 95.9259 369.726 96.056C370.105 96.1861 370.506 96.2403 370.906 96.2155C371.306 96.1907 371.697 96.0874 372.057 95.9114C372.417 95.7354 372.739 95.4902 373.004 95.1899C373.269 94.8895 373.473 94.5399 373.603 94.1609C373.78 93.6509 373.817 93.1026 373.708 92.5736L378.393 94.1897C377.977 94.5364 377.667 94.9931 377.499 95.5077C377.236 96.2731 377.288 97.1116 377.643 97.8386C377.999 98.5657 378.628 99.1217 379.394 99.3845C380.159 99.6473 380.998 99.5953 381.725 99.2399C382.452 98.8845 383.008 98.2548 383.271 97.4894C383.448 96.9794 383.484 96.4311 383.377 95.9021L388.062 97.5086C387.649 97.8587 387.34 98.3143 387.167 98.8266C387.037 99.2056 386.983 99.6065 387.007 100.006C387.032 100.406 387.136 100.798 387.312 101.158C387.487 101.518 387.733 101.839 388.033 102.105C388.333 102.37 388.683 102.573 389.062 102.703C389.441 102.834 389.842 102.888 390.242 102.863C390.642 102.838 391.033 102.735 391.393 102.559C391.753 102.383 392.075 102.138 392.34 101.837C392.605 101.537 392.809 101.187 392.939 100.808C393.116 100.298 393.153 99.75 393.045 99.221L397.73 100.837C397.318 101.184 397.008 101.636 396.835 102.145C396.705 102.524 396.651 102.925 396.675 103.325C396.7 103.725 396.804 104.116 396.98 104.476C397.156 104.836 397.401 105.158 397.701 105.423C398.001 105.689 398.351 105.892 398.73 106.022C399.109 106.152 399.51 106.207 399.91 106.182C400.31 106.157 400.701 106.054 401.061 105.878C401.421 105.702 401.743 105.457 402.008 105.156C402.273 104.856 402.477 104.506 402.607 104.127C402.785 103.617 402.821 103.069 402.713 102.54L407.34 104.127Z" fill="#E0E0E0"/>
<path d="M318.208 101.073L302.88 95.8008L297.608 111.129L312.936 116.401L318.208 101.073Z" fill="#FAFAFA"/>
<path d="M336.534 107.385L321.206 102.113L315.934 117.442L331.262 122.714L336.534 107.385Z" fill="#FAFAFA"/>
<path d="M354.865 113.686L339.536 108.414L334.264 123.742L349.593 129.014L354.865 113.686Z" fill="#FAFAFA"/>
<path d="M373.2 119.999L357.872 114.727L352.6 130.055L367.928 135.327L373.2 119.999Z" fill="#FAFAFA"/>
<path d="M391.531 126.299L376.202 121.027L370.93 136.356L386.259 141.628L391.531 126.299Z" fill="#FAFAFA"/>
<path d="M275.581 105.817L260.253 100.545L254.981 115.873L270.309 121.145L275.581 105.817Z" fill="#FAFAFA"/>
<path d="M293.899 112.116L278.57 106.844L273.298 122.172L288.627 127.444L293.899 112.116Z" fill="#FAFAFA"/>
<path d="M312.238 118.42L296.909 113.148L291.637 128.477L306.966 133.749L312.238 118.42Z" fill="#FAFAFA"/>
<path d="M330.564 124.731L315.235 119.459L309.963 134.787L325.292 140.059L330.564 124.731Z" fill="#FAFAFA"/>
<path d="M348.903 131.034L333.574 125.762L328.302 141.09L343.631 146.362L348.903 131.034Z" fill="#FAFAFA"/>
<path d="M367.239 137.348L351.91 132.076L346.638 147.405L361.967 152.677L367.239 137.348Z" fill="#FAFAFA"/>
<path d="M385.569 143.639L370.24 138.367L364.968 153.696L380.297 158.968L385.569 143.639Z" fill="#FAFAFA"/>
<path d="M269.61 123.155L254.281 117.883L249.009 133.211L264.338 138.483L269.61 123.155Z" fill="#FAFAFA"/>
<path d="M287.937 129.465L272.608 124.193L267.336 139.522L282.665 144.794L287.937 129.465Z" fill="#FAFAFA"/>
<path d="M306.276 135.768L290.947 130.496L285.675 145.824L301.004 151.097L306.276 135.768Z" fill="#FAFAFA"/>
<path d="M324.603 142.079L309.274 136.807L304.002 152.135L319.331 157.407L324.603 142.079Z" fill="#FAFAFA"/>
<path d="M342.942 148.381L327.613 143.109L322.341 158.438L337.67 163.71L342.942 148.381Z" fill="#FAFAFA"/>
<path d="M361.268 154.686L345.939 149.414L340.667 164.742L355.996 170.014L361.268 154.686Z" fill="#FAFAFA"/>
<path d="M379.598 160.987L364.27 155.715L358.998 171.043L374.326 176.315L379.598 160.987Z" fill="#FAFAFA"/>
<path d="M263.639 140.501L248.311 135.229L243.039 150.557L258.367 155.829L263.639 140.501Z" fill="#FAFAFA"/>
<path d="M281.975 146.813L266.646 141.541L261.374 156.869L276.703 162.141L281.975 146.813Z" fill="#FAFAFA"/>
<path d="M300.315 153.116L284.986 147.844L279.714 163.172L295.043 168.444L300.315 153.116Z" fill="#FAFAFA"/>
<path d="M318.635 159.407L303.307 154.135L298.035 169.463L313.363 174.735L318.635 159.407Z" fill="#FAFAFA"/>
<path d="M336.971 165.721L321.643 160.449L316.371 175.778L331.699 181.05L336.971 165.721Z" fill="#FAFAFA"/>
<path d="M355.3 172.022L339.972 166.75L334.7 182.078L350.028 187.35L355.3 172.022Z" fill="#FAFAFA"/>
<path d="M325.291 141.51C325.021 141.509 324.756 141.433 324.527 141.29C324.297 141.148 324.112 140.944 323.992 140.701L313.939 120.095C313.84 119.924 313.776 119.734 313.754 119.537C313.731 119.34 313.749 119.14 313.807 118.95C313.865 118.76 313.961 118.585 314.09 118.434C314.218 118.283 314.377 118.16 314.555 118.073C314.734 117.987 314.928 117.937 315.126 117.929C315.324 117.921 315.522 117.953 315.707 118.025C315.892 118.096 316.061 118.205 316.202 118.344C316.343 118.484 316.453 118.651 316.527 118.835L326.59 139.489C326.756 139.833 326.779 140.228 326.655 140.588C326.53 140.949 326.268 141.245 325.926 141.413C325.725 141.496 325.507 141.529 325.291 141.51Z" fill="#E0E0E0"/>
<path d="M309.957 136.238C309.63 136.24 309.312 136.13 309.055 135.927C308.799 135.724 308.619 135.44 308.545 135.121C308.471 134.802 308.508 134.468 308.649 134.173C308.79 133.878 309.027 133.639 309.322 133.497L329.966 123.444C330.311 123.275 330.708 123.251 331.071 123.375C331.433 123.5 331.732 123.763 331.9 124.108C332.068 124.452 332.093 124.849 331.969 125.212C331.844 125.574 331.581 125.873 331.236 126.041L310.63 136.094C310.42 136.194 310.189 136.243 309.957 136.238Z" fill="#E0E0E0"/>
<path d="M77.7588 94.1607V100.548L81.0392 100.856C81.4823 102.967 82.3141 104.976 83.4923 106.782L81.3855 109.331L85.8973 113.843L88.4466 111.727C90.238 112.913 92.2396 113.746 94.3437 114.18L94.6515 117.46H101.01L101.318 114.18C103.422 113.744 105.423 112.911 107.215 111.727L109.765 113.843L114.276 109.331L112.189 106.782C113.364 104.986 114.193 102.986 114.632 100.885L117.922 100.577V94.1896L114.632 93.8817C114.193 91.7807 113.364 89.7805 112.189 87.9847L114.296 85.4354L109.784 80.9236L107.234 83.04C105.442 81.8556 103.441 81.0231 101.337 80.5869L101.03 77.2969H94.6515L94.3437 80.5869C92.2396 81.0213 90.238 81.8539 88.4466 83.04L85.8973 80.9236L81.3855 85.4354L83.4923 87.9847C82.3174 89.782 81.4857 91.7814 81.0392 93.8817L77.7588 94.1607ZM97.8357 88.7158C99.5481 88.7158 101.222 89.2236 102.646 90.1749C104.07 91.1263 105.179 92.4785 105.835 94.0605C106.49 95.6426 106.661 97.3834 106.327 99.0629C105.993 100.742 105.169 102.285 103.958 103.496C102.747 104.707 101.204 105.531 99.5248 105.865C97.8453 106.2 96.1045 106.028 94.5225 105.373C92.9404 104.717 91.5882 103.608 90.6369 102.184C89.6855 100.76 89.1777 99.0862 89.1777 97.3738C89.1777 95.0776 90.0899 92.8754 91.7136 91.2517C93.3373 89.628 95.5395 88.7158 97.8357 88.7158Z" fill="#EBEBEB"/>
<path d="M229.446 247.339C233.072 246.58 236.521 245.144 239.615 243.106L244.021 246.752L251.813 238.96L248.196 234.564C250.233 231.467 251.669 228.014 252.429 224.386L258.095 223.857V212.842L252.429 212.303C251.669 208.675 250.233 205.222 248.196 202.125L251.842 197.729L244.05 189.937L239.644 193.583C236.55 191.545 233.101 190.109 229.475 189.35L228.936 183.684H217.893L217.364 189.35C213.735 190.109 210.282 191.545 207.186 193.583L202.789 189.937L194.997 197.729L198.643 202.125C196.606 205.222 195.17 208.675 194.41 212.303L188.744 212.842V223.857L194.41 224.386C195.17 228.014 196.606 231.467 198.643 234.564L194.997 238.96L202.789 246.752L207.186 243.106C210.282 245.144 213.735 246.58 217.364 247.339L217.893 253.005H228.956L229.446 247.339ZM208.494 218.373C208.494 215.424 209.369 212.541 211.007 210.089C212.645 207.637 214.974 205.726 217.699 204.597C220.423 203.469 223.422 203.173 226.314 203.749C229.206 204.324 231.863 205.744 233.949 207.83C236.034 209.915 237.454 212.572 238.029 215.464C238.605 218.357 238.31 221.355 237.181 224.079C236.052 226.804 234.141 229.133 231.689 230.771C229.237 232.41 226.354 233.284 223.405 233.284C219.45 233.284 215.658 231.713 212.861 228.917C210.065 226.121 208.494 222.328 208.494 218.373Z" fill="#E0E0E0"/>
<path d="M106.782 294.112L108.455 295.497L111.428 292.525L110.033 290.851C110.811 289.682 111.36 288.376 111.649 287.003L113.814 286.801V282.597L111.649 282.395C111.363 281.02 110.814 279.714 110.033 278.547L111.428 276.863L108.455 273.891L106.782 275.228C105.613 274.449 104.307 273.901 102.934 273.612L102.731 271.447H98.5372L98.3255 273.612C96.9519 273.901 95.646 274.45 94.4775 275.228L92.8037 273.833L89.8311 276.806L91.2164 278.489C90.442 279.658 89.8968 280.964 89.6098 282.337L87.4453 282.539V286.743L89.6098 286.945C89.9003 288.317 90.4452 289.622 91.2164 290.793L89.8311 292.467L92.8037 295.44L94.4775 294.054C95.6486 294.825 96.9538 295.37 98.3255 295.661L98.5372 297.825H102.731L102.934 295.661C104.301 295.389 105.606 294.863 106.782 294.112ZM94.9104 284.665C94.9104 283.541 95.2439 282.441 95.8686 281.506C96.4933 280.572 97.3813 279.843 98.4201 279.412C99.459 278.982 100.602 278.87 101.705 279.089C102.808 279.308 103.821 279.85 104.616 280.645C105.411 281.44 105.953 282.453 106.172 283.556C106.391 284.659 106.279 285.802 105.848 286.841C105.418 287.88 104.689 288.768 103.754 289.392C102.82 290.017 101.72 290.351 100.596 290.351C99.8468 290.354 99.1044 290.21 98.4113 289.926C97.7181 289.642 97.088 289.224 96.557 288.696C96.026 288.167 95.6046 287.539 95.3171 286.848C95.0296 286.156 94.8816 285.414 94.8816 284.665H94.9104Z" fill="#E6E6E6"/>
<path d="M227.032 74.1406L227.994 74.9487L229.716 73.2267L228.917 72.2647C229.376 71.5813 229.702 70.8176 229.879 70.0136L231.13 69.8982V67.4643L229.879 67.3489C229.702 66.5449 229.376 65.7813 228.917 65.0978L229.716 64.1358L227.994 62.3946L227.032 63.2027C226.353 62.7414 225.592 62.4149 224.79 62.2407L224.665 60.9805H222.222L222.106 62.2311C221.302 62.4081 220.539 62.7344 219.855 63.1931L218.893 62.385L217.181 64.107L217.979 65.069C217.52 65.7524 217.194 66.5161 217.017 67.3201L215.767 67.4355V69.8693L217.017 69.9848C217.194 70.7888 217.52 71.5524 217.979 72.2359L217.181 73.1979L218.893 74.9199L219.855 74.1118C220.536 74.5748 221.301 74.9015 222.106 75.0738L222.222 76.3244H224.655L224.781 75.0738C225.584 74.9096 226.348 74.5928 227.032 74.1406ZM220.153 68.6668C220.153 68.0142 220.347 67.3763 220.709 66.8337C221.072 66.291 221.587 65.8681 222.19 65.6184C222.793 65.3686 223.457 65.3033 224.097 65.4306C224.737 65.5579 225.325 65.8722 225.786 66.3336C226.248 66.7951 226.562 67.383 226.689 68.0231C226.817 68.6632 226.751 69.3266 226.501 69.9296C226.252 70.5325 225.829 71.0478 225.286 71.4104C224.744 71.773 224.106 71.9665 223.453 71.9665C223.016 71.9729 222.581 71.8922 222.175 71.7293C221.77 71.5663 221.4 71.3243 221.089 71.0172C220.777 70.7102 220.53 70.3443 220.361 69.9408C220.192 69.5373 220.105 69.1042 220.105 68.6668H220.153Z" fill="#F5F5F5"/>
<path d="M374.487 66.4829L375.449 67.2909L377.171 65.569L376.363 64.607C376.826 63.9258 377.153 63.1613 377.325 62.3559L378.585 62.2404V59.8066L377.325 59.6815C377.151 58.8797 376.824 58.1187 376.363 57.4401L377.171 56.4781L375.449 54.7561L374.487 55.5642C373.804 55.1055 373.04 54.7792 372.236 54.6022L372.121 53.3516H369.687L369.571 54.6022C368.767 54.7792 368.004 55.1055 367.32 55.5642L366.358 54.7561L364.598 56.4588L365.406 57.4208C364.945 58.0995 364.618 58.8604 364.444 59.6623L363.184 59.7873V62.2212L364.444 62.3366C364.616 63.1421 364.943 63.9065 365.406 64.5877L364.598 65.5497L366.32 67.2717L367.282 66.4636C367.963 66.9266 368.727 67.2533 369.533 67.4256L369.648 68.6762H372.082L372.198 67.4256C373.015 67.2639 373.793 66.9437 374.487 66.4829ZM367.609 61.0091C367.609 60.3565 367.802 59.7185 368.165 59.1759C368.527 58.6333 369.043 58.2103 369.646 57.9606C370.249 57.7108 370.912 57.6455 371.552 57.7728C372.192 57.9001 372.78 58.2144 373.242 58.6759C373.703 59.1373 374.017 59.7253 374.145 60.3654C374.272 61.0054 374.207 61.6689 373.957 62.2718C373.707 62.8747 373.284 63.3901 372.742 63.7527C372.199 64.1152 371.561 64.3087 370.908 64.3087C370.475 64.31 370.045 64.2255 369.644 64.0602C369.243 63.8948 368.879 63.6518 368.572 63.3451C368.266 63.0385 368.023 62.6742 367.857 62.2733C367.692 61.8724 367.608 61.4428 367.609 61.0091Z" fill="#F0F0F0"/>
<path d="M406.109 220.423L407.783 221.809L410.755 218.846L409.37 217.162C410.141 215.991 410.686 214.686 410.976 213.314L413.141 213.112V208.908L410.976 208.706C410.688 207.334 410.143 206.028 409.37 204.858L410.755 203.175L407.783 200.202L406.109 201.597C404.936 200.827 403.632 200.279 402.261 199.981L402.049 197.816H397.855L397.653 199.981C396.281 200.278 394.977 200.826 393.805 201.597L392.131 200.202L389.158 203.175L390.553 204.858C389.773 206.026 389.225 207.332 388.937 208.706L386.772 208.908V213.112L388.937 213.314C389.227 214.688 389.775 215.994 390.553 217.162L389.158 218.846L392.131 221.809L393.805 220.423C394.977 221.194 396.281 221.742 397.653 222.04L397.855 224.194H402.049L402.261 222.04C403.632 221.742 404.936 221.194 406.109 220.423ZM394.238 210.977C394.238 209.852 394.571 208.753 395.196 207.818C395.82 206.883 396.708 206.154 397.747 205.724C398.786 205.294 399.929 205.181 401.032 205.4C402.135 205.62 403.148 206.161 403.943 206.956C404.738 207.751 405.28 208.765 405.499 209.867C405.719 210.97 405.606 212.113 405.176 213.152C404.745 214.191 404.017 215.079 403.082 215.704C402.147 216.329 401.047 216.662 399.923 216.662C398.416 216.659 396.971 216.06 395.906 214.994C394.84 213.928 394.24 212.484 394.238 210.977Z" fill="#EBEBEB"/>
<path d="M290.735 311.544L293.39 313.737L298.085 309.042L295.892 306.387C297.12 304.52 297.984 302.438 298.441 300.25L301.856 299.932V293.295L298.441 292.967C297.983 290.783 297.118 288.704 295.892 286.839L298.085 284.184L293.41 279.49L290.755 281.683C288.89 280.457 286.811 279.592 284.627 279.134L284.299 275.719H277.662L277.344 279.134C275.156 279.59 273.074 280.455 271.207 281.683L268.552 279.49L263.857 284.184L266.05 286.839C264.824 288.704 263.959 290.783 263.501 292.967L260.086 293.295V299.932L263.501 300.25C263.957 302.438 264.822 304.52 266.05 306.387L263.857 309.042L268.552 313.737L271.207 311.544C273.074 312.772 275.156 313.637 277.344 314.093L277.662 317.508H284.299L284.627 314.093C286.804 313.632 288.876 312.768 290.735 311.544ZM271.976 296.613C271.974 294.834 272.501 293.093 273.488 291.613C274.476 290.132 275.88 288.978 277.524 288.296C279.168 287.614 280.978 287.435 282.723 287.781C284.469 288.128 286.073 288.985 287.331 290.244C288.59 291.502 289.447 293.106 289.793 294.851C290.14 296.597 289.961 298.406 289.279 300.05C288.597 301.694 287.443 303.099 285.962 304.087C284.482 305.074 282.741 305.6 280.961 305.598C278.579 305.596 276.295 304.648 274.611 302.964C272.926 301.28 271.979 298.996 271.976 296.613Z" fill="#F0F0F0"/>
<path d="M240.5 358.403C343.513 358.403 427.022 353.527 427.022 347.513C427.022 341.499 343.513 336.623 240.5 336.623C137.486 336.623 53.9775 341.499 53.9775 347.513C53.9775 353.527 137.486 358.403 240.5 358.403Z" fill="#F5F5F5"/>
<path d="M135.527 133.17C104.415 138.529 80.1154 148.149 81.2313 154.681L81.7604 157.701C82.8763 164.195 109.014 165.109 140.115 159.721C171.217 154.334 195.536 144.714 194.411 138.221L193.891 135.2C192.766 128.697 166.638 127.793 135.527 133.17Z" fill="#04054F"/>
<path opacity="0.2" d="M140.116 159.72C171.224 154.341 195.532 144.714 194.408 138.217C193.285 131.72 167.156 130.813 136.048 136.192C104.94 141.571 80.6324 151.199 81.7558 157.696C82.8792 164.193 109.008 165.099 140.116 159.72Z" fill="white"/>
<path d="M137.161 142.616C109.263 147.426 87.5413 156.084 88.5514 161.856L89.4172 166.888C90.3792 172.708 113.823 173.516 141.673 168.696C169.523 163.877 191.293 155.228 190.283 149.456L189.417 144.435C188.407 138.615 165.011 137.797 137.161 142.616Z" fill="#04054F"/>
<path opacity="0.2" d="M141.668 168.714C169.52 163.898 191.283 155.279 190.277 149.463C189.271 143.647 165.878 142.835 138.026 147.651C110.174 152.467 88.411 161.086 89.4167 166.903C90.4224 172.719 113.816 173.53 141.668 168.714Z" fill="white"/>
<path d="M166.243 218.989C165.032 218.355 163.984 217.451 163.179 216.346C162.374 215.242 161.833 213.967 161.6 212.62C161.366 211.273 161.446 209.891 161.832 208.58C162.219 207.269 162.902 206.064 163.828 205.06C175.113 192.775 188.773 173.217 185.31 153.112C184.56 148.811 163.819 148.802 138.98 153.112C114.141 157.421 94.6029 164.386 95.3436 168.686C98.8164 188.763 118.249 202.597 133.006 210.379C134.217 211.014 135.265 211.918 136.07 213.023C136.875 214.127 137.416 215.402 137.649 216.749C137.883 218.095 137.803 219.478 137.417 220.789C137.03 222.1 136.347 223.304 135.421 224.309C124.127 236.584 110.466 256.142 113.939 276.257C114.689 280.567 135.43 280.577 160.269 276.257C185.108 271.938 204.646 264.983 203.944 260.702C200.433 240.596 180.99 226.762 166.243 218.989Z" fill="#04054F"/>
<path opacity="0.8" d="M166.243 218.989C165.032 218.355 163.984 217.451 163.179 216.346C162.374 215.242 161.833 213.967 161.6 212.62C161.366 211.273 161.446 209.891 161.832 208.58C162.219 207.269 162.902 206.064 163.828 205.06C175.113 192.775 188.773 173.217 185.31 153.112C184.56 148.811 163.819 148.802 138.98 153.112C114.141 157.421 94.6029 164.386 95.3436 168.686C98.8164 188.763 118.249 202.597 133.006 210.379C134.217 211.014 135.265 211.918 136.07 213.023C136.875 214.127 137.416 215.402 137.649 216.749C137.883 218.095 137.803 219.478 137.417 220.789C137.03 222.1 136.347 223.304 135.421 224.309C124.127 236.584 110.466 256.142 113.939 276.257C114.689 280.567 135.43 280.577 160.269 276.257C185.108 271.938 204.646 264.983 203.944 260.702C200.433 240.596 180.99 226.762 166.243 218.989Z" fill="white"/>
<path d="M201.692 261.828C202.135 266.34 122.116 281.914 116.796 274.998C116.258 274.228 115.922 273.337 115.818 272.404C115.714 271.471 115.845 270.528 116.199 269.659C116.744 268.059 117.55 266.56 118.585 265.224C121.057 261.876 126.512 260.414 130.206 259.067C132.698 258.153 135.208 257.316 137.719 256.45C140.413 255.488 143.183 256.162 145.521 254.113C146.926 252.891 147.974 251.073 149.773 250.63C151.11 250.303 152.544 250.832 153.862 250.476C155.574 250.015 156.796 248.168 158.566 248.139C159.444 248.244 160.306 248.454 161.134 248.764C162.673 249.091 164.251 248.581 165.829 248.437C167.382 248.366 168.939 248.479 170.466 248.774C175.238 249.685 180.055 250.35 184.896 250.765C188.465 250.957 192.419 250.871 195.901 251.852C197.423 252.422 198.682 253.532 199.441 254.969C200.682 257.064 201.45 259.405 201.692 261.828Z" fill="#263238"/>
<path opacity="0.2" d="M199.47 254.931C197.257 252.93 193.169 253.065 191.995 253.151C190.821 253.238 190.408 252.237 189.523 251.91C188.638 251.583 183.404 252.257 183.404 252.257C183.404 252.257 185.328 252.632 185.732 253.267C186.136 253.902 188.33 253.17 188.618 253.084C188.32 253.257 185.646 254.662 184.386 253.815C183.125 252.968 182.606 254.546 181.605 254.95C180.605 255.354 177.45 254.95 176.94 254.787C175.434 254.701 173.924 254.701 172.418 254.787C173.198 254.284 174.078 253.956 174.997 253.825C175.843 253.921 179.22 252.141 178.527 252.266C177.834 252.391 176.257 251.468 175.025 251.083C173.531 250.975 172.029 251.072 170.562 251.372C172.056 251.349 173.546 251.556 174.977 251.987C173.994 252.222 173.03 252.527 172.091 252.901C171.232 253.178 170.338 253.33 169.436 253.353C168.71 253.618 168.085 254.102 167.647 254.739C166.547 254.999 165.432 255.192 164.309 255.316C163.2 255.414 162.084 255.283 161.028 254.931L164.068 253.969L163.029 253.671C162.316 253.433 161.581 253.262 160.836 253.161C159.614 252.959 159.095 254.123 158.796 254.402C158.498 254.681 155.824 254.402 155.073 254.219C154.323 254.036 148.772 256.287 148.772 256.287L152.245 255.691C153.146 256.074 154.106 256.299 155.083 256.355C157.402 256.663 157.738 255.893 158.71 255.96C159.681 256.028 162.904 256.922 162.904 256.922L161.654 257.259C160.549 257.413 159.429 257.413 158.325 257.259C156.401 256.999 155.362 258.009 154.785 258.115C153.3 258.449 151.792 258.667 150.273 258.769C149.648 258.635 148.003 259.404 147.099 260.328C146.584 260.84 145.939 261.201 145.233 261.371C144.527 261.54 143.788 261.512 143.097 261.29C141.346 260.838 138.392 262.973 138.392 262.973C138.392 262.973 139.941 260.924 140.749 260.78C142.005 260.289 143.212 259.683 144.357 258.971C143.925 258.966 143.493 259.001 143.068 259.077C142.637 259.113 142.203 259.062 141.792 258.928C141.381 258.794 141 258.58 140.672 258.298C139.71 257.634 138.748 258.154 137.334 258.875C135.92 259.597 134.4 260.453 132.909 259.404C131.418 258.356 126.848 262.233 126.848 262.233C127.889 261.981 128.903 261.633 129.879 261.194C130.302 260.847 130.6 261.194 131.947 261.473C133.294 261.752 133.736 260.809 134.4 260.453C135.064 260.097 137.055 260.693 137.055 260.693C136.585 260.916 136.064 261.012 135.545 260.972C134.814 260.857 133.621 262.964 133.236 262.733C132.851 262.502 130.052 262.867 128.849 263.493C127.647 264.118 125.877 266.206 124.097 265.561C122.587 265.013 119.181 269.64 116.189 269.698C116.734 268.098 117.54 266.599 118.575 265.263C121.048 261.915 126.502 260.453 130.196 259.106C132.688 258.192 135.199 257.355 137.709 256.489C140.403 255.527 143.174 256.201 145.511 254.152C146.916 252.93 147.964 251.112 149.763 250.669C151.1 250.342 152.534 250.871 153.852 250.515C155.564 250.054 156.786 248.207 158.556 248.178C159.434 248.283 160.296 248.493 161.124 248.803C162.664 249.13 164.241 248.62 165.819 248.476C167.373 248.405 168.929 248.518 170.456 248.813C175.228 249.724 180.045 250.389 184.886 250.804C188.455 250.996 192.409 250.91 195.891 251.891C197.415 252.434 198.687 253.515 199.47 254.931Z" fill="white"/>
<path d="M157.576 260.703C129.678 265.513 107.956 274.171 108.956 279.943L109.831 284.974C110.793 290.746 134.228 291.602 162.087 286.783C189.947 281.963 211.707 273.315 210.697 267.543L209.831 262.521C208.821 256.653 185.425 255.835 157.576 260.703Z" fill="#04054F"/>
<path d="M159.124 269.649C128.023 275.026 103.713 284.656 104.838 291.159L105.358 294.17C106.483 300.673 132.611 301.578 163.722 296.2C194.833 290.822 219.134 281.193 218.008 274.69L217.489 271.679C216.363 265.175 190.235 264.271 159.124 269.649Z" fill="#04054F"/>
<path opacity="0.2" d="M111.303 298.221C111.611 298.307 111.938 298.384 112.265 298.461C111.938 298.346 111.591 298.269 111.303 298.221Z" fill="white"/>
<path opacity="0.2" d="M159.124 269.649C128.023 275.026 103.713 284.656 104.838 291.159L105.358 294.17C104.232 287.638 128.542 278.018 159.692 272.669C190.841 267.321 216.921 268.196 218.047 274.69L217.527 271.679C216.363 265.175 190.235 264.271 159.124 269.649Z" fill="white"/>
<path d="M154.372 210.948C153.766 215.758 152.006 223.041 151.217 227.899C150.428 232.757 152.794 240.289 153.497 242.569C154.199 244.849 158.942 244.493 158.749 246.311C158.557 248.13 165.83 248.437 165.83 248.437C165.83 248.437 131.755 261.905 128.312 261.049C124.868 260.193 134.699 253.469 136.585 253.026C138.47 252.584 139.471 251.42 140.741 248.726C142.01 246.032 143.319 246.513 144.646 243.81C145.83 241.792 146.896 239.708 147.84 237.567C149.35 233.815 150.659 222.281 149.071 221.309C147.484 220.337 148.927 230.15 147.561 230.477C146.195 230.804 149.341 220.78 145.195 215.72C141.048 210.66 154.372 210.948 154.372 210.948Z" fill="#263238"/>
<path opacity="0.2" d="M165.819 248.437C165.819 248.437 131.755 261.905 128.301 261.048C125.155 260.269 133.198 254.507 135.997 253.247C136.18 255.228 141.519 253.199 143.635 252.025C145.752 250.851 145.915 251.707 146.694 251.361C147.474 251.015 153.38 246.609 152.765 246.792C152.149 246.974 147.753 250.216 146.694 249.158C145.636 248.1 143.885 250.12 142.577 250.736C141.442 251.284 141.153 250.62 140.211 249.774C140.393 249.437 140.567 249.072 140.749 248.687C141.99 245.993 143.318 246.474 144.597 243.771C145.806 241.785 146.895 239.729 147.859 237.614C149.378 233.862 150.687 222.328 149.109 221.356C147.531 220.385 148.955 230.197 147.599 230.515C146.242 230.832 149.359 220.827 145.223 215.767C141.086 210.707 154.371 210.957 154.371 210.957C153.765 215.767 152.005 223.049 151.216 227.908C150.696 231.092 151.533 235.421 152.37 238.672C152.149 239.461 151.841 240.183 151.476 240.298C150.6 240.558 149.985 243.55 148.84 243.636C147.695 243.723 148.657 245.83 150.244 244.954C151.293 244.377 152.947 243.992 154.092 243.492C155.574 244.81 158.902 244.791 158.729 246.32C158.566 248.138 165.819 248.437 165.819 248.437Z" fill="white"/>
<path d="M172.852 188.956L172.448 189.619C171.115 191.993 169.663 194.298 168.1 196.527C166.58 198.896 164.831 201.11 162.876 203.136C161.029 204.915 159.144 205.752 158.066 207.878C157.792 208.406 157.582 208.965 157.441 209.542C157.037 211.149 156.912 213.083 155.517 213.987C155.181 214.157 154.86 214.353 154.555 214.574C153.853 215.18 153.891 216.238 153.708 217.142C153.525 218.047 152.65 219.066 151.784 218.624C150.918 218.181 150.88 217.075 150.101 217.113C149.906 217.155 149.716 217.217 149.533 217.296C148.744 217.498 148.013 216.882 147.407 216.334C146.801 215.786 145.935 215.286 145.243 215.709C143.145 213.784 140.842 212.096 138.374 210.678C136.373 209.465 134.295 208.378 132.111 207.205C127.301 204.588 121.722 202.01 118.355 199.355C117.262 198.559 116.347 197.543 115.671 196.373C115.473 195.984 115.343 195.564 115.286 195.132C114.728 190.379 129.437 188.965 134.526 185.425C139.615 181.885 147.561 184.155 150.88 183.415C154.199 182.674 157.98 183.722 161.51 183.463C165.041 183.203 167.215 182.183 169.273 183.684C171.332 185.185 173.612 184.732 174.083 185.877C174.314 186.628 173.448 188.013 172.852 188.956Z" fill="#263238"/>
<path opacity="0.2" d="M168.35 187.455C165.31 186.868 171.515 186.753 171.043 186.397C170.572 186.041 169.052 184.887 165.666 185.002C162.28 185.118 159.451 184.887 158.73 185.002C158.008 185.118 161.087 186.051 161.087 186.051H153.15C150.572 186.051 154.911 185.002 154.911 185.002H141.548C141.904 185.002 144.483 186.522 142.953 186.522C141.423 186.522 139.788 187.34 137.681 188.157C136.009 188.834 134.289 189.384 132.534 189.802C132.188 189.802 137.344 185.954 137.662 185.704C137.344 185.839 133.044 187.628 131.245 188.157C129.446 188.687 124.511 190.389 124.088 190.505C124.988 190.563 125.891 190.563 126.791 190.505C126.791 190.505 123.155 192.381 121.289 192.611C119.884 192.785 116.479 193.939 115.651 196.383C116.328 197.553 117.242 198.569 118.335 199.365C121.702 202.02 127.263 204.598 132.092 207.215C134.276 208.388 136.354 209.475 138.355 210.687C140.823 212.106 143.126 213.794 145.223 215.719C145.916 215.295 146.791 215.815 147.388 216.344C147.984 216.873 148.725 217.498 149.514 217.306C149.696 217.226 149.887 217.165 150.081 217.123C150.861 217.123 151.043 218.278 151.765 218.634C152.486 218.99 153.448 218.056 153.689 217.152C153.929 216.248 153.833 215.228 154.535 214.584C154.84 214.363 155.162 214.167 155.497 213.997C156.902 213.092 157.027 211.159 157.421 209.552C157.562 208.975 157.772 208.416 158.047 207.888C159.153 205.762 161.039 204.925 162.857 203.145C164.811 201.12 166.561 198.906 168.08 196.536C169.644 194.308 171.095 192.003 172.429 189.629C171.37 187.792 171.419 188.042 168.35 187.455ZM124.838 199.875C123.819 199.759 127.118 198.73 127.118 198.73C126.88 199.107 126.544 199.412 126.146 199.614C125.748 199.815 125.303 199.905 124.858 199.875H124.838ZM125.454 195.921C125.454 195.921 127.118 194.603 127.821 194.689C128.496 194.736 129.175 194.736 129.85 194.689C129.85 194.689 127.234 196.45 125.473 195.921H125.454ZM138.72 206.205C137.518 205.974 139.99 205.243 140.586 205.406C141.183 205.57 140.144 206.464 138.739 206.205H138.72ZM144.656 192.737C144.656 192.737 139.557 194.237 140.586 194.237H142.51C142.154 194.237 136.883 195.382 136.623 195.334C137.624 194.669 138.672 194.077 139.759 193.564C139.759 193.564 139.384 193.092 139.403 192.919C139.422 192.746 140.596 192.39 140.596 192.39C141.01 192.034 142.857 191.515 143.559 191.948C144.372 192.259 145.238 192.409 146.108 192.39L144.656 192.737ZM146.801 203.194C145.377 201.895 149.6 203.194 149.6 203.194C149.6 203.194 147.782 204.088 146.82 203.213L146.801 203.194ZM149.11 189.244C151.034 187.927 151.515 189.244 151.515 189.244C151.515 189.244 148.484 189.668 149.11 189.244ZM155.776 194.343L154.295 193.583C154.914 193.209 155.6 192.961 156.315 192.852C157.276 192.812 158.226 193.067 159.038 193.583C159.557 193.901 156.286 194.603 155.767 194.324L155.776 194.343ZM159.567 200.808C159.567 200.808 157.2 200.75 156.969 200.808C157.813 200.444 158.681 200.139 159.567 199.894V200.808ZM163.242 191.294C163.242 191.294 164.925 190.928 165.714 191.803C166.772 192.977 163.232 191.294 163.232 191.294H163.242Z" fill="white"/>
<path d="M307.398 326.966L315.152 329.303H357.547L358.509 312.314L350.284 308.803C350.284 308.803 351.814 295.672 354.267 281.598L359.894 281.424L371.842 234.286L365.051 231.352L369.966 215.739H377.345L385.214 193.844C385.214 193.844 356.903 182.579 340.087 181.088L324.983 183.618L323.935 203.281L311.631 204.907L309.216 226.071L317.961 227.572L312.333 272.593L299.702 276.143L297.499 307.148L308.495 309.409L307.398 326.966Z" fill="#04054F"/>
<path opacity="0.6" d="M369.976 215.749L365.051 231.362L371.842 234.296L359.885 281.434L354.267 281.607C351.804 295.681 350.284 308.813 350.284 308.813L358.49 312.324L357.528 329.322H315.142L307.388 326.985L308.504 309.447L297.499 307.196L299.644 276.951L299.702 276.191L312.343 272.641L317.961 227.62L309.216 226.071L311.689 204.907L323.983 203.281L325.041 183.618L340.135 181.078C356.989 182.579 385.262 193.844 385.262 193.844L377.393 215.749H369.976Z" fill="white"/>
<path opacity="0.4" d="M358.489 312.304L316.546 313.478L308.504 309.428L317.72 311.14L350.284 308.793L358.489 312.304Z" fill="white"/>
<path opacity="0.4" d="M354.267 281.587L323.935 281.683L299.645 276.931L299.702 276.171L312.343 272.621L325.695 280.625L354.267 281.587Z" fill="white"/>
<path opacity="0.2" d="M365.05 231.362L327.629 227.697L317.96 227.601L309.216 226.1L327.09 224.051L365.05 231.362Z" fill="black"/>
<path opacity="0.2" d="M377.345 215.748H369.966L340.442 202.261L323.935 203.28L341.347 201.029L377.345 215.748Z" fill="black"/>
<path opacity="0.2" d="M340.087 181.078L341.347 201.03L323.935 203.281L324.983 183.627L340.087 181.078Z" fill="white"/>
<path opacity="0.2" d="M327.09 224.051L331.9 203.281L311.64 204.907L309.216 226.1L327.09 224.051Z" fill="white"/>
<path opacity="0.2" d="M317.961 227.6L336.287 228.542L325.695 280.625L312.343 272.621L317.961 227.6Z" fill="white"/>
<path opacity="0.2" d="M299.644 276.932L323.935 281.684L319.029 311.044L297.499 307.177L299.644 276.932Z" fill="white"/>
<path opacity="0.2" d="M316.547 313.478L315.142 329.303L307.389 326.965L308.505 309.438L316.547 313.478Z" fill="white"/>
<path d="M301.491 283.492L322.819 288.35L347.946 287.244L323.935 292.631L301.491 283.492Z" fill="#04054F"/>
<path d="M308.177 314.547L316.027 319.367H334.997L311.967 321.214L304.252 315.942L308.177 314.547Z" fill="#04054F"/>
<path d="M324.319 324.061H357.845L361.712 326.966L324.319 324.061Z" fill="#04054F"/>
<path d="M317.432 296.085L298.653 290.832L295.296 292.631L317.432 296.085Z" fill="#04054F"/>
<path d="M323.05 303.463L351.275 301.049L354.267 302.251L323.05 303.463Z" fill="#04054F"/>
<path d="M331.9 272.622L362.396 271.525L365.051 273.767L331.9 272.622Z" fill="#04054F"/>
<path d="M354.266 266.215L329.206 263.368L313.737 257.605H308.504L326.955 265.34L354.266 266.215Z" fill="#04054F"/>
<path d="M319.625 243.723L332.275 248.273L371.727 251.457L368.168 248.812L331.9 246.532L319.625 243.723Z" fill="#04054F"/>
<path d="M323.935 217.375L306.359 218.25L310.717 220.357L323.935 217.375Z" fill="#04054F"/>
<path d="M316.547 210.168L329.909 208.389L364.349 220.356L329.726 211.4L316.547 210.168Z" fill="#04054F"/>
<path d="M359.249 203.281L338.691 192.18L318.307 198.567L324.319 200.184L341.347 197.73L359.249 203.281Z" fill="#04054F"/>
<path d="M352.92 195.586L383.848 208.39H379.991L352.92 195.586Z" fill="#04054F"/>
<path d="M343.088 185.916L358.547 187.676L382.597 201.029C382.597 201.029 351.515 187.503 343.088 185.916Z" fill="#04054F"/>
<path d="M317.075 233.363L324.714 235.287L313.92 234.325L317.075 233.363Z" fill="#04054F"/>
<path opacity="0.7" d="M301.491 283.492L322.819 288.35L347.946 287.244L323.935 292.631L301.491 283.492Z" fill="white"/>
<path opacity="0.7" d="M308.177 314.547L316.027 319.367H334.997L311.967 321.214L304.252 315.942L308.177 314.547Z" fill="white"/>
<path opacity="0.7" d="M324.319 324.061H357.845L361.712 326.966L324.319 324.061Z" fill="white"/>
<path opacity="0.7" d="M317.432 296.085L298.653 290.832L295.296 292.631L317.432 296.085Z" fill="white"/>
<path opacity="0.7" d="M323.05 303.463L351.275 301.049L354.267 302.251L323.05 303.463Z" fill="white"/>
<path opacity="0.7" d="M331.9 272.622L362.396 271.525L365.051 273.767L331.9 272.622Z" fill="white"/>
<path opacity="0.7" d="M354.266 266.215L329.206 263.368L313.737 257.605H308.504L326.955 265.34L354.266 266.215Z" fill="white"/>
<path opacity="0.7" d="M319.625 243.723L332.275 248.273L371.727 251.457L368.168 248.812L331.9 246.532L319.625 243.723Z" fill="white"/>
<path opacity="0.7" d="M323.935 217.375L306.359 218.25L310.717 220.357L323.935 217.375Z" fill="white"/>
<path opacity="0.7" d="M316.547 210.168L329.909 208.389L364.349 220.356L329.726 211.4L316.547 210.168Z" fill="white"/>
<path opacity="0.7" d="M359.249 203.281L338.691 192.18L318.307 198.567L324.319 200.184L341.347 197.73L359.249 203.281Z" fill="white"/>
<path opacity="0.7" d="M352.92 195.586L383.848 208.39H379.991L352.92 195.586Z" fill="white"/>
<path opacity="0.7" d="M343.088 185.916L358.547 187.676L382.597 201.029C382.597 201.029 351.515 187.503 343.088 185.916Z" fill="white"/>
<path opacity="0.7" d="M317.075 233.363L324.714 235.287L313.92 234.325L317.075 233.363Z" fill="white"/>
<path opacity="0.1" d="M323.05 238.279L333.497 240.915L362.857 243.724L333.497 242.291L323.05 238.279Z" fill="black"/>
<path opacity="0.1" d="M319.625 230.545L336.287 231.363L367.504 236.702L335.315 233.364L319.625 230.545Z" fill="black"/>
<path opacity="0.1" d="M315.151 221.233L328.225 219.174L361.356 226.86L327.946 220.357L315.151 221.233Z" fill="black"/>
<path opacity="0.1" d="M318.307 214.691L329.331 214.373L362.857 223.012L329.014 215.749L318.307 214.691Z" fill="black"/>
<path opacity="0.1" d="M311.236 208.389L327.975 206.475L311.236 209.64V208.389Z" fill="black"/>
<path opacity="0.1" d="M310.717 212.959H316.547L310.717 214.373V212.959Z" fill="black"/>
<path opacity="0.1" d="M324.714 188.629L340.394 185.916L361.356 193.477L340.587 187.676L324.714 189.697V188.629Z" fill="black"/>
<path opacity="0.1" d="M378.769 211.776L354.854 204.311L378.095 213.661L378.769 211.776Z" fill="black"/>
<path opacity="0.1" d="M337.134 190.486L340.635 189.697L378.769 201.982L340.799 190.957L337.134 190.486Z" fill="black"/>
<path opacity="0.1" d="M384.589 195.585L370.909 190.717L383.848 196.816L384.589 195.585Z" fill="black"/>
<path opacity="0.1" d="M316.547 249.168L331.179 253.641L364.349 256.316L330.871 255.19L316.547 249.168Z" fill="black"/>
<path opacity="0.1" d="M313.391 262.992L328.119 268.678L361.356 269.438H327.965L313.391 262.992Z" fill="black"/>
<path opacity="0.1" d="M355.324 278.336L326.955 275.181L315.151 270.371L326.445 276.932L355.324 278.336Z" fill="black"/>
<path opacity="0.1" d="M365.195 260.511C364.925 260.415 342.318 259.828 342.318 259.828L364.839 261.916L365.195 260.511Z" fill="black"/>
<path opacity="0.1" d="M299.221 279.164L323.473 284.455H340.442L323.29 285.494L299.644 280.626L299.221 279.164Z" fill="black"/>
<path opacity="0.1" d="M352.669 291.352C352.669 291.4 329.091 293.987 329.091 293.987L352.467 292.67L352.669 291.352Z" fill="black"/>
<path opacity="0.1" d="M304.252 289.697C303.935 289.543 318.894 292.669 318.894 292.669C318.894 292.669 309.582 292.362 304.252 289.697Z" fill="black"/>
<path opacity="0.1" d="M298.288 296.086L318.894 301.05L298.288 297.673V296.086Z" fill="black"/>
<path opacity="0.1" d="M302.146 303.463L319.625 307.446L345.676 306.916L319.625 308.792L302.146 303.463Z" fill="black"/>
<path opacity="0.1" d="M325.811 298.566H344.079L329.081 299.307L325.811 298.566Z" fill="black"/>
<path opacity="0.1" d="M310.727 313.479L316.345 315.932C316.345 315.932 346.224 315.691 345.686 315.932C345.147 316.172 316.229 317.23 316.229 317.23L310.727 313.479Z" fill="black"/>
<path opacity="0.1" d="M354.267 321.213C354.267 321.213 326.369 321.915 326.955 321.915H350.043L354.267 321.213Z" fill="black"/>
<path opacity="0.1" d="M358.49 315.354C358.49 315.354 353.911 314.892 354.267 315.354C354.623 315.815 358.259 316.421 358.259 316.421L358.49 315.354Z" fill="black"/>
<path opacity="0.1" d="M310.717 324.061L315.527 325.061L341.357 326.966L315.411 326.35L310.717 324.061Z" fill="black"/>
<path d="M261.193 123.636C267.388 126.388 279.048 126.013 283.521 116.21C287.994 106.407 287.677 97.9991 277.557 93.2853C267.436 88.5715 254.68 94.584 253.593 103.502C252.506 112.419 251.419 119.288 261.193 123.636Z" fill="#263238"/>
<path d="M141.857 311.312C142.523 310.373 143.012 309.32 143.3 308.205C143.3 308.205 146.349 304.722 156.027 302.529L156.883 298.171C157.021 297.426 156.925 296.655 156.608 295.966C156.291 295.278 155.769 294.704 155.113 294.323C154.93 294.217 154.732 294.139 154.526 294.092C153.465 293.934 152.395 293.847 151.323 293.833C147.732 293.82 144.143 294.026 140.577 294.448L140.625 295.218L147.359 295.102C149.658 295.102 147.08 297.026 144.646 297.652C142.213 298.277 139.654 299.576 139.836 304.568C140.135 310.475 140.51 312.89 141.857 311.312Z" fill="#2E353A"/>
<path d="M158.528 302.183C158.528 302.183 146.099 305.482 143.3 308.205C143.3 308.205 141.587 303.52 147.994 300.191C156.287 295.891 154.526 294.131 154.526 294.131C155.75 294.478 156.938 294.939 158.076 295.507C160.25 296.796 158.528 302.183 158.528 302.183Z" fill="#E4897B"/>
<path d="M335.046 341.318C333.892 341.299 332.744 341.491 331.66 341.886C331.66 341.886 327.071 341.347 319.779 334.594L315.71 336.364C315.032 336.677 314.467 337.191 314.092 337.837C313.717 338.482 313.55 339.227 313.613 339.971C313.62 340.182 313.663 340.39 313.738 340.587C314.211 341.551 314.748 342.483 315.344 343.377C317.363 346.345 319.561 349.188 321.924 351.891L322.54 351.419L318.615 345.897C317.297 344.021 320.337 345.06 322.251 346.696C324.166 348.331 326.628 349.745 330.669 346.744C335.325 343.223 337.105 341.511 335.046 341.318Z" fill="#2E353A"/>
<path d="M318.085 332.736C318.085 332.736 327.83 341.125 331.659 341.885C331.659 341.885 328.773 345.945 322.405 342.539C314.17 338.133 313.698 340.615 313.698 340.615C313.295 339.407 313.005 338.164 312.833 336.902C312.65 334.352 318.085 332.736 318.085 332.736Z" fill="#E4897B"/>
<path d="M275.199 138.633C278.374 140.797 283.598 160.865 285.175 162.154C286.753 163.443 298.422 157.18 298.422 157.18L300.971 162.856C300.971 162.856 283.348 173.64 280.923 171.61C278.499 169.58 270.572 147.868 270.572 147.868L275.199 138.633Z" fill="#263238"/>
<path opacity="0.2" d="M275.199 138.633C278.374 140.797 283.598 160.865 285.175 162.154C286.753 163.443 298.422 157.18 298.422 157.18L300.971 162.856C300.971 162.856 283.348 173.64 280.923 171.61C278.499 169.58 270.572 147.868 270.572 147.868L275.199 138.633Z" fill="white"/>
<path d="M210.447 157.894L222.443 170.024C222.443 170.024 259.096 182.53 268.235 169.245C268.235 169.245 264.252 149.293 253.978 145.878C243.704 142.463 210.447 157.894 210.447 157.894Z" fill="#263238"/>
<path opacity="0.1" d="M210.447 157.894L222.443 170.024C222.443 170.024 259.096 182.53 268.235 169.245C268.235 169.245 264.252 149.293 253.978 145.878C243.704 142.463 210.447 157.894 210.447 157.894Z" fill="white"/>
<path d="M297.777 162.434L305.04 158.48L308.465 150.342C309.892 150.829 311.289 151.397 312.65 152.045C313.131 152.42 311.111 159.144 310.601 159.567C310.091 159.991 307.205 160.327 307.205 160.327L300.288 164.704L297.777 162.434Z" fill="#E4897B"/>
<path d="M234.026 128.157C234.026 128.157 257.816 127.608 275.199 138.633C273.196 152.234 269.622 165.557 264.55 178.335L229.668 172.563C229.668 172.563 233.4 162.625 229.264 142.741L234.026 128.157Z" fill="#04054F"/>
<path opacity="0.6" d="M234.026 128.157C234.026 128.157 257.816 127.608 275.199 138.633C273.196 152.234 269.622 165.557 264.55 178.335L229.668 172.563C229.668 172.563 233.4 162.625 229.264 142.741L234.026 128.157Z" fill="white"/>
<path d="M244.348 127.07C249.158 147.503 227.994 165.791 211.842 166.012L207.667 157.152L224.896 149.966L234.064 128.157L244.348 127.07Z" fill="#263238"/>
<path d="M267.907 134.17C267.907 134.17 264.665 162.741 268.234 169.244C268.234 169.244 274.324 158.095 275.699 139.105C273.348 137.1 270.725 135.439 267.907 134.17Z" fill="#263238"/>
<path opacity="0.3" d="M244.348 127.07C249.158 147.503 227.994 165.791 211.842 166.012L207.667 157.152L224.896 149.966L234.064 128.157L244.348 127.07Z" fill="white"/>
<path opacity="0.3" d="M267.907 134.17C267.907 134.17 264.665 162.741 268.234 169.244C268.234 169.244 274.324 158.095 275.699 139.105C273.348 137.1 270.725 135.439 267.907 134.17Z" fill="white"/>
<path d="M249.64 127.35C249.64 127.35 245.311 125.06 238.163 129.457L242.559 132.573L239.298 136.258C239.236 142.883 237.674 149.409 234.729 155.344C234.729 155.344 242.54 147.369 245.176 138.653C247.812 129.938 246.619 127.946 249.64 127.35Z" fill="#263238"/>
<path d="M263.742 131.217C263.742 131.217 268.899 132.333 273.362 138.278L270.611 138.788L273.285 143.434L266.551 158.441C266.551 158.441 265.839 146.897 266.176 139.933C266.237 136.852 265.39 133.821 263.742 131.217Z" fill="#263238"/>
<path opacity="0.2" d="M249.64 127.35C249.64 127.35 245.311 125.06 238.163 129.457L242.559 132.573L239.298 136.258C239.236 142.883 237.674 149.409 234.729 155.344C234.729 155.344 242.54 147.369 245.176 138.653C247.812 129.938 246.619 127.946 249.64 127.35Z" fill="white"/>
<path opacity="0.2" d="M263.742 131.217C263.742 131.217 268.899 132.333 273.362 138.278L270.611 138.788L273.285 143.434L266.551 158.441C266.551 158.441 265.839 146.897 266.176 139.933C266.237 136.852 265.39 133.821 263.742 131.217Z" fill="white"/>
<path d="M264.386 225.291C258.566 249.284 241.77 281.222 238.489 287.408C235.93 292.276 225.781 293.911 213.477 295.335C189.745 298.086 157.777 302.444 157.777 302.444V294.96C157.777 294.96 222.328 279.75 223.376 276.277C224.838 271.362 226.56 247.985 228.1 228.312C228.282 226.119 228.455 223.974 228.619 221.905C228.888 218.5 229.139 215.335 229.35 212.603C229.85 206.34 230.158 202.28 230.158 202.28L264.598 177.971C264.598 177.971 271.659 195.287 264.386 225.291Z" fill="#263238"/>
<path opacity="0.2" d="M264.386 225.291C258.566 249.284 241.77 281.222 238.489 287.408C235.93 292.276 225.781 293.911 213.477 295.335C189.745 298.086 157.777 302.444 157.777 302.444V294.96C157.777 294.96 222.328 279.75 223.376 276.277C224.838 271.362 226.56 247.985 228.1 228.312C228.282 226.119 228.455 223.974 228.619 221.905C228.888 218.5 229.139 215.335 229.35 212.603C229.85 206.34 230.158 202.28 230.158 202.28L264.598 177.971C264.598 177.971 271.659 195.287 264.386 225.291Z" fill="black"/>
<path d="M280.904 254.978C277.652 247.859 249.639 203.482 249.639 203.482L222.106 208.138C230.986 234.18 262.597 260.779 267.955 267.686C273.314 274.593 313.121 336.161 313.121 336.161L318.018 332.698C318.018 332.698 287.792 270.043 280.904 254.978Z" fill="#263238"/>
<path d="M229.639 172.572L265.868 174.929L265.204 179.085C265.204 179.085 261.356 197.719 246.07 207.599L222.107 208.137C222.107 208.137 219.307 192.947 228.745 175.343L229.639 172.572Z" fill="#263238"/>
<path d="M242.299 173.775L230.351 173.072L229.446 175.852L242.029 176.795L242.299 173.775Z" fill="black"/>
<path d="M243.8 173.861L243.53 176.911L264.473 178.489L264.665 175.093L243.8 173.861Z" fill="black"/>
<path d="M258.778 179.086H258.711L254.863 178.864C254.564 178.845 254.285 178.711 254.083 178.489C253.985 178.378 253.909 178.249 253.862 178.109C253.814 177.968 253.794 177.82 253.804 177.672L253.968 175.084C253.977 174.936 254.014 174.791 254.079 174.658C254.144 174.525 254.234 174.405 254.345 174.307C254.455 174.209 254.585 174.133 254.725 174.085C254.865 174.037 255.013 174.016 255.161 174.026L259.009 174.256C259.158 174.262 259.304 174.298 259.438 174.362C259.572 174.427 259.691 174.519 259.788 174.632C259.887 174.742 259.963 174.871 260.011 175.012C260.059 175.152 260.078 175.301 260.067 175.449L259.923 177.999C259.901 178.285 259.774 178.552 259.566 178.75C259.358 178.947 259.084 179.06 258.797 179.066L258.778 179.086ZM255.103 175.007C255.061 175.007 255.021 175.023 254.991 175.051C254.96 175.08 254.942 175.119 254.94 175.161L254.786 177.72C254.79 177.763 254.808 177.803 254.837 177.835C254.867 177.866 254.906 177.887 254.949 177.893L258.797 178.124C258.839 178.119 258.878 178.101 258.908 178.071C258.938 178.041 258.957 178.002 258.961 177.96L259.105 175.411C259.114 175.391 259.118 175.37 259.118 175.348C259.118 175.327 259.114 175.305 259.105 175.286C259.073 175.255 259.033 175.235 258.99 175.228L255.142 175.007H255.103Z" fill="white"/>
<path d="M259.394 177.19L257.941 177.104C257.878 177.1 257.816 177.084 257.759 177.056C257.702 177.028 257.651 176.99 257.609 176.942C257.567 176.895 257.535 176.84 257.515 176.78C257.494 176.72 257.485 176.657 257.489 176.594C257.493 176.53 257.509 176.469 257.537 176.412C257.564 176.355 257.603 176.304 257.65 176.262C257.698 176.22 257.753 176.187 257.813 176.167C257.873 176.146 257.936 176.138 257.999 176.142L259.442 176.228C259.505 176.232 259.567 176.248 259.624 176.276C259.681 176.303 259.732 176.342 259.774 176.389C259.816 176.437 259.848 176.492 259.869 176.552C259.889 176.611 259.898 176.675 259.894 176.738C259.892 176.801 259.877 176.862 259.85 176.919C259.824 176.976 259.786 177.027 259.739 177.069C259.693 177.111 259.638 177.144 259.579 177.165C259.52 177.185 259.457 177.194 259.394 177.19Z" fill="white"/>
<path d="M260.702 152.958L270.601 147.878C271.287 146.86 272.155 145.976 273.16 145.271C274.218 144.781 283.55 146.233 283.55 146.233L280.058 153.612C280.058 153.612 273.15 153.217 272.419 152.65L263.367 157.46L260.702 152.958Z" fill="#E4897B"/>
<path d="M234.026 128.158C224.916 130.525 238.605 163.925 244.608 165.821C250.611 167.716 269.86 154.748 269.86 154.748L266.551 149.188C266.551 149.188 249.725 155.922 248.186 155.181C246.647 154.44 240.433 137.653 239.326 134.652C238.22 131.65 234.026 128.158 234.026 128.158Z" fill="#263238"/>
<path opacity="0.2" d="M234.026 128.158C224.916 130.525 238.605 163.925 244.608 165.821C250.611 167.716 269.86 154.748 269.86 154.748L266.551 149.188C266.551 149.188 249.725 155.922 248.186 155.181C246.647 154.44 240.433 137.653 239.326 134.652C238.22 131.65 234.026 128.158 234.026 128.158Z" fill="white"/>
<path opacity="0.6" d="M268.158 154.746C268.139 154.831 268.089 154.905 268.017 154.953C267.945 155.002 267.858 155.021 267.773 155.006C267.73 154.998 267.69 154.982 267.654 154.958C267.618 154.934 267.587 154.904 267.563 154.868C267.539 154.832 267.522 154.792 267.513 154.75C267.505 154.707 267.505 154.664 267.513 154.621C267.52 154.578 267.535 154.537 267.559 154.5C267.582 154.464 267.613 154.432 267.649 154.408C267.685 154.383 267.726 154.367 267.769 154.359C267.811 154.351 267.855 154.352 267.898 154.362C267.982 154.38 268.056 154.43 268.105 154.502C268.153 154.574 268.172 154.661 268.158 154.746Z" fill="white"/>
<path opacity="0.6" d="M265.848 156.17C265.84 156.212 265.824 156.253 265.8 156.289C265.777 156.325 265.746 156.356 265.71 156.38C265.674 156.404 265.634 156.421 265.592 156.43C265.55 156.438 265.506 156.438 265.464 156.43C265.379 156.411 265.305 156.361 265.257 156.289C265.209 156.218 265.19 156.13 265.204 156.045C265.22 155.96 265.27 155.884 265.342 155.835C265.415 155.787 265.503 155.769 265.589 155.785C265.674 155.802 265.75 155.852 265.798 155.924C265.847 155.996 265.865 156.085 265.848 156.17Z" fill="white"/>
<path d="M315.95 137.259L303.723 168.947C303.565 169.307 303.286 169.6 302.935 169.775C302.583 169.951 302.182 169.998 301.799 169.909L279.413 164.339C279.236 164.298 279.069 164.219 278.924 164.107C278.78 163.996 278.662 163.854 278.578 163.692C278.493 163.53 278.445 163.352 278.437 163.17C278.428 162.987 278.46 162.805 278.528 162.636L290.746 130.948C290.905 130.589 291.184 130.298 291.535 130.122C291.886 129.947 292.287 129.899 292.67 129.986L315.055 135.566C315.234 135.604 315.402 135.681 315.547 135.791C315.692 135.902 315.812 136.042 315.897 136.204C315.982 136.365 316.031 136.543 316.04 136.725C316.05 136.908 316.019 137.09 315.95 137.259Z" fill="#263238"/>
<path opacity="0.3" d="M315.95 137.258L303.722 168.946C303.564 169.306 303.286 169.599 302.934 169.775C302.583 169.95 302.181 169.998 301.798 169.908L280.432 164.589C280.253 164.551 280.084 164.473 279.938 164.362C279.792 164.251 279.672 164.109 279.587 163.947C279.502 163.784 279.455 163.604 279.448 163.421C279.441 163.237 279.475 163.055 279.547 162.886L291.765 131.198C291.923 130.838 292.202 130.545 292.553 130.369C292.905 130.193 293.306 130.146 293.689 130.236L315.064 135.555C315.243 135.595 315.411 135.673 315.556 135.784C315.702 135.896 315.821 136.037 315.905 136.2C315.989 136.362 316.037 136.541 316.045 136.724C316.052 136.907 316.02 137.089 315.95 137.258Z" fill="white"/>
<path opacity="0.3" d="M298.778 147.936C298.223 147.811 297.641 147.886 297.136 148.149C296.631 148.411 296.235 148.843 296.017 149.369C295.917 149.609 295.869 149.868 295.879 150.128C295.889 150.388 295.955 150.642 296.073 150.874C296.191 151.106 296.359 151.309 296.563 151.469C296.768 151.63 297.005 151.744 297.258 151.803C297.814 151.93 298.396 151.855 298.902 151.593C299.407 151.33 299.803 150.897 300.019 150.37C299.765 150.312 299.527 150.199 299.321 150.038C299.116 149.878 298.948 149.675 298.829 149.443C298.711 149.211 298.645 148.955 298.636 148.695C298.627 148.435 298.676 148.175 298.778 147.936Z" fill="white"/>
<path d="M242.771 135.429C242.771 135.429 244.185 129.061 246.695 127.733C249.206 126.406 261.193 128.513 265.358 132.428C267.93 135.028 269.556 138.415 269.976 142.048L264.618 139.778L256.489 148.936L250.12 136.122L242.771 135.429Z" fill="#04054F"/>
<path opacity="0.5" d="M242.771 135.429C242.771 135.429 244.185 129.061 246.695 127.733C249.206 126.406 261.193 128.513 265.358 132.428C267.93 135.028 269.556 138.415 269.976 142.048L264.618 139.778L256.489 148.936L250.12 136.122L242.771 135.429Z" fill="white"/>
<path d="M254.815 127.994C261.732 128.523 265.32 133.305 264.435 137.22L260.135 137.816L256.672 147.244L255.306 136.768L250.967 134.007C250.967 134.007 248.196 127.475 254.815 127.994Z" fill="#E4897B"/>
<path d="M257.364 138.306C250.765 133.101 251.534 129.023 251.534 129.023C254.776 127.233 256.931 123.366 257.71 120.365C257.965 119.419 258.139 118.453 258.23 117.479L265.878 124.213C264.96 125.292 264.121 126.437 263.367 127.637C262.802 128.515 262.346 129.458 262.011 130.446C261.049 133.332 262.501 134.294 262.501 134.294C262.309 138.094 257.364 138.306 257.364 138.306Z" fill="#E4897B"/>
<path opacity="0.2" d="M263.213 127.166C262.769 128.109 262.446 129.105 262.251 130.129C258.807 128.041 257.316 123.914 256.69 120.615C256.821 119.658 256.873 118.693 256.844 117.729L265.281 123.501C264.505 124.671 263.813 125.896 263.213 127.166Z" fill="black"/>
<path d="M275.468 101.491C283.338 105.29 283.838 110.726 280.5 119.105C276.325 129.591 270.601 135.699 261.808 128.782C249.87 119.393 262.405 95.1798 275.468 101.491Z" fill="#E4897B"/>
<path d="M275.622 116.209C275.683 117.688 275.922 119.155 276.334 120.576C275.948 120.791 275.51 120.895 275.069 120.876C274.627 120.858 274.2 120.717 273.833 120.471L275.622 116.209Z" fill="#DE5753"/>
<path d="M271.121 113.247C270.822 113.901 270.226 114.266 269.793 114.064C269.36 113.862 269.245 113.179 269.543 112.525C269.841 111.871 270.428 111.505 270.871 111.698C271.313 111.89 271.419 112.554 271.121 113.247Z" fill="#263238"/>
<path d="M270.668 111.65L272.342 111.737C272.342 111.737 271.091 112.612 270.668 111.65Z" fill="#263238"/>
<path d="M279.307 116.797C279.009 117.451 278.413 117.826 277.98 117.624C277.547 117.422 277.431 116.739 277.73 116.085C278.028 115.431 278.615 115.056 279.057 115.258C279.5 115.46 279.605 116.143 279.307 116.797Z" fill="#263238"/>
<path d="M278.855 115.209L280.529 115.296C280.529 115.296 279.279 116.171 278.855 115.209Z" fill="#263238"/>
<path d="M273.353 108.974C273.294 108.973 273.236 108.957 273.185 108.926C273.135 108.896 273.093 108.853 273.064 108.801C272.734 108.255 272.285 107.79 271.75 107.442C271.216 107.094 270.609 106.871 269.976 106.791C269.931 106.791 269.887 106.782 269.846 106.764C269.805 106.746 269.768 106.721 269.738 106.688C269.707 106.656 269.683 106.617 269.668 106.575C269.653 106.533 269.646 106.489 269.649 106.444C269.649 106.399 269.658 106.355 269.676 106.313C269.693 106.272 269.719 106.234 269.751 106.203C269.783 106.171 269.822 106.147 269.864 106.13C269.905 106.114 269.95 106.106 269.995 106.108C272.266 106.165 273.593 108.368 273.651 108.455C273.696 108.534 273.709 108.628 273.685 108.716C273.662 108.805 273.605 108.88 273.526 108.926C273.473 108.957 273.414 108.973 273.353 108.974Z" fill="#263238"/>
<path d="M282.829 111.736H282.684C282.193 111.463 281.647 111.303 281.086 111.268C280.525 111.233 279.964 111.324 279.442 111.534C279.403 111.556 279.36 111.57 279.316 111.575C279.271 111.58 279.226 111.576 279.183 111.564C279.14 111.551 279.1 111.53 279.065 111.502C279.03 111.474 279.002 111.439 278.981 111.399C278.957 111.36 278.942 111.317 278.936 111.272C278.93 111.228 278.934 111.182 278.947 111.139C278.959 111.095 278.981 111.055 279.01 111.02C279.039 110.986 279.075 110.957 279.115 110.937C279.729 110.675 280.394 110.555 281.06 110.587C281.727 110.619 282.377 110.801 282.963 111.12C283.044 111.16 283.106 111.229 283.136 111.313C283.167 111.398 283.163 111.49 283.127 111.572C283.096 111.624 283.052 111.666 283 111.695C282.947 111.723 282.888 111.738 282.829 111.736Z" fill="#263238"/>
<path d="M260.471 110.629C260.471 110.629 267.273 105.944 269.129 100.682C269.129 100.682 287.802 101.846 280.924 117.998C280.924 117.998 289.235 104.684 275.863 97.7958C262.492 90.9079 253.006 110.812 257.114 120.076C257.114 120.076 256.239 113.515 260.471 110.629Z" fill="#263238"/>
<path d="M260.952 112.872C261.311 111.925 261.282 110.875 260.871 109.949C260.461 109.024 259.702 108.297 258.759 107.927C256.19 107.013 252.612 111.458 258.095 115.623C258.884 116.181 259.788 115.575 260.952 112.872Z" fill="#E4897B"/>
<path d="M268.773 93.7371C268.773 93.7371 274.709 92.4096 278.509 94.2951C282.309 96.1806 282.568 99.0089 282.568 99.0089C283.447 98.8495 284.352 98.9035 285.206 99.1663C286.059 99.4292 286.837 99.8931 287.475 100.519C289.841 102.703 291.236 108.985 288.725 115.709C286.214 122.434 280.356 121.481 280.356 121.481C280.356 121.481 287.994 111.505 279.856 105.021C279.856 105.021 277.191 101.828 274.084 103.761C270.976 105.695 268.764 113.766 261.924 108.513C255.084 103.261 262.876 95.286 268.773 93.7371Z" fill="#263238"/>
<path d="M271.996 123.972C271.914 123.971 271.834 123.94 271.773 123.885C271.711 123.831 271.671 123.756 271.659 123.674C271.505 122.452 269.456 121.067 268.677 120.644C268.599 120.597 268.541 120.523 268.516 120.435C268.491 120.347 268.5 120.253 268.542 120.172C268.564 120.134 268.594 120.1 268.629 120.073C268.664 120.045 268.704 120.025 268.747 120.014C268.79 120.002 268.835 119.999 268.879 120.005C268.923 120.011 268.966 120.025 269.004 120.047C269.129 120.115 272.102 121.779 272.333 123.588C272.344 123.677 272.32 123.766 272.266 123.838C272.212 123.91 272.133 123.958 272.044 123.972H271.996Z" fill="#263238"/>
<path d="M269.36 94.9973C269.36 94.9973 265.233 81.2984 256.268 85.2426C247.302 89.1868 242.944 99.0858 235.69 93.3138C228.437 87.5418 225.108 95.0261 221.588 97.3061C218.067 99.586 211.833 96.1613 213.497 93.3138C213.497 93.3138 208.928 96.8058 217.028 100.481C225.128 104.156 229.101 96.4788 231.679 99.384C234.257 102.289 243.386 108.071 248.196 103.896C249.548 102.704 251.198 101.901 252.97 101.572C254.742 101.244 256.57 101.402 258.259 102.029L269.36 94.9973Z" fill="#263238"/>
<path d="M245.127 107.743C244.506 107.742 243.89 107.628 243.309 107.406C241.578 106.72 239.885 105.94 238.239 105.069C234.661 103.26 231.275 101.548 229.389 103.039C229.344 103.083 229.284 103.108 229.221 103.108C229.158 103.108 229.097 103.083 229.052 103.039C229.029 103.017 229.011 102.991 228.998 102.962C228.986 102.933 228.979 102.902 228.979 102.87C228.979 102.839 228.986 102.808 228.998 102.779C229.011 102.75 229.029 102.724 229.052 102.702C231.178 101.028 234.699 102.808 238.413 104.684C240.047 105.55 241.726 106.327 243.444 107.012C246.58 108.176 249.562 105.665 252.198 103.443C254.122 101.846 255.873 100.345 257.547 100.297C257.578 100.296 257.61 100.301 257.64 100.312C257.669 100.323 257.696 100.339 257.72 100.361C257.743 100.382 257.762 100.408 257.775 100.437C257.788 100.465 257.796 100.496 257.797 100.528C257.797 100.593 257.772 100.655 257.727 100.702C257.682 100.748 257.621 100.776 257.556 100.778C256.056 100.826 254.334 102.269 252.516 103.808C250.313 105.607 247.821 107.743 245.127 107.743Z" fill="#263238"/>
<path d="M219.817 95.7083C219.209 95.7077 218.618 95.5083 218.134 95.1407C218.107 95.1234 218.084 95.1007 218.066 95.0739C218.048 95.0471 218.036 95.0169 218.031 94.9852C218.025 94.9535 218.026 94.921 218.034 94.8898C218.042 94.8586 218.056 94.8294 218.076 94.8041C218.113 94.7542 218.167 94.7204 218.228 94.7097C218.289 94.6989 218.352 94.712 218.403 94.7463C220.481 96.2182 222.694 94.0056 224.849 91.8603C226.369 90.3404 227.802 88.907 229.207 88.7338C230.611 88.5607 232.362 89.4842 234.44 90.6578C237.634 92.7453 241.246 94.111 245.022 94.6597C245.086 94.6661 245.144 94.6976 245.185 94.7472C245.225 94.7968 245.245 94.8605 245.238 94.9243C245.232 94.9881 245.2 95.0467 245.151 95.0873C245.101 95.1279 245.038 95.1471 244.974 95.1407C241.12 94.5837 237.434 93.1952 234.171 91.0715C232.179 89.9075 230.601 88.9936 229.245 89.1475C227.889 89.3014 226.628 90.6771 225.166 92.1393C223.512 93.8709 221.665 95.7083 219.817 95.7083Z" fill="#263238"/>
<path d="M266.551 112.707C265.518 112.665 264.511 112.371 263.617 111.851C263.589 111.834 263.565 111.812 263.546 111.786C263.528 111.76 263.514 111.73 263.507 111.699C263.5 111.667 263.499 111.635 263.505 111.603C263.51 111.571 263.522 111.541 263.54 111.514C263.556 111.488 263.578 111.465 263.604 111.447C263.629 111.429 263.658 111.417 263.689 111.41C263.72 111.404 263.751 111.404 263.782 111.41C263.812 111.417 263.841 111.429 263.867 111.447C264.011 111.533 267.33 113.563 269.177 110.773C273.929 103.549 275.632 101.779 278.528 103.029C278.558 103.041 278.585 103.058 278.608 103.081C278.631 103.103 278.649 103.13 278.66 103.16C278.672 103.19 278.678 103.222 278.676 103.254C278.675 103.286 278.667 103.318 278.653 103.347C278.626 103.404 278.578 103.449 278.519 103.472C278.46 103.495 278.394 103.495 278.335 103.472C275.892 102.414 274.42 103.683 269.572 111.043C269.258 111.56 268.814 111.987 268.284 112.279C267.754 112.571 267.156 112.719 266.551 112.707Z" fill="#263238"/>
<path d="M306.878 161.26L326.532 153.564C326.532 153.564 348.812 166.6 362.972 168.754L338.48 173.564C338.48 173.564 311.977 168.35 306.878 161.26Z" fill="#04054F"/>
<path d="M187.831 224.406L202.761 210.938C202.761 210.938 228.283 214.786 248.197 224.406L227.398 237.171C227.398 237.171 207.793 227.215 187.831 224.406Z" fill="#04054F"/>
<path d="M68.1387 241.617L87.3209 234.998C87.3209 234.998 103.964 252.785 117.23 252.785L95.2382 263.348C95.2382 263.348 71.7943 254.373 68.1387 241.617Z" fill="#04054F"/>
<path d="M141.732 174.968C141.732 174.968 166.744 172.082 184.512 185.858L175.363 197.123C175.363 197.123 153.382 187.83 134.142 193.275L141.732 174.968Z" fill="#04054F"/>
<path d="M367.533 280.174L391.66 284.291C391.66 284.291 370.717 298.221 353.055 300.741L334.017 294.575C334.017 294.575 356.97 292.18 367.533 280.174Z" fill="#04054F"/>
<path d="M359.875 238.393C359.875 238.393 383.069 237.142 399.471 243.944L409.312 234.554C409.312 234.554 383.559 223.27 366.984 228.908L359.875 238.393Z" fill="#04054F"/>
<path d="M201.337 327.08C201.337 327.08 212.929 314.872 241.876 311.688L259.422 319.595C259.422 319.595 233.246 325.281 221.327 330.812L201.337 327.08Z" fill="#04054F"/>
<path opacity="0.6" d="M306.878 161.26L326.532 153.564C326.532 153.564 348.812 166.6 362.972 168.754L338.48 173.564C338.48 173.564 311.977 168.35 306.878 161.26Z" fill="white"/>
<path opacity="0.6" d="M187.831 224.406L202.761 210.938C202.761 210.938 228.283 214.786 248.197 224.406L227.398 237.171C227.398 237.171 207.793 227.215 187.831 224.406Z" fill="white"/>
<path opacity="0.6" d="M68.1387 241.617L87.3209 234.998C87.3209 234.998 103.964 252.785 117.23 252.785L95.2382 263.348C95.2382 263.348 71.7943 254.373 68.1387 241.617Z" fill="white"/>
<path opacity="0.4" d="M141.732 174.968C141.732 174.968 166.744 172.082 184.512 185.858L175.363 197.123C175.363 197.123 153.382 187.83 134.142 193.275L141.732 174.968Z" fill="white"/>
<path opacity="0.8" d="M367.533 280.174L391.66 284.291C391.66 284.291 370.717 298.221 353.055 300.741L334.017 294.575C334.017 294.575 356.97 292.18 367.533 280.174Z" fill="white"/>
<path opacity="0.4" d="M359.875 238.393C359.875 238.393 383.069 237.142 399.471 243.944L409.312 234.554C409.312 234.554 383.559 223.27 366.984 228.908L359.875 238.393Z" fill="white"/>
<path opacity="0.4" d="M201.337 327.08C201.337 327.08 212.929 314.872 241.876 311.688L259.422 319.595C259.422 319.595 233.246 325.281 221.327 330.812L201.337 327.08Z" fill="white"/>
</svg>
