<svg width="148" height="147" viewBox="0 0 148 147" fill="none" xmlns="http://www.w3.org/2000/svg">
<circle cx="74" cy="73.5" r="73.5" fill="#010448" fill-opacity="0.8"/>
<path d="M100.75 69.458H48.25C44.1079 69.458 40.75 73.077 40.75 77.5413V105.833C40.75 110.297 44.1079 113.916 48.25 113.916H100.75C104.892 113.916 108.25 110.297 108.25 105.833V77.5413C108.25 73.077 104.892 69.458 100.75 69.458Z" stroke="#F2CF47" stroke-width="2" stroke-linecap="round" stroke-linejoin="round"/>
<path d="M55.75 69.458V53.2913C55.75 47.9318 57.7254 42.7917 61.2417 39.0019C64.7581 35.2121 69.5272 33.083 74.5 33.083C79.4728 33.083 84.2419 35.2121 87.7582 39.0019C91.2746 42.7917 93.25 47.9318 93.25 53.2913V69.458" stroke="#F2CF47" stroke-width="2" stroke-linecap="round" stroke-linejoin="round"/>
<rect x="71.5" y="88" width="5" height="5.4" rx="2.5" fill="#F2CF47"/>
<rect x="73.166" y="91.5996" width="1.66667" height="5.4" rx="0.833333" fill="#F2CF47"/>
</svg>
