<svg width="148" height="147" viewBox="0 0 148 147" fill="none" xmlns="http://www.w3.org/2000/svg">
<circle cx="74" cy="73.5" r="73.5" fill="#010448" fill-opacity="0.8"/>
<path d="M100.75 69.458H48.25C44.1079 69.458 40.75 73.077 40.75 77.5413V105.833C40.75 110.297 44.1079 113.916 48.25 113.916H100.75C104.892 113.916 108.25 110.297 108.25 105.833V77.5413C108.25 73.077 104.892 69.458 100.75 69.458Z" stroke="#F2CF47" stroke-width="2" stroke-linecap="round" stroke-linejoin="round"/>
<path d="M55.75 69.458V53.2913C55.75 47.9318 57.7254 42.7917 61.2417 39.0019C64.7581 35.2121 69.5272 33.083 74.5 33.083C79.4728 33.083 84.2419 35.2121 87.7582 39.0019C91.2746 42.7917 93.25 47.9318 93.25 53.2913V69.458" stroke="#F2CF47" stroke-width="2" stroke-linecap="round" stroke-linejoin="round"/>
<path d="M62.6038 90.8776L63.1209 92.5583L59.8673 93.5172L61.9466 96.4261L60.5352 97.4604L58.5852 94.3683L56.689 97.3742L55.2669 96.3722L57.4001 93.4202L54.2111 92.4614L54.739 90.8022L57.928 91.9981L57.8202 88.3135H59.5548L59.4471 92.0628L62.6038 90.8776ZM72.925 90.8776L73.4421 92.5583L70.1884 93.5172L72.2678 96.4261L70.8564 97.4604L68.9064 94.3683L67.0102 97.3742L65.5881 96.3722L67.7213 93.4202L64.5323 92.4614L65.0602 90.8022L68.2492 91.9981L68.1414 88.3135H69.876L69.7683 92.0628L72.925 90.8776ZM83.2462 90.8776L83.7633 92.5583L80.5096 93.5172L82.589 96.4261L81.1776 97.4604L79.2276 94.3683L77.3314 97.3742L75.9093 96.3722L78.0425 93.4202L74.8535 92.4614L75.3814 90.8022L78.5704 91.9981L78.4626 88.3135H80.1972L80.0895 92.0628L83.2462 90.8776ZM93.5674 90.8776L94.0845 92.5583L90.8308 93.5172L92.9102 96.4261L91.4988 97.4604L89.5488 94.3683L87.6526 97.3742L86.2305 96.3722L88.3637 93.4202L85.1746 92.4614L85.7026 90.8022L88.8916 91.9981L88.7838 88.3135H90.5184L90.4107 92.0628L93.5674 90.8776Z" fill="#F2CF47"/>
</svg>
