<svg width="147" height="147" viewBox="0 0 147 147" fill="none" xmlns="http://www.w3.org/2000/svg">
<circle cx="73.5" cy="73.5" r="73.5" fill="#010448" fill-opacity="0.8"/>
<path d="M100.25 69.458H47.75C43.6079 69.458 40.25 73.077 40.25 77.5413V105.833C40.25 110.297 43.6079 113.916 47.75 113.916H100.25C104.392 113.916 107.75 110.297 107.75 105.833V77.5413C107.75 73.077 104.392 69.458 100.25 69.458Z" stroke="#F2CF47" stroke-width="2" stroke-linecap="round" stroke-linejoin="round"/>
<path d="M55.25 69.458V53.2913C55.25 47.9318 57.2254 42.7917 60.7417 39.0019C64.2581 35.2121 69.0272 33.083 74 33.083C78.9728 33.083 83.7419 35.2121 87.2582 39.0019C90.7746 42.7917 92.75 47.9318 92.75 53.2913V69.458" stroke="#F2CF47" stroke-width="2" stroke-linecap="round" stroke-linejoin="round"/>
<path d="M75.791 97.793H72.3281C72.3281 96.9375 72.3574 96.2344 72.416 95.6836C72.4746 95.1328 72.5918 94.6582 72.7676 94.2598C72.9316 93.8613 73.1895 93.4629 73.541 93.0645C73.8926 92.666 74.3672 92.1973 74.9648 91.6582C75.8203 90.873 76.4707 90.1758 76.916 89.5664C77.373 88.9219 77.6953 88.2949 77.8828 87.6855C78.082 87.0762 78.1816 86.4551 78.1816 85.8223C78.1816 84.5801 77.8477 83.625 77.1797 82.957C76.5234 82.2891 75.5801 81.9551 74.3496 81.9551C73.2832 81.9551 72.375 82.248 71.625 82.834C70.8867 83.4082 70.5176 84.2578 70.5176 85.3828H67.2129L67.1602 85.2773C67.1367 84.0234 67.4355 82.9277 68.0566 81.9902C68.6777 81.0527 69.5273 80.3262 70.6055 79.8105C71.6953 79.2949 72.9434 79.0371 74.3496 79.0371C76.6582 79.0371 78.4512 79.6289 79.7285 80.8125C81.0059 81.9844 81.6445 83.625 81.6445 85.7344C81.6445 86.7539 81.4805 87.668 81.1523 88.4766C80.8242 89.2969 80.3203 90.123 79.6406 90.9551C78.9727 91.7871 78.1348 92.7129 77.127 93.7324C76.7285 94.1426 76.4297 94.5234 76.2305 94.875C76.043 95.2266 75.9199 95.625 75.8613 96.0703C75.8145 96.5039 75.791 97.0781 75.791 97.793ZM72.293 105V101.344H75.8965V105H72.293Z" fill="#F2CF47"/>
</svg>
