<svg width="27" height="28" viewBox="0 0 27 28" fill="none" xmlns="http://www.w3.org/2000/svg">
<path d="M24.794 14.9239C24.5737 14.6684 24.4522 14.34 24.4522 14C24.4522 13.66 24.5737 13.3316 24.794 13.0761L26.5528 11.0604C26.7467 10.8402 26.867 10.5631 26.8966 10.2688C26.9263 9.97458 26.8636 9.67835 26.7177 9.42262L23.9695 4.57928C23.8251 4.32385 23.6052 4.12137 23.3412 4.00072C23.0772 3.88007 22.7825 3.8474 22.4992 3.90737L19.9158 4.4393C19.5871 4.50849 19.2449 4.45272 18.9538 4.28252C18.6627 4.11232 18.4428 3.83946 18.3356 3.51543L17.4974 0.953774C17.4052 0.675743 17.2295 0.434256 16.9953 0.263447C16.761 0.0926379 16.48 0.00114616 16.1919 0.00190368H10.6954C10.3958 -0.014029 10.0993 0.0703913 9.85113 0.242271C9.603 0.41415 9.41692 0.66404 9.32131 0.953774L8.5518 3.51543C8.44462 3.83946 8.22472 4.11232 7.9336 4.28252C7.64248 4.45272 7.30027 4.50849 6.97156 4.4393L4.3195 3.90737C4.05092 3.86871 3.77713 3.91188 3.5326 4.03145C3.28807 4.15102 3.08375 4.34163 2.94537 4.57928L0.19712 9.42262C0.0475599 9.6755 -0.019687 9.97007 0.00499295 10.2642C0.0296729 10.5584 0.145016 10.837 0.334532 11.0604L2.07967 13.0761C2.29997 13.3316 2.42146 13.66 2.42146 14C2.42146 14.34 2.29997 14.6684 2.07967 14.9239L0.334532 16.9396C0.145016 17.163 0.0296729 17.4416 0.00499295 17.7358C-0.019687 18.0299 0.0475599 18.3245 0.19712 18.5774L2.94537 23.4207C3.08979 23.6762 3.30968 23.8786 3.57369 23.9993C3.83771 24.1199 4.13237 24.1526 4.41569 24.0926L6.99904 23.5607C7.32775 23.4915 7.66996 23.5473 7.96108 23.7175C8.2522 23.8877 8.47211 24.1605 8.57929 24.4846L9.4175 27.0462C9.51311 27.336 9.69919 27.5858 9.94732 27.7577C10.1954 27.9296 10.492 28.014 10.7916 27.9981H16.2881C16.5762 27.9989 16.8572 27.9074 17.0915 27.7366C17.3257 27.5657 17.5014 27.3243 17.5935 27.0462L18.4318 24.4846C18.5389 24.1605 18.7588 23.8877 19.05 23.7175C19.3411 23.5473 19.6833 23.4915 20.012 23.5607L22.5954 24.0926C22.8787 24.1526 23.1733 24.1199 23.4374 23.9993C23.7014 23.8786 23.9213 23.6762 24.0657 23.4207L26.8139 18.5774C26.9598 18.3217 27.0225 18.0254 26.9928 17.7312C26.9632 17.4369 26.8429 17.1598 26.649 16.9396L24.794 14.9239ZM22.7465 16.7996L23.8458 18.0594L22.0869 21.167L20.4655 20.8311C19.4758 20.625 18.4463 20.7962 17.5724 21.3123C16.6985 21.8284 16.041 22.6534 15.7247 23.6307L15.2026 25.1985H11.6848L11.1901 23.6027C10.8739 22.6254 10.2164 21.8004 9.34248 21.2843C8.46857 20.7682 7.43906 20.597 6.44939 20.8031L4.82792 21.139L3.04156 18.0455L4.14086 16.7856C4.81687 16.0157 5.1906 15.019 5.1906 13.986C5.1906 12.953 4.81687 11.9563 4.14086 11.1864L3.04156 9.92655L4.80044 6.84697L6.42191 7.18293C7.41158 7.38901 8.44109 7.21775 9.315 6.70167C10.1889 6.18559 10.8464 5.3606 11.1626 4.38331L11.6848 2.80152H15.2026L15.7247 4.39731C16.041 5.3746 16.6985 6.19958 17.5724 6.71567C18.4463 7.23175 19.4758 7.40301 20.4655 7.19692L22.0869 6.86097L23.8458 9.96855L22.7465 11.2284C22.0781 11.9965 21.709 12.9875 21.709 14.014C21.709 15.0405 22.0781 16.0315 22.7465 16.7996ZM13.4437 8.40076C12.3566 8.40076 11.2939 8.72915 10.39 9.3444C9.4861 9.95966 8.7816 10.8341 8.36558 11.8573C7.94957 12.8804 7.84072 14.0062 8.0528 15.0924C8.26488 16.1785 8.78838 17.1762 9.55708 17.9593C10.3258 18.7423 11.3052 19.2756 12.3714 19.4917C13.4376 19.7077 14.5428 19.5968 15.5471 19.173C16.5515 18.7492 17.4099 18.0316 18.0139 17.1108C18.6178 16.19 18.9402 15.1074 18.9402 14C18.9402 12.515 18.3611 11.0908 17.3303 10.0407C16.2995 8.99068 14.9015 8.40076 13.4437 8.40076ZM13.4437 16.7996C12.9001 16.7996 12.3688 16.6354 11.9168 16.3278C11.4649 16.0202 11.1126 15.5829 10.9046 15.0714C10.6966 14.5598 10.6422 13.9969 10.7482 13.4538C10.8543 12.9107 11.116 12.4119 11.5004 12.0204C11.8847 11.6288 12.3744 11.3622 12.9075 11.2542C13.4406 11.1462 13.9932 11.2016 14.4954 11.4135C14.9976 11.6254 15.4268 11.9842 15.7288 12.4446C16.0308 12.905 16.1919 13.4463 16.1919 14C16.1919 14.7425 15.9024 15.4546 15.387 15.9796C14.8716 16.5047 14.1726 16.7996 13.4437 16.7996Z" fill="black"/>
</svg>
