<svg width="18" height="18" viewBox="0 0 18 18" fill="none" xmlns="http://www.w3.org/2000/svg">
<g clip-path="url(#clip0_1_3803)">
<path d="M15.75 13.5H11.25V11.25H9.975C9.15 13.05 7.275 14.25 5.25 14.25C2.325 14.25 0 11.925 0 9C0 6.075 2.325 3.75 5.25 3.75C7.275 3.75 9.15 4.95 9.975 6.75H18V11.25H15.75V13.5ZM12.75 12H14.25V9.75H16.5V8.25H8.925L8.775 7.725C8.25 6.225 6.825 5.25 5.25 5.25C3.15 5.25 1.5 6.9 1.5 9C1.5 11.1 3.15 12.75 5.25 12.75C6.825 12.75 8.25 11.775 8.775 10.275L8.925 9.75H12.75V12ZM5.25 11.25C3.975 11.25 3 10.275 3 9C3 7.725 3.975 6.75 5.25 6.75C6.525 6.75 7.5 7.725 7.5 9C7.5 10.275 6.525 11.25 5.25 11.25ZM5.25 8.25C4.8 8.25 4.5 8.55 4.5 9C4.5 9.45 4.8 9.75 5.25 9.75C5.7 9.75 6 9.45 6 9C6 8.55 5.7 8.25 5.25 8.25Z" fill="black"/>
</g>
<defs>
<clipPath id="clip0_1_3803">
<rect width="18" height="18" fill="white"/>
</clipPath>
</defs>
</svg>
