<svg width="28" height="33" viewBox="0 0 28 33" fill="none" xmlns="http://www.w3.org/2000/svg">
<rect width="28" height="33" rx="5" fill="#D9D9D9" fill-opacity="0.6"/>
<path d="M15.4615 12.5352V11.3567C15.4615 11.0441 15.3238 10.7444 15.0785 10.5234C14.8333 10.3024 14.5007 10.1782 14.1538 10.1782H12.8462M9.57692 20.7845H6.30769C5.96087 20.7845 5.62825 20.6603 5.38301 20.4393C5.13777 20.2183 5 19.9185 5 19.606V11.3567C5 11.0441 5.13777 10.7444 5.38301 10.5234C5.62825 10.3024 5.96087 10.1782 6.30769 10.1782H7.61538" stroke="#263238" stroke-width="1.30769" stroke-linecap="round" stroke-linejoin="round"/>
<path d="M20.6919 14.8921H14.1534C13.4312 14.8921 12.8457 15.4197 12.8457 16.0706V23.1414C12.8457 23.7922 13.4312 24.3199 14.1534 24.3199H20.6919C21.4141 24.3199 21.9995 23.7922 21.9995 23.1414V16.0706C21.9995 15.4197 21.4141 14.8921 20.6919 14.8921Z" stroke="#263238" stroke-width="1.30769" stroke-linecap="round" stroke-linejoin="round"/>
<path d="M15.4621 18.4278H19.3852M15.4621 20.7847H19.3852M13.1737 9H7.28906L7.82522 10.9091C7.85788 11.0369 7.93782 11.1509 8.05191 11.2322C8.16599 11.3136 8.30741 11.3576 8.45291 11.3569H12.0098C12.1553 11.3576 12.2968 11.3136 12.4108 11.2322C12.5249 11.1509 12.6049 11.0369 12.6375 10.9091L13.1737 9Z" stroke="#263238" stroke-width="1.30769" stroke-linecap="round" stroke-linejoin="round"/>
</svg>