<svg width="17" height="22" viewBox="0 0 17 22" fill="none" xmlns="http://www.w3.org/2000/svg">
<path d="M6.86539 12.8446C7.22476 13.2814 7.22476 13.9982 6.86539 14.435C6.52356 14.8719 5.96259 14.8719 5.62076 14.435C4.7998 13.3844 4.3387 11.9604 4.3387 10.4757C4.3387 8.99098 4.7998 7.56696 5.62076 6.51633L8.72359 2.55137C9.54577 1.50231 10.6602 0.913086 11.822 0.913086C12.9839 0.913086 14.0983 1.50231 14.9205 2.55137C15.7414 3.602 16.2025 5.02602 16.2025 6.51073C16.2025 7.99543 15.7414 9.41945 14.9205 10.4701L13.6145 12.139C13.6232 11.2205 13.5093 10.3021 13.2639 9.42844L13.6758 8.89082C13.9216 8.58022 14.1166 8.21042 14.2498 7.80284C14.3829 7.39526 14.4514 6.95799 14.4514 6.51633C14.4514 6.07466 14.3829 5.63739 14.2498 5.22981C14.1166 4.82223 13.9216 4.45243 13.6758 4.14183C13.4328 3.82784 13.1434 3.57857 12.8244 3.40845C12.5055 3.23832 12.1633 3.15073 11.8176 3.15073C11.472 3.15073 11.1298 3.23832 10.8109 3.40845C10.4919 3.57857 10.2025 3.82784 9.95946 4.14183L6.86539 8.09559C6.61968 8.40619 6.42461 8.77598 6.29148 9.18357C6.15834 9.59115 6.0898 10.0284 6.0898 10.4701C6.0898 10.9117 6.15834 11.349 6.29148 11.7566C6.42461 12.1642 6.61968 12.534 6.86539 12.8446ZM9.33714 8.09559C9.67898 7.65877 10.2399 7.65877 10.5818 8.09559C11.4027 9.14622 11.8638 10.5702 11.8638 12.0549C11.8638 13.5397 11.4027 14.9637 10.5818 16.0143L7.47895 19.9793C6.65676 21.0283 5.54238 21.6175 4.3805 21.6175C3.21863 21.6175 2.10424 21.0283 1.28206 19.9793C0.461103 18.9286 0 17.5046 0 16.0199C0 14.5352 0.461103 13.1112 1.28206 12.0605L2.58805 10.3917C2.57928 11.3101 2.69323 12.2286 2.93865 13.1134L2.52669 13.6398C2.28098 13.9504 2.08591 14.3202 1.95278 14.7278C1.81964 15.1354 1.75109 15.5726 1.75109 16.0143C1.75109 16.456 1.81964 16.8932 1.95278 17.3008C2.08591 17.7084 2.28098 18.0782 2.52669 18.3888C2.76976 18.7028 3.05915 18.9521 3.3781 19.1222C3.69706 19.2923 4.03926 19.3799 4.38488 19.3799C4.73051 19.3799 5.07271 19.2923 5.39167 19.1222C5.71062 18.9521 6.00001 18.7028 6.24308 18.3888L9.33714 14.435C9.58286 14.1244 9.77793 13.7546 9.91106 13.3471C10.0442 12.9395 10.1127 12.5022 10.1127 12.0605C10.1127 11.6189 10.0442 11.1816 9.91106 10.774C9.77793 10.3664 9.58286 9.99666 9.33714 9.68605C9.25201 9.58412 9.18416 9.46095 9.13777 9.32417C9.09138 9.18739 9.06744 9.0399 9.06744 8.89082C9.06744 8.74174 9.09138 8.59425 9.13777 8.45747C9.18416 8.32069 9.25201 8.19752 9.33714 8.09559Z" fill="black" fill-opacity="0.7"/>
</svg>
