<svg width="28" height="34" viewBox="0 0 28 34" fill="none" xmlns="http://www.w3.org/2000/svg">
<path d="M14.032 19.656C14.6451 19.656 15.2331 19.3601 15.6666 18.8335C16.1001 18.3069 16.3437 17.5927 16.3437 16.848C16.3437 16.1033 16.1001 15.3891 15.6666 14.8625C15.2331 14.3359 14.6451 14.04 14.032 14.04C13.4189 14.04 12.8309 14.3359 12.3974 14.8625C11.9638 15.3891 11.7203 16.1033 11.7203 16.848C11.7203 17.5927 11.9638 18.3069 12.3974 18.8335C12.8309 19.3601 13.4189 19.656 14.032 19.656ZM7.09686 19.656C7.70997 19.656 8.29796 19.3601 8.73149 18.8335C9.16502 18.3069 9.40857 17.5927 9.40857 16.848C9.40857 16.1033 9.16502 15.3891 8.73149 14.8625C8.29796 14.3359 7.70997 14.04 7.09686 14.04C6.48376 14.04 5.89577 14.3359 5.46224 14.8625C5.02871 15.3891 4.78516 16.1033 4.78516 16.848C4.78516 17.5927 5.02871 18.3069 5.46224 18.8335C5.89577 19.3601 6.48376 19.656 7.09686 19.656ZM20.9671 19.656C21.5802 19.656 22.1682 19.3601 22.6017 18.8335C23.0353 18.3069 23.2788 17.5927 23.2788 16.848C23.2788 16.1033 23.0353 15.3891 22.6017 14.8625C22.1682 14.3359 21.5802 14.04 20.9671 14.04C20.354 14.04 19.766 14.3359 19.3325 14.8625C18.899 15.3891 18.6554 16.1033 18.6554 16.848C18.6554 17.5927 18.899 18.3069 19.3325 18.8335C19.766 19.3601 20.354 19.656 20.9671 19.656Z" fill="black" fill-opacity="0.2"/>
</svg>
