<svg width="49" height="54" viewBox="0 0 49 54" fill="none" xmlns="http://www.w3.org/2000/svg">
<g clip-path="url(#clip0_1309_5350)">
<mask id="path-1-inside-1_1309_5350" fill="white">
<path d="M13.5994 11.9016C14.4047 11.5253 15.3665 11.5627 16.2896 12.0061C17.2128 12.4495 18.0282 13.2657 18.5705 14.2892L18.7036 14.5576L22.2625 22.1787L29.6351 19.9554C30.9132 19.5699 32.3618 19.7744 33.7217 20.5323C35.0817 21.2902 36.2643 22.5522 37.0584 24.0926L37.2216 24.4256L37.465 24.9469C39.0713 28.3866 39.5881 32.1706 38.9061 35.4976C38.2242 38.8246 36.3969 41.4336 33.8112 42.772L33.4971 42.9267L32.6419 43.3261C30.8179 44.1778 28.7283 44.3728 26.5927 43.8904C24.4571 43.4081 22.3546 42.2663 20.5061 40.5852L20.1459 40.2474L12.1471 32.5246C11.1339 31.5464 10.7284 29.7945 11.5276 28.7258C12.521 27.4011 13.7166 26.6815 15.4132 26.9355C15.7822 26.9909 16.1662 27.0918 16.5629 27.2331L16.9671 27.3871L12.3595 17.5203C11.847 16.423 11.6898 15.2145 11.9223 14.1608C12.1549 13.1071 12.7582 12.2944 13.5994 11.9016ZM15.1451 15.2115C14.9966 15.2807 14.8845 15.4158 14.8283 15.593C14.7722 15.7703 14.7755 15.9785 14.8377 16.1815L14.8971 16.3352L21.4662 30.4023C21.626 30.745 21.7003 31.1173 21.6788 31.4677C21.6574 31.8181 21.5412 32.1294 21.3464 32.3587C21.1515 32.588 20.8876 32.7238 20.591 32.7476C20.2945 32.7713 19.9799 32.6818 19.6907 32.4913L18.9549 32.0145L18.2969 31.6082C17.0532 30.8645 16.2385 30.5132 15.6416 30.4231C15.2837 30.3587 14.9397 30.4231 14.6551 30.6076L14.4917 30.7242L21.725 37.7079C23.0754 39.0114 24.6282 39.9257 26.2215 40.3556C27.8148 40.7854 29.3903 40.7151 30.784 40.1519L31.0962 40.0162L31.9514 39.6168C33.9212 38.6971 35.3493 36.8174 35.9357 34.3727C36.5221 31.928 36.2212 29.1085 35.0962 26.5067L34.9274 26.132L34.6839 25.6107C34.3248 24.8416 33.7716 24.1923 33.1193 23.7745C32.467 23.3566 31.7563 23.1962 31.1093 23.3208L30.8903 23.3747L23.5185 25.5997C22.8926 25.7885 22.1846 25.6946 21.516 25.3339C20.8475 24.9732 20.2603 24.3684 19.8554 23.6233L19.7249 23.3637L16.1659 15.7427C16.0635 15.5232 15.8983 15.344 15.7069 15.2443C15.5154 15.1447 15.3134 15.1329 15.1451 15.2115ZM9.71223 21.7803C10.0487 21.6231 10.4529 21.6468 10.8358 21.846C11.2187 22.0452 11.5489 22.4038 11.7539 22.8427C11.9589 23.2816 12.0218 23.765 11.9287 24.1865C11.8357 24.6079 11.5944 24.933 11.2579 25.0902L9.98907 25.6827C9.65256 25.8398 9.2484 25.8162 8.86551 25.6169C8.48263 25.4177 8.15237 25.0592 7.9474 24.6203C7.74244 24.1813 7.67954 23.698 7.77256 23.2765C7.86557 22.855 8.10688 22.5299 8.4434 22.3728L9.71223 21.7803ZM24.1653 13.015C24.489 12.8645 24.8754 12.8807 25.2458 13.0605C25.6162 13.2402 25.9425 13.5699 26.1581 13.9821C26.3737 14.3944 26.4623 14.858 26.4058 15.2784C26.3493 15.6988 26.1519 16.0442 25.8541 16.244L25.711 16.3249L24.4422 16.9174C24.1186 17.068 23.7321 17.0517 23.3617 16.872C22.9913 16.6922 22.665 16.3626 22.4494 15.9503C22.2338 15.5381 22.1452 15.0744 22.2017 14.654C22.2582 14.2336 22.4556 13.8882 22.7535 13.6884L22.8965 13.6075L24.1653 13.015ZM6.97154 13.5715L9.01321 14.6339C9.3901 14.8381 9.71321 15.1964 9.91295 15.6317C10.1127 16.067 10.1731 16.5444 10.0811 16.9611C9.98917 17.3778 9.75221 17.7004 9.42129 17.8596C9.09037 18.0187 8.69196 18.0016 8.31188 17.8119L6.27021 16.7494C5.89332 16.5452 5.57021 16.1869 5.37047 15.7516C5.17072 15.3164 5.11033 14.839 5.20229 14.4223C5.29425 14.0056 5.53121 13.6829 5.86213 13.5238C6.19305 13.3647 6.59146 13.3818 6.97154 13.5715ZM20.9287 7.05373C21.3115 7.25299 21.6416 7.61146 21.8466 8.05029C22.0515 8.48912 22.1144 8.97239 22.0215 9.39382L21.5255 11.6413C21.4822 11.854 21.4011 12.0455 21.2868 12.2045C21.1725 12.3635 21.0273 12.4869 20.8597 12.5675C20.6922 12.6481 20.5055 12.6843 20.3107 12.6739C20.1159 12.6635 19.9169 12.6067 19.7252 12.507C19.5335 12.4072 19.353 12.2664 19.1942 12.0929C19.0354 11.9193 18.9016 11.7163 18.8004 11.4959C18.6993 11.2755 18.6329 11.042 18.6051 10.809C18.5773 10.576 18.5887 10.3483 18.6386 10.139L19.1345 7.89156C19.2276 7.47019 19.4689 7.14521 19.8053 6.98809C20.1418 6.83098 20.5458 6.85458 20.9287 7.05373Z"/>
</mask>
<path d="M13.5994 11.9016C14.4047 11.5253 15.3665 11.5627 16.2896 12.0061C17.2128 12.4495 18.0282 13.2657 18.5705 14.2892L18.7036 14.5576L22.2625 22.1787L29.6351 19.9554C30.9132 19.5699 32.3618 19.7744 33.7217 20.5323C35.0817 21.2902 36.2643 22.5522 37.0584 24.0926L37.2216 24.4256L37.465 24.9469C39.0713 28.3866 39.5881 32.1706 38.9061 35.4976C38.2242 38.8246 36.3969 41.4336 33.8112 42.772L33.4971 42.9267L32.6419 43.3261C30.8179 44.1778 28.7283 44.3728 26.5927 43.8904C24.4571 43.4081 22.3546 42.2663 20.5061 40.5852L20.1459 40.2474L12.1471 32.5246C11.1339 31.5464 10.7284 29.7945 11.5276 28.7258C12.521 27.4011 13.7166 26.6815 15.4132 26.9355C15.7822 26.9909 16.1662 27.0918 16.5629 27.2331L16.9671 27.3871L12.3595 17.5203C11.847 16.423 11.6898 15.2145 11.9223 14.1608C12.1549 13.1071 12.7582 12.2944 13.5994 11.9016ZM15.1451 15.2115C14.9966 15.2807 14.8845 15.4158 14.8283 15.593C14.7722 15.7703 14.7755 15.9785 14.8377 16.1815L14.8971 16.3352L21.4662 30.4023C21.626 30.745 21.7003 31.1173 21.6788 31.4677C21.6574 31.8181 21.5412 32.1294 21.3464 32.3587C21.1515 32.588 20.8876 32.7238 20.591 32.7476C20.2945 32.7713 19.9799 32.6818 19.6907 32.4913L18.9549 32.0145L18.2969 31.6082C17.0532 30.8645 16.2385 30.5132 15.6416 30.4231C15.2837 30.3587 14.9397 30.4231 14.6551 30.6076L14.4917 30.7242L21.725 37.7079C23.0754 39.0114 24.6282 39.9257 26.2215 40.3556C27.8148 40.7854 29.3903 40.7151 30.784 40.1519L31.0962 40.0162L31.9514 39.6168C33.9212 38.6971 35.3493 36.8174 35.9357 34.3727C36.5221 31.928 36.2212 29.1085 35.0962 26.5067L34.9274 26.132L34.6839 25.6107C34.3248 24.8416 33.7716 24.1923 33.1193 23.7745C32.467 23.3566 31.7563 23.1962 31.1093 23.3208L30.8903 23.3747L23.5185 25.5997C22.8926 25.7885 22.1846 25.6946 21.516 25.3339C20.8475 24.9732 20.2603 24.3684 19.8554 23.6233L19.7249 23.3637L16.1659 15.7427C16.0635 15.5232 15.8983 15.344 15.7069 15.2443C15.5154 15.1447 15.3134 15.1329 15.1451 15.2115ZM9.71223 21.7803C10.0487 21.6231 10.4529 21.6468 10.8358 21.846C11.2187 22.0452 11.5489 22.4038 11.7539 22.8427C11.9589 23.2816 12.0218 23.765 11.9287 24.1865C11.8357 24.6079 11.5944 24.933 11.2579 25.0902L9.98907 25.6827C9.65256 25.8398 9.2484 25.8162 8.86551 25.6169C8.48263 25.4177 8.15237 25.0592 7.9474 24.6203C7.74244 24.1813 7.67954 23.698 7.77256 23.2765C7.86557 22.855 8.10688 22.5299 8.4434 22.3728L9.71223 21.7803ZM24.1653 13.015C24.489 12.8645 24.8754 12.8807 25.2458 13.0605C25.6162 13.2402 25.9425 13.5699 26.1581 13.9821C26.3737 14.3944 26.4623 14.858 26.4058 15.2784C26.3493 15.6988 26.1519 16.0442 25.8541 16.244L25.711 16.3249L24.4422 16.9174C24.1186 17.068 23.7321 17.0517 23.3617 16.872C22.9913 16.6922 22.665 16.3626 22.4494 15.9503C22.2338 15.5381 22.1452 15.0744 22.2017 14.654C22.2582 14.2336 22.4556 13.8882 22.7535 13.6884L22.8965 13.6075L24.1653 13.015ZM6.97154 13.5715L9.01321 14.6339C9.3901 14.8381 9.71321 15.1964 9.91295 15.6317C10.1127 16.067 10.1731 16.5444 10.0811 16.9611C9.98917 17.3778 9.75221 17.7004 9.42129 17.8596C9.09037 18.0187 8.69196 18.0016 8.31188 17.8119L6.27021 16.7494C5.89332 16.5452 5.57021 16.1869 5.37047 15.7516C5.17072 15.3164 5.11033 14.839 5.20229 14.4223C5.29425 14.0056 5.53121 13.6829 5.86213 13.5238C6.19305 13.3647 6.59146 13.3818 6.97154 13.5715ZM20.9287 7.05373C21.3115 7.25299 21.6416 7.61146 21.8466 8.05029C22.0515 8.48912 22.1144 8.97239 22.0215 9.39382L21.5255 11.6413C21.4822 11.854 21.4011 12.0455 21.2868 12.2045C21.1725 12.3635 21.0273 12.4869 20.8597 12.5675C20.6922 12.6481 20.5055 12.6843 20.3107 12.6739C20.1159 12.6635 19.9169 12.6067 19.7252 12.507C19.5335 12.4072 19.353 12.2664 19.1942 12.0929C19.0354 11.9193 18.9016 11.7163 18.8004 11.4959C18.6993 11.2755 18.6329 11.042 18.6051 10.809C18.5773 10.576 18.5887 10.3483 18.6386 10.139L19.1345 7.89156C19.2276 7.47019 19.4689 7.14521 19.8053 6.98809C20.1418 6.83098 20.5458 6.85458 20.9287 7.05373Z" fill="#F8F8F8" stroke="#37474F" stroke-width="1.6" mask="url(#path-1-inside-1_1309_5350)"/>
</g>
<defs>
<clipPath id="clip0_1309_5350">
<rect width="33.6087" height="43.8362" fill="white" transform="translate(0 14.2207) rotate(-25.0319)"/>
</clipPath>
</defs>
</svg>
