<svg width="125" height="112" viewBox="0 0 125 112" fill="none" xmlns="http://www.w3.org/2000/svg">
<path d="M105.721 31.0945H31.0945C27.4883 31.0954 23.9595 32.1414 20.9354 34.106C17.9112 36.0706 15.5213 38.8696 14.0547 42.1642L0 73.8184V12.4378C0 9.1391 1.31041 5.97549 3.64295 3.64295C5.97549 1.31041 9.1391 0 12.4378 0H37.3134C40.5526 0.012631 43.6656 1.2578 46.0199 3.48259L61.1318 18.6567H93.2836C96.5823 18.6567 99.7459 19.9671 102.078 22.2997C104.411 24.6322 105.721 27.7958 105.721 31.0945ZM123.197 46.1443C122.624 45.3405 121.869 44.6845 120.993 44.2303C120.117 43.7761 119.146 43.5369 118.159 43.5323H31.0945C29.8983 43.5348 28.7281 43.8823 27.7243 44.5331C26.7206 45.1839 25.9258 46.1104 25.4353 47.2015L0.559701 103.172C0.134419 104.118 -0.0474663 105.155 0.030603 106.189C0.108672 107.224 0.444217 108.222 1.00669 109.094C1.56916 109.965 2.34069 110.682 3.25104 111.179C4.16139 111.677 5.18164 111.938 6.21891 111.94H99.5025C100.806 111.944 102.078 111.537 103.138 110.778C104.198 110.019 104.993 108.947 105.41 107.711L124.067 51.7413C124.376 50.8061 124.457 49.811 124.306 48.8379C124.155 47.8648 123.774 46.9416 123.197 46.1443Z" fill="#6E6FE8" stroke="#6E6FE8" stroke-width="0.00118657"/>
</svg>
