<svg width="20" height="20" viewBox="0 0 20 20" fill="none" xmlns="http://www.w3.org/2000/svg">
<path d="M15.8333 8.33268H16.6667C16.8877 8.33268 17.0996 8.42048 17.2559 8.57676C17.4122 8.73304 17.5 8.945 17.5 9.16602V17.4993C17.5 17.7204 17.4122 17.9323 17.2559 18.0886C17.0996 18.2449 16.8877 18.3327 16.6667 18.3327H3.33333C3.11232 18.3327 2.90036 18.2449 2.74408 18.0886C2.5878 17.9323 2.5 17.7204 2.5 17.4993V9.16602C2.5 8.945 2.5878 8.73304 2.74408 8.57676C2.90036 8.42048 3.11232 8.33268 3.33333 8.33268H4.16667V7.49935C4.16667 5.95225 4.78125 4.46852 5.87521 3.37456C6.96917 2.2806 8.4529 1.66602 10 1.66602C11.5471 1.66602 13.0308 2.2806 14.1248 3.37456C15.2188 4.46852 15.8333 5.95225 15.8333 7.49935V8.33268ZM4.16667 9.99935V16.666H15.8333V9.99935H4.16667ZM9.16667 11.666H10.8333V14.9993H9.16667V11.666ZM14.1667 8.33268V7.49935C14.1667 6.39428 13.7277 5.33447 12.9463 4.55307C12.1649 3.77167 11.1051 3.33268 10 3.33268C8.89493 3.33268 7.83512 3.77167 7.05372 4.55307C6.27232 5.33447 5.83333 6.39428 5.83333 7.49935V8.33268H14.1667Z" fill="black"/>
</svg>
