<svg width="20" height="20" viewBox="0 0 20 20" fill="none" xmlns="http://www.w3.org/2000/svg">
<path d="M18.125 10C18.125 5.51289 14.4871 1.875 10 1.875C5.51289 1.875 1.875 5.51289 1.875 10C1.875 14.4871 5.51289 18.125 10 18.125C14.4871 18.125 18.125 14.4871 18.125 10Z" stroke="black" stroke-width="1.25" stroke-miterlimit="10"/>
<path d="M17.4055 6.72479C16.7782 6.72869 16.8399 7.88611 16.0583 7.34002C15.768 7.13768 15.5895 6.84354 15.2251 6.75408C14.9067 6.67596 14.5805 6.75721 14.2661 6.8115C13.9087 6.87322 13.4848 6.90096 13.2137 7.17166C12.9516 7.43221 12.813 7.78182 12.5341 8.04393C11.9946 8.55174 11.7669 9.10604 12.1161 9.824C12.452 10.5142 13.1548 10.8888 13.913 10.8396C14.6579 10.79 15.4317 10.358 15.4102 11.4404C15.4024 11.8232 15.4825 12.0888 15.6001 12.4447C15.7091 12.7728 15.7016 13.0908 15.7266 13.4295C15.7727 14.0623 15.8891 14.7717 16.2032 15.3306L16.7891 14.5041C16.8614 14.4017 17.0126 14.2584 17.0485 14.1377C17.1122 13.924 16.9868 13.5568 16.9723 13.3174C16.9579 13.0779 16.9649 12.8353 16.9282 12.5959C16.8766 12.2603 16.6782 11.9459 16.6509 11.6142C16.6005 10.9967 16.7134 10.5037 16.2376 9.98729C15.7782 9.48924 15.1048 9.36971 14.4614 9.47088C14.1372 9.52166 12.8321 9.73025 13.3559 8.98924C13.4595 8.84354 13.6403 8.724 13.7567 8.58533C13.8579 8.46463 13.9458 8.24275 14.0645 8.14861C14.1833 8.05447 14.7286 7.94627 14.8848 7.99432C15.0411 8.04236 15.204 8.26775 15.3395 8.36775C15.59 8.55639 15.8822 8.68181 16.1915 8.73338C16.7251 8.8115 17.8407 8.50135 17.8321 7.81697C17.8305 7.48885 17.5259 7.03182 17.4055 6.72479ZM11.229 12.356C11.0208 11.4795 9.82976 11.1865 9.18758 10.7111C8.81844 10.4377 8.48992 10.0154 8.00516 9.98104C7.78172 9.96502 7.59461 10.0135 7.37312 9.95604C7.17 9.90369 7.01062 9.79432 6.79422 9.82283C6.38992 9.87596 6.13484 10.308 5.70047 10.2494C5.28836 10.1939 4.86375 9.71189 4.77 9.31932C4.64969 8.81463 5.04891 8.65096 5.47664 8.60604C5.65516 8.58729 5.85555 8.56697 6.02703 8.63221C6.25281 8.71619 6.35945 8.93729 6.56219 9.049C6.94226 9.25721 7.01922 8.9244 6.96101 8.58689C6.87391 8.08143 6.77234 7.87518 7.22312 7.52752C7.53562 7.28768 7.80281 7.11424 7.75281 6.68338C7.72312 6.43025 7.58445 6.3158 7.71375 6.06385C7.8118 5.87205 8.08094 5.699 8.25633 5.58455C8.70906 5.28924 10.1958 5.31111 9.58836 4.48455C9.40984 4.24197 9.08055 3.80838 8.76805 3.749C8.37742 3.67518 8.20398 4.11111 7.93172 4.3033C7.65047 4.50213 7.10281 4.72791 6.82117 4.42049C6.44227 4.00682 7.07234 3.87088 7.2118 3.58221C7.35125 3.29354 6.88875 2.74783 6.64109 2.60955L5.47664 3.91541C5.44319 4.13411 5.45483 4.35733 5.51086 4.57136C5.56689 4.78539 5.66611 4.98569 5.80242 5.15994C6.03406 5.45799 6.40281 5.55369 6.41961 5.96072C6.43602 6.35135 6.37508 6.55135 6.11961 6.82596C6.00906 6.94314 5.93094 7.10955 5.81844 7.21932C5.68055 7.3533 5.73172 7.31229 5.51648 7.349C5.1118 7.41736 4.76726 7.52283 4.37625 7.63064C3.72469 7.81072 3.66453 6.74627 3.36766 6.32869L2.39109 7.11736C2.38055 7.24666 2.55125 7.48455 2.59773 7.62518C2.86453 8.42869 3.40281 9.05018 3.75047 9.81893C4.11648 10.633 5.0993 10.4072 5.53328 11.1205C5.91844 11.7533 5.50711 12.5545 5.79539 13.217C6.00477 13.6978 6.49852 13.8029 6.83914 14.1545C7.18719 14.5096 7.17976 14.9955 7.23289 15.4576C7.2928 16.0011 7.39004 16.5399 7.52391 17.0701C7.57117 17.2533 7.61453 17.4955 7.73992 17.6467C7.82586 17.7506 8.12078 17.84 8.00164 17.8744C8.16805 17.9017 8.46453 18.0572 8.6032 17.9431C8.78601 17.7931 8.73719 17.3314 8.76883 17.1228C8.86375 16.5017 9.17469 15.8943 9.59422 15.4295C10.0087 14.9709 10.5766 14.6603 10.9266 14.1404C11.2677 13.6334 11.3704 12.9494 11.229 12.356ZM9.92469 13.3842C9.69031 13.8025 9.16844 14.0826 8.83289 14.415C8.74187 14.5053 8.54812 14.8178 8.43406 14.7502C8.35242 14.7017 8.32469 14.2963 8.29461 14.2033C8.13944 13.7352 7.84321 13.3265 7.44656 13.0334C7.3243 12.9408 7.02117 12.8205 6.95125 12.6935C6.87312 12.5556 6.94344 12.2303 6.94617 12.0803C6.95047 11.8615 6.85086 11.4978 6.90477 11.299C6.96727 11.0697 6.84695 11.208 7.05203 11.1627C7.16023 11.1385 7.60711 11.217 7.74187 11.2451C7.95594 11.2896 8.07391 11.4228 8.24266 11.5576C8.68641 11.9135 9.17508 12.1888 9.67234 12.4615C10.0575 12.6748 10.1708 12.9447 9.92469 13.3842ZM7.20594 2.62127C7.39109 2.80213 7.56531 3.01619 7.84148 3.03416C8.10281 3.05174 8.3493 2.91033 8.57742 3.08807C8.83055 3.28338 9.01297 3.53065 9.34891 3.59158C9.67391 3.65057 10.018 3.46072 10.0985 3.1283C10.1766 2.8115 10.0083 2.46697 9.99812 2.149C9.99812 2.10486 10.022 1.90877 9.99148 1.87557C9.96883 1.85057 9.77977 1.87869 9.75086 1.87947C9.53914 1.88572 9.32794 1.90031 9.11726 1.92322C8.34923 2.00635 7.59706 2.19907 6.88367 2.49549C6.97859 2.56111 7.09773 2.58729 7.20594 2.62127ZM13.9223 4.8158C14.254 4.8158 14.5907 4.66736 14.4837 4.28377C14.3938 3.96229 14.2407 3.61346 13.868 3.7869C13.6309 3.89705 13.295 4.17752 13.2673 4.45565C13.2356 4.77127 13.7012 4.8158 13.9223 4.8158ZM13.6575 6.49432C13.9962 6.69705 14.4985 6.60174 14.754 6.31229C14.9536 6.08572 15.0712 5.69236 15.4302 5.69275C15.5882 5.69243 15.74 5.75431 15.8528 5.86502C16.0012 6.01854 15.972 6.16268 16.0036 6.35486C16.0743 6.7865 16.5372 6.37947 16.6579 6.21229C16.736 6.1033 16.8419 5.94158 16.8063 5.79979C16.7735 5.66736 16.6188 5.52635 16.5501 5.40486C16.3493 5.0533 16.1841 4.64432 15.8833 4.36033C15.5938 4.08689 15.238 4.11854 14.9634 4.40252C14.7384 4.6369 14.477 4.82244 14.3231 5.1076C14.2145 5.30799 14.0923 5.40369 13.8723 5.45564C13.7512 5.48416 13.613 5.49471 13.5114 5.57596C13.2286 5.79861 13.3895 6.33338 13.6575 6.49432Z" fill="black"/>
</svg>
