<svg width="19" height="19" viewBox="0 0 19 19" fill="none" xmlns="http://www.w3.org/2000/svg">
<path d="M6.90909 16.4091C4.9803 16.4091 3.34659 15.7398 2.00795 14.4011C0.669318 13.0625 0 11.4288 0 9.5C0 7.57121 0.669318 5.9375 2.00795 4.59886C3.34659 3.26023 4.9803 2.59091 6.90909 2.59091C8.83788 2.59091 10.4716 3.26023 11.8102 4.59886C13.1489 5.9375 13.8182 7.57121 13.8182 9.5C13.8182 11.4288 13.1489 13.0625 11.8102 14.4011C10.4716 15.7398 8.83788 16.4091 6.90909 16.4091ZM6.90909 14.6818C8.34848 14.6818 9.57197 14.178 10.5795 13.1705C11.5871 12.1629 12.0909 10.9394 12.0909 9.5C12.0909 8.06061 11.5871 6.83712 10.5795 5.82955C9.57197 4.82197 8.34848 4.31818 6.90909 4.31818C5.4697 4.31818 4.24621 4.82197 3.23864 5.82955C2.23106 6.83712 1.72727 8.06061 1.72727 9.5C1.72727 10.9394 2.23106 12.1629 3.23864 13.1705C4.24621 14.178 5.4697 14.6818 6.90909 14.6818ZM6.04545 12.5227H7.77273V8.20455H9.5V6.90909H4.31818V8.20455H6.04545V12.5227ZM15.5455 6.90909L14.4659 4.53409L12.0909 3.45455L14.4659 2.375L15.5455 0L16.625 2.375L19 3.45455L16.625 4.53409L15.5455 6.90909ZM15.5455 19L14.4659 16.625L12.0909 15.5455L14.4659 14.4659L15.5455 12.0909L16.625 14.4659L19 15.5455L16.625 16.625L15.5455 19Z" fill="black"/>
</svg>
