<svg width="17" height="17" viewBox="0 0 17 17" fill="none" xmlns="http://www.w3.org/2000/svg">
<mask id="mask0_1_3855" style="mask-type:luminance" maskUnits="userSpaceOnUse" x="0" y="0" width="17" height="17">
<path d="M8.5 16C9.4851 16.0013 10.4607 15.8079 11.3708 15.4309C12.281 15.0539 13.1076 14.5007 13.8032 13.8032C14.5007 13.1076 15.0539 12.281 15.4309 11.3708C15.8079 10.4607 16.0013 9.4851 16 8.5C16.0012 7.5149 15.8078 6.53927 15.4308 5.62916C15.0538 4.71906 14.5007 3.89242 13.8032 3.19675C13.1076 2.49927 12.281 1.94613 11.3708 1.56914C10.4607 1.19215 9.4851 0.99873 8.5 1.00001C7.5149 0.99875 6.53927 1.19218 5.62916 1.56917C4.71906 1.94616 3.89242 2.49928 3.19675 3.19675C2.49928 3.89242 1.94616 4.71906 1.56917 5.62916C1.19218 6.53927 0.99875 7.5149 1.00001 8.5C0.99873 9.4851 1.19215 10.4607 1.56914 11.3708C1.94613 12.281 2.49927 13.1076 3.19675 13.8032C3.89242 14.5007 4.71906 15.0538 5.62916 15.4308C6.53927 15.8078 7.5149 16.0012 8.5 16Z" fill="white" stroke="white" stroke-width="1.25" stroke-linejoin="round"/>
<path d="M5.5 8.5L7.75 10.75L12.25 6.25" stroke="black" stroke-width="1.25" stroke-linecap="round" stroke-linejoin="round"/>
</mask>
<g mask="url(#mask0_1_3855)">
<path d="M-0.5 -0.5H17.5V17.5H-0.5V-0.5Z" fill="#61AFFE"/>
</g>
</svg>
