<svg width="680" height="608" viewBox="0 0 680 608" fill="none" xmlns="http://www.w3.org/2000/svg">
<path d="M637.167 525.382C596.926 575.756 514.2 601.165 386.993 606.439C220.92 613.323 144.915 582.315 68.0381 511.895H623.487L637.167 525.382Z" fill="#999999"/>
<path d="M1 511.836H617.076" stroke="#263238" stroke-linecap="round" stroke-linejoin="round"/>
<path d="M623.517 53.5469V511.837L664.245 552.565" stroke="#263238" stroke-linecap="round" stroke-linejoin="round"/>
<path d="M501.864 80.6834V1" stroke="#263238" stroke-linecap="round" stroke-linejoin="round"/>
<path d="M467.474 115.074C467.379 110.499 468.199 105.951 469.884 101.696C471.569 97.4415 474.087 93.566 477.289 90.2968C480.491 87.0276 484.313 84.4303 488.532 82.6572C492.751 80.884 497.281 79.9707 501.857 79.9707C506.434 79.9707 510.964 80.884 515.183 82.6572C519.401 84.4303 523.224 87.0276 526.426 90.2968C529.628 93.566 532.146 97.4415 533.831 101.696C535.516 105.951 536.335 110.499 536.241 115.074H467.474Z" stroke="#263238" stroke-linecap="round" stroke-linejoin="round"/>
<path d="M68.0384 511.836H39.8818" stroke="#263238" stroke-linecap="round" stroke-linejoin="round"/>
<path d="M182.171 328.316H152.641V511.851H182.171V328.316Z" stroke="#263238" stroke-linecap="round" stroke-linejoin="round"/>
<path d="M142.078 341.938H22.7598V386.506H142.078V341.938Z" stroke="#263238" stroke-linecap="round" stroke-linejoin="round"/>
<path d="M142.078 391.365H22.7598V435.934H142.078V391.365Z" stroke="#263238" stroke-linecap="round" stroke-linejoin="round"/>
<path d="M142.078 440.811H22.7598V485.379H142.078V440.811Z" stroke="#263238" stroke-linecap="round" stroke-linejoin="round"/>
<path d="M69.8701 345.158C69.8701 346.475 70.3931 347.737 71.3239 348.668C72.2548 349.599 73.5173 350.122 74.8337 350.122H90.0052C90.6582 350.124 91.3053 349.997 91.9092 349.748C92.5131 349.5 93.062 349.134 93.5245 348.673C93.987 348.212 94.3539 347.664 94.6043 347.061C94.8546 346.458 94.9835 345.811 94.9835 345.158" stroke="#263238" stroke-linecap="round" stroke-linejoin="round"/>
<path d="M69.8701 394.585C69.8818 395.895 70.4094 397.148 71.3386 398.072C72.2677 398.995 73.5236 399.516 74.8337 399.519H90.0052C91.3255 399.519 92.5918 398.995 93.5254 398.061C94.459 397.128 94.9835 395.861 94.9835 394.541" stroke="#263238" stroke-linecap="round" stroke-linejoin="round"/>
<path d="M69.8701 444.029C69.8701 445.347 70.3926 446.611 71.323 447.544C72.2534 448.478 73.5159 449.004 74.8337 449.008H90.0052C90.6589 449.008 91.3063 448.879 91.9103 448.629C92.5143 448.379 93.0631 448.012 93.5254 447.55C93.9877 447.087 94.3544 446.538 94.6046 445.934C94.8547 445.33 94.9835 444.683 94.9835 444.029" stroke="#263238" stroke-linecap="round" stroke-linejoin="round"/>
<path d="M147.81 511.851H13.0986V328.316H147.81" stroke="#263238" stroke-linecap="round" stroke-linejoin="round"/>
<path d="M262.873 422.742V492.173L299.228 504.981C299.681 505.14 300.074 505.436 300.352 505.828C300.63 506.219 300.779 506.687 300.779 507.168V509.324C300.78 509.683 300.697 510.037 300.537 510.358C300.377 510.679 300.145 510.958 299.858 511.173C299.571 511.388 299.238 511.533 298.885 511.597C298.532 511.661 298.169 511.641 297.825 511.54L260.48 500.579L259.8 509.546C259.759 510.17 259.48 510.755 259.022 511.181C258.563 511.607 257.959 511.841 257.333 511.836H255.413C254.789 511.834 254.189 511.597 253.732 511.173C253.275 510.749 252.994 510.168 252.946 509.546L252.266 500.579L214.936 511.54C214.592 511.638 214.23 511.655 213.879 511.59C213.527 511.525 213.195 511.38 212.909 511.165C212.623 510.951 212.39 510.673 212.23 510.353C212.069 510.034 211.984 509.682 211.981 509.324V507.168C211.982 506.687 212.131 506.219 212.409 505.828C212.687 505.436 213.08 505.14 213.533 504.981L249.903 492.173V422.742" stroke="#263238" stroke-linecap="round" stroke-linejoin="round"/>
<path d="M246.283 397.599V377.479" stroke="#263238" stroke-linecap="round" stroke-linejoin="round"/>
<path d="M237.76 377.479V397.599" stroke="#263238" stroke-linecap="round" stroke-linejoin="round"/>
<path d="M209.396 373.904C203.34 373.668 199.056 369.738 199.056 362.943V327.71C199.154 325.578 199.869 323.52 201.115 321.786C202.361 320.053 204.083 318.718 206.073 317.945" stroke="#263238" stroke-linecap="round" stroke-linejoin="round"/>
<path d="M207.728 323.249V362.795C207.728 369.62 213.179 373.387 220.048 372.176C235.033 369.414 250.449 370.091 265.134 374.155C271.9 375.987 277.218 372.678 277.218 365.882V326.336C277.132 324.61 276.553 322.944 275.551 321.535C274.548 320.127 273.163 319.035 271.56 318.389C252.841 312.051 232.707 311.165 213.504 315.833C211.887 316.31 210.46 317.282 209.424 318.613C208.388 319.943 207.794 321.564 207.728 323.249Z" stroke="#263238" stroke-linecap="round" stroke-linejoin="round"/>
<path d="M235.618 400.523H215.97C214.314 400.522 212.674 400.846 211.144 401.478C209.613 402.111 208.222 403.039 207.05 404.209C205.879 405.379 204.949 406.769 204.315 408.299C203.681 409.829 203.354 411.468 203.354 413.124C203.354 414.656 203.963 416.126 205.046 417.209C206.129 418.292 207.599 418.901 209.131 418.901H231.984" stroke="#263238" stroke-linecap="round" stroke-linejoin="round"/>
<path d="M238.705 418.901H303.586C305.118 418.901 306.587 418.292 307.67 417.209C308.754 416.126 309.362 414.656 309.362 413.124C309.362 411.468 309.036 409.829 308.401 408.299C307.767 406.769 306.838 405.379 305.666 404.209C304.494 403.039 303.104 402.111 301.573 401.478C300.043 400.846 298.402 400.522 296.746 400.523H245.545C243.888 400.522 242.248 400.846 240.718 401.478C239.187 402.111 237.796 403.039 236.625 404.209C235.453 405.379 234.524 406.769 233.889 408.299C233.255 409.829 232.929 411.468 232.929 413.124C232.929 414.656 233.537 416.126 234.62 417.209C235.704 418.292 237.173 418.901 238.705 418.901Z" stroke="#263238" stroke-linecap="round" stroke-linejoin="round"/>
<path d="M544.188 297.352C544.961 297.336 545.701 297.042 546.274 296.524C546.847 296.005 547.213 295.297 547.305 294.53L553.776 234.303C553.825 233.947 553.797 233.585 553.692 233.241C553.588 232.897 553.41 232.581 553.171 232.312C552.933 232.044 552.638 231.831 552.309 231.687C551.98 231.544 551.624 231.473 551.265 231.481" stroke="#263238" stroke-linecap="round" stroke-linejoin="round"/>
<path d="M384.156 352.779H592.361V333.457H384.156V352.779Z" stroke="#263238" stroke-linecap="round" stroke-linejoin="round"/>
<path d="M310.043 333.441V352.764H380.937" stroke="#263238" stroke-linecap="round" stroke-linejoin="round"/>
<path d="M599.054 331.373V319.289H396.034" stroke="#263238" stroke-linecap="round" stroke-linejoin="round"/>
<path d="M303.336 331.389H392.799V319.305H303.336V331.389Z" stroke="#263238" stroke-linecap="round" stroke-linejoin="round"/>
<path d="M581.061 356V511.836H585.566L587.191 356" stroke="#263238" stroke-linecap="round" stroke-linejoin="round"/>
<path d="M574.945 356L576.556 511.836H581.061V356" stroke="#263238" stroke-linecap="round" stroke-linejoin="round"/>
<path d="M521.527 356V511.836H526.033L527.643 356" stroke="#263238" stroke-linecap="round" stroke-linejoin="round"/>
<path d="M515.411 356L517.021 511.836H521.527V356" stroke="#263238" stroke-linecap="round" stroke-linejoin="round"/>
<path d="M380.862 356V511.836H385.383L386.993 356" stroke="#263238" stroke-linecap="round" stroke-linejoin="round"/>
<path d="M374.747 356L376.357 511.836H380.863V356" stroke="#263238" stroke-linecap="round" stroke-linejoin="round"/>
<path d="M321.329 356V511.836H325.835L327.445 356" stroke="#263238" stroke-linecap="round" stroke-linejoin="round"/>
<path d="M315.213 356L316.823 511.836H321.329V356" stroke="#263238" stroke-linecap="round" stroke-linejoin="round"/>
<path d="M473.768 315.537H429.967V319.289H473.768V315.537Z" stroke="#263238" stroke-linecap="round" stroke-linejoin="round"/>
<path d="M554.264 319.289H544.1C543.422 319.289 542.772 319.02 542.293 318.541C541.814 318.061 541.544 317.411 541.544 316.733V313.513H556.819V316.733C556.819 317.411 556.55 318.061 556.071 318.541C555.592 319.02 554.941 319.289 554.264 319.289Z" stroke="#263238" stroke-linecap="round" stroke-linejoin="round"/>
<path d="M556.819 313.542C556.819 311.356 553.392 309.568 549.167 309.568C544.942 309.568 541.529 311.356 541.529 313.542H556.819Z" stroke="#263238" stroke-linecap="round" stroke-linejoin="round"/>
<path d="M541.529 313.542C541.529 311.356 544.957 309.568 549.167 309.568V313.542H541.529Z" stroke="#263238" stroke-linecap="round" stroke-linejoin="round"/>
<path d="M541.012 297.352H455.627C455.268 297.359 454.911 297.289 454.582 297.146C454.253 297.002 453.959 296.789 453.72 296.52C453.481 296.252 453.303 295.935 453.199 295.592C453.095 295.248 453.066 294.886 453.115 294.53L459.586 234.302C459.681 233.537 460.048 232.831 460.62 232.313C461.192 231.795 461.931 231.5 462.703 231.481H548.103C548.461 231.476 548.817 231.548 549.145 231.692C549.473 231.836 549.766 232.049 550.004 232.317C550.242 232.585 550.42 232.901 550.525 233.243C550.631 233.586 550.661 233.947 550.614 234.302L544.144 294.53C544.051 295.3 543.683 296.009 543.107 296.528C542.531 297.047 541.787 297.339 541.012 297.352Z" stroke="#263238" stroke-linecap="round" stroke-linejoin="round"/>
<path d="M510.669 298.963L512.131 312.524H515.352L513.889 298.963" stroke="#263238" stroke-linecap="round" stroke-linejoin="round"/>
<path d="M489.722 298.963L491.184 312.524H512.132L510.669 298.963" stroke="#263238" stroke-linecap="round" stroke-linejoin="round"/>
<path d="M537.452 292.994H460.133C459.82 293.001 459.51 292.94 459.223 292.816C458.937 292.691 458.681 292.506 458.473 292.273C458.265 292.039 458.11 291.764 458.019 291.465C457.928 291.166 457.903 290.851 457.946 290.541L463.56 238.291C463.641 237.623 463.961 237.007 464.461 236.557C464.96 236.106 465.605 235.851 466.278 235.838H543.598C543.91 235.831 544.22 235.892 544.507 236.016C544.793 236.141 545.05 236.326 545.257 236.559C545.465 236.793 545.62 237.068 545.711 237.367C545.802 237.666 545.827 237.981 545.784 238.291L540.17 290.541C540.089 291.209 539.769 291.825 539.269 292.275C538.77 292.726 538.125 292.981 537.452 292.994Z" stroke="#263238" stroke-linecap="round" stroke-linejoin="round"/>
<path d="M518.587 312.523H476.116V319.304H518.587V312.523Z" stroke="#263238" stroke-linecap="round" stroke-linejoin="round"/>
<path d="M531.012 312.523H518.588V319.304H531.012V312.523Z" stroke="#263238" stroke-linecap="round" stroke-linejoin="round"/>
<path d="M571.325 248.617H432.241V279.95H571.325V248.617Z" fill="white" stroke="#263238" stroke-linecap="round" stroke-linejoin="round"/>
<path d="M449.053 267.57L446.807 265.857L447.176 268.605C447.209 268.786 447.201 268.972 447.154 269.15C447.106 269.328 447.02 269.493 446.902 269.634C446.784 269.775 446.636 269.888 446.469 269.965C446.302 270.043 446.12 270.083 445.936 270.082C445.751 270.083 445.569 270.043 445.402 269.965C445.235 269.888 445.088 269.775 444.969 269.634C444.851 269.493 444.765 269.328 444.717 269.15C444.67 268.972 444.662 268.786 444.695 268.605L445.064 265.857L442.804 267.57C442.662 267.676 442.5 267.75 442.328 267.789C442.156 267.827 441.978 267.829 441.805 267.794C441.633 267.76 441.469 267.689 441.326 267.587C441.182 267.484 441.061 267.353 440.972 267.201C440.882 267.049 440.826 266.879 440.808 266.703C440.79 266.526 440.809 266.349 440.865 266.181C440.921 266.013 441.012 265.859 441.132 265.729C441.253 265.599 441.4 265.497 441.563 265.428L444.148 264.35L441.563 263.272C441.399 263.202 441.252 263.098 441.132 262.967C441.011 262.835 440.92 262.68 440.864 262.511C440.808 262.342 440.789 262.163 440.808 261.986C440.826 261.809 440.882 261.638 440.972 261.484C441.06 261.331 441.179 261.197 441.323 261.094C441.466 260.99 441.631 260.919 441.804 260.884C441.977 260.849 442.156 260.851 442.329 260.891C442.501 260.931 442.663 261.007 442.804 261.115L445.049 262.828L444.68 260.081C444.647 259.9 444.655 259.713 444.703 259.536C444.75 259.358 444.836 259.193 444.954 259.052C445.073 258.911 445.221 258.797 445.388 258.72C445.555 258.643 445.737 258.603 445.921 258.604C446.105 258.603 446.287 258.643 446.454 258.72C446.621 258.797 446.769 258.911 446.887 259.052C447.006 259.193 447.092 259.358 447.139 259.536C447.186 259.713 447.194 259.9 447.162 260.081L446.792 262.828L449.038 261.115C449.178 261.007 449.34 260.931 449.513 260.891C449.685 260.851 449.864 260.849 450.038 260.884C450.211 260.919 450.375 260.99 450.519 261.094C450.662 261.197 450.782 261.331 450.87 261.484C450.959 261.638 451.015 261.809 451.034 261.986C451.052 262.163 451.033 262.342 450.977 262.511C450.921 262.68 450.83 262.835 450.71 262.967C450.589 263.098 450.442 263.202 450.279 263.272L447.693 264.35L450.279 265.428C450.442 265.497 450.589 265.599 450.709 265.729C450.829 265.859 450.921 266.013 450.977 266.181C451.033 266.349 451.052 266.526 451.034 266.703C451.015 266.879 450.959 267.049 450.87 267.201C450.78 267.351 450.66 267.48 450.518 267.581C450.375 267.682 450.213 267.752 450.042 267.786C449.872 267.821 449.695 267.82 449.525 267.783C449.354 267.746 449.194 267.673 449.053 267.57Z" fill="#263238"/>
<path d="M469.099 267.57L466.853 265.857L467.223 268.605C467.255 268.786 467.248 268.972 467.2 269.15C467.153 269.328 467.067 269.493 466.948 269.634C466.83 269.775 466.682 269.888 466.515 269.965C466.348 270.043 466.166 270.083 465.982 270.082C465.798 270.083 465.617 270.043 465.45 269.966C465.284 269.888 465.136 269.775 465.019 269.633C464.902 269.492 464.817 269.327 464.772 269.149C464.726 268.971 464.721 268.785 464.756 268.605L465.125 265.857L462.88 267.57C462.737 267.676 462.574 267.751 462.401 267.789C462.228 267.828 462.048 267.83 461.874 267.795C461.701 267.76 461.536 267.69 461.391 267.587C461.246 267.485 461.124 267.353 461.033 267.201C460.946 267.047 460.893 266.876 460.877 266.7C460.861 266.524 460.882 266.347 460.939 266.179C460.996 266.012 461.088 265.858 461.209 265.729C461.329 265.6 461.476 265.497 461.639 265.428L464.209 264.35L461.639 263.272C461.475 263.201 461.329 263.097 461.208 262.967C461.087 262.836 460.995 262.681 460.938 262.513C460.881 262.344 460.86 262.166 460.876 261.988C460.893 261.811 460.946 261.639 461.033 261.484C461.122 261.33 461.244 261.197 461.388 261.093C461.533 260.989 461.698 260.918 461.873 260.883C462.048 260.848 462.228 260.851 462.401 260.891C462.575 260.931 462.738 261.007 462.88 261.115L465.125 262.829L464.756 260.081C464.721 259.9 464.726 259.715 464.772 259.537C464.817 259.359 464.902 259.193 465.019 259.052C465.136 258.911 465.284 258.797 465.45 258.719C465.617 258.642 465.798 258.602 465.982 258.604C466.166 258.603 466.348 258.643 466.515 258.72C466.682 258.797 466.83 258.911 466.948 259.052C467.067 259.193 467.153 259.358 467.2 259.536C467.248 259.714 467.255 259.9 467.223 260.081L466.853 262.829L469.099 261.115C469.239 261.007 469.401 260.931 469.574 260.891C469.746 260.851 469.925 260.849 470.099 260.884C470.272 260.919 470.436 260.99 470.58 261.094C470.723 261.197 470.843 261.331 470.931 261.484C471.02 261.638 471.076 261.809 471.095 261.986C471.114 262.163 471.094 262.342 471.038 262.511C470.983 262.68 470.891 262.835 470.771 262.967C470.65 263.098 470.504 263.202 470.34 263.272L467.769 264.35L470.34 265.428C470.503 265.497 470.65 265.599 470.77 265.729C470.891 265.859 470.982 266.013 471.038 266.181C471.094 266.349 471.113 266.527 471.095 266.703C471.076 266.879 471.02 267.049 470.931 267.201C470.841 267.353 470.721 267.484 470.577 267.587C470.433 267.689 470.27 267.76 470.097 267.794C469.924 267.829 469.746 267.827 469.574 267.789C469.402 267.75 469.24 267.676 469.099 267.57Z" fill="#263238"/>
<path d="M489.146 267.571L486.901 265.857L487.27 268.605C487.305 268.785 487.299 268.971 487.254 269.149C487.208 269.327 487.124 269.492 487.007 269.634C486.889 269.775 486.742 269.889 486.576 269.966C486.409 270.044 486.227 270.083 486.044 270.082C485.859 270.085 485.676 270.047 485.507 269.971C485.339 269.894 485.19 269.781 485.071 269.639C484.952 269.498 484.866 269.331 484.82 269.152C484.773 268.973 484.768 268.786 484.803 268.605L485.172 265.857L482.927 267.571C482.785 267.676 482.623 267.75 482.451 267.789C482.279 267.827 482.101 267.829 481.929 267.795C481.756 267.76 481.592 267.689 481.449 267.587C481.305 267.485 481.185 267.353 481.095 267.201C481.005 267.049 480.95 266.879 480.931 266.703C480.913 266.527 480.932 266.349 480.988 266.181C481.044 266.013 481.135 265.859 481.256 265.729C481.376 265.6 481.523 265.497 481.686 265.429L484.256 264.35L481.686 263.272C481.522 263.202 481.375 263.098 481.255 262.967C481.134 262.836 481.043 262.68 480.987 262.511C480.931 262.342 480.912 262.163 480.931 261.986C480.949 261.809 481.005 261.638 481.095 261.484C481.183 261.331 481.303 261.198 481.446 261.094C481.59 260.99 481.754 260.919 481.927 260.884C482.101 260.849 482.28 260.851 482.452 260.891C482.624 260.931 482.786 261.007 482.927 261.115L485.172 262.829L484.803 260.081C484.768 259.899 484.773 259.712 484.82 259.533C484.866 259.354 484.952 259.188 485.071 259.046C485.19 258.905 485.339 258.791 485.507 258.715C485.676 258.638 485.859 258.6 486.044 258.604C486.227 258.603 486.409 258.642 486.576 258.72C486.742 258.797 486.889 258.911 487.007 259.052C487.124 259.193 487.208 259.359 487.254 259.537C487.299 259.715 487.305 259.901 487.27 260.081L486.901 262.829L489.146 261.115C489.287 261.007 489.448 260.931 489.621 260.891C489.793 260.851 489.972 260.849 490.146 260.884C490.319 260.919 490.483 260.99 490.627 261.094C490.77 261.198 490.89 261.331 490.978 261.484C491.065 261.64 491.118 261.811 491.134 261.989C491.151 262.166 491.13 262.344 491.073 262.513C491.016 262.681 490.924 262.836 490.803 262.967C490.682 263.098 490.536 263.201 490.372 263.272L487.802 264.35L490.372 265.429C490.535 265.497 490.682 265.6 490.803 265.729C490.923 265.859 491.014 266.013 491.07 266.181C491.126 266.349 491.145 266.527 491.127 266.703C491.109 266.879 491.053 267.049 490.963 267.201C490.873 267.351 490.754 267.48 490.611 267.581C490.469 267.682 490.307 267.752 490.136 267.787C489.965 267.821 489.789 267.82 489.618 267.783C489.448 267.746 489.287 267.673 489.146 267.571Z" fill="#263238"/>
<path d="M509.281 267.57L507.021 265.857L507.39 268.605C507.425 268.785 507.42 268.971 507.374 269.149C507.329 269.327 507.244 269.492 507.127 269.633C507.009 269.775 506.862 269.888 506.696 269.966C506.529 270.043 506.348 270.083 506.164 270.082C505.98 270.083 505.798 270.043 505.631 269.965C505.464 269.888 505.316 269.775 505.198 269.634C505.079 269.493 504.993 269.328 504.946 269.15C504.898 268.972 504.891 268.786 504.923 268.605L505.292 265.857L503.047 267.57C502.906 267.676 502.744 267.75 502.572 267.789C502.4 267.827 502.221 267.829 502.049 267.794C501.876 267.76 501.712 267.689 501.569 267.587C501.425 267.484 501.305 267.353 501.215 267.201C501.126 267.049 501.07 266.879 501.051 266.703C501.033 266.527 501.052 266.349 501.108 266.181C501.164 266.013 501.255 265.859 501.376 265.729C501.496 265.599 501.643 265.497 501.806 265.428L504.391 264.35L501.806 263.272C501.642 263.202 501.495 263.098 501.375 262.967C501.254 262.835 501.163 262.68 501.107 262.511C501.052 262.342 501.032 262.163 501.051 261.986C501.069 261.809 501.125 261.638 501.215 261.484C501.303 261.331 501.423 261.197 501.566 261.094C501.71 260.99 501.874 260.919 502.047 260.884C502.221 260.849 502.4 260.851 502.572 260.891C502.744 260.931 502.906 261.007 503.047 261.115L505.292 262.829L504.923 260.081C504.891 259.9 504.898 259.714 504.946 259.536C504.993 259.358 505.079 259.193 505.198 259.052C505.316 258.911 505.464 258.797 505.631 258.72C505.798 258.643 505.98 258.603 506.164 258.604C506.348 258.602 506.529 258.642 506.696 258.719C506.862 258.797 507.009 258.911 507.127 259.052C507.244 259.193 507.329 259.359 507.374 259.537C507.42 259.715 507.425 259.9 507.39 260.081L507.021 262.829L509.281 261.115C509.421 261.007 509.583 260.931 509.756 260.891C509.928 260.851 510.107 260.849 510.281 260.884C510.454 260.919 510.618 260.99 510.762 261.094C510.905 261.197 511.025 261.331 511.113 261.484C511.2 261.639 511.254 261.809 511.272 261.986C511.289 262.162 511.269 262.341 511.213 262.509C511.158 262.677 511.067 262.832 510.948 262.964C510.829 263.095 510.684 263.2 510.522 263.272L507.937 264.35L510.507 265.428C510.67 265.497 510.817 265.6 510.937 265.729C511.058 265.858 511.15 266.012 511.207 266.179C511.264 266.347 511.285 266.524 511.269 266.7C511.253 266.876 511.199 267.047 511.113 267.201C511.023 267.353 510.903 267.484 510.759 267.587C510.616 267.689 510.452 267.76 510.279 267.794C510.106 267.829 509.928 267.827 509.756 267.789C509.584 267.75 509.422 267.676 509.281 267.57Z" fill="#263238"/>
<path d="M529.254 267.57L527.008 265.857L527.377 268.605C527.41 268.786 527.402 268.972 527.355 269.15C527.307 269.328 527.221 269.493 527.103 269.634C526.985 269.775 526.837 269.888 526.67 269.965C526.503 270.043 526.321 270.083 526.137 270.082C525.953 270.083 525.771 270.043 525.604 269.965C525.437 269.888 525.289 269.775 525.17 269.634C525.052 269.493 524.966 269.328 524.918 269.15C524.871 268.972 524.863 268.786 524.896 268.605L525.265 265.857L523.02 267.57C522.878 267.676 522.716 267.75 522.544 267.789C522.372 267.827 522.194 267.829 522.021 267.794C521.849 267.76 521.685 267.689 521.541 267.587C521.398 267.484 521.277 267.353 521.188 267.201C521.098 267.049 521.042 266.879 521.024 266.703C521.005 266.526 521.025 266.349 521.081 266.181C521.137 266.013 521.228 265.859 521.348 265.729C521.469 265.599 521.615 265.497 521.779 265.428L524.364 264.35L521.779 263.272C521.615 263.202 521.468 263.098 521.348 262.967C521.227 262.835 521.136 262.68 521.08 262.511C521.024 262.342 521.005 262.163 521.023 261.986C521.042 261.809 521.098 261.638 521.188 261.484C521.276 261.331 521.395 261.197 521.539 261.094C521.682 260.99 521.846 260.919 522.02 260.884C522.193 260.849 522.372 260.851 522.545 260.891C522.717 260.931 522.879 261.007 523.02 261.115L525.265 262.828L524.896 260.081C524.863 259.9 524.871 259.713 524.918 259.536C524.966 259.358 525.052 259.193 525.17 259.052C525.289 258.911 525.437 258.797 525.604 258.72C525.771 258.643 525.953 258.603 526.137 258.604C526.321 258.603 526.503 258.643 526.67 258.72C526.837 258.797 526.985 258.911 527.103 259.052C527.221 259.193 527.307 259.358 527.355 259.536C527.402 259.713 527.41 259.9 527.377 260.081L527.008 262.725L529.254 261.011C529.394 260.904 529.556 260.828 529.728 260.788C529.901 260.748 530.08 260.745 530.253 260.78C530.427 260.815 530.591 260.887 530.734 260.99C530.878 261.094 530.998 261.227 531.085 261.381C531.175 261.535 531.231 261.706 531.25 261.883C531.268 262.06 531.249 262.239 531.193 262.408C531.137 262.577 531.046 262.732 530.926 262.863C530.805 262.994 530.658 263.098 530.494 263.168L527.909 264.247L530.494 265.325C530.658 265.393 530.805 265.496 530.925 265.626C531.045 265.755 531.136 265.909 531.192 266.077C531.248 266.245 531.268 266.423 531.249 266.599C531.231 266.775 531.175 266.945 531.085 267.098C531.005 267.258 530.891 267.399 530.752 267.512C530.612 267.624 530.45 267.706 530.277 267.75C530.103 267.795 529.922 267.802 529.746 267.771C529.569 267.74 529.401 267.672 529.254 267.57Z" fill="#263238"/>
<path d="M562.772 264.291C562.772 264.291 558.68 269.388 553.643 269.388C548.606 269.388 544.528 264.291 544.528 264.291C544.528 264.291 548.606 259.18 553.599 259.18C558.592 259.18 562.772 264.291 562.772 264.291Z" fill="white" stroke="#263238" stroke-linecap="round" stroke-linejoin="round"/>
<path d="M556.789 264.29C556.792 264.913 556.61 265.523 556.266 266.042C555.922 266.562 555.432 266.967 554.857 267.208C554.282 267.448 553.649 267.512 553.038 267.393C552.427 267.273 551.864 266.974 551.423 266.535C550.981 266.096 550.68 265.535 550.558 264.924C550.435 264.313 550.496 263.68 550.734 263.104C550.972 262.528 551.375 262.036 551.893 261.69C552.411 261.343 553.02 261.158 553.643 261.158C554.055 261.156 554.464 261.236 554.846 261.392C555.227 261.549 555.574 261.779 555.867 262.07C556.159 262.361 556.391 262.707 556.549 263.088C556.708 263.469 556.789 263.878 556.789 264.29Z" fill="#999999" stroke="#263238" stroke-linecap="round" stroke-linejoin="round"/>
<path d="M527.569 400.789C527.569 400.789 510.654 435.727 495.793 417.999C480.932 400.272 506.045 393.625 506.045 393.625C506.045 393.625 475.791 397.2 475.791 380.802C475.791 364.404 497.329 374.657 497.329 374.657C497.329 374.657 469.35 352.838 482.971 343.634C492.455 337.223 515.263 360.372 515.263 360.372C515.263 360.372 506.548 337.74 516.741 337.223C526.934 336.706 533.67 369.531 533.67 369.531C533.67 369.531 539.298 345.348 549.551 352.306C559.803 359.264 541.5 386.12 541.5 386.12C541.5 386.12 554.677 373.105 558.266 382.338C561.856 391.571 541.5 397.717 541.5 397.717C541.5 397.717 541.352 431.561 530.08 427.454C518.809 423.347 527.569 400.789 527.569 400.789Z" fill="#04054F"/>
<path d="M563.629 476.663C563.629 476.663 563.629 398.752 517.272 375.16" stroke="#263238" stroke-linecap="round" stroke-linejoin="round"/>
<path d="M533.848 387.598C533.848 387.598 520.907 389.902 506.297 405.797" stroke="#263238" stroke-linecap="round" stroke-linejoin="round"/>
<path d="M524.792 379.738C524.792 379.738 510.521 384.096 496.724 382.516" stroke="#263238" stroke-linecap="round" stroke-linejoin="round"/>
<path d="M528.81 382.856C535.475 378.392 540.736 372.126 543.981 364.789" stroke="#263238" stroke-linecap="round" stroke-linejoin="round"/>
<path d="M615.511 423.761C615.511 423.761 629.781 453.233 642.323 438.283C654.865 423.333 633.666 417.705 633.666 417.705C633.666 417.705 659.193 420.733 659.193 406.891C659.193 393.049 641.023 401.691 641.023 401.691C641.023 401.691 664.659 383.284 653.137 375.514C645.13 370.122 625.881 389.637 625.881 389.637C625.881 389.637 633.267 370.551 624.596 370.122C615.924 369.694 610.311 397.378 610.311 397.378C610.311 397.378 605.554 376.962 596.912 382.841C588.27 388.721 603.707 411.382 603.707 411.382C603.707 411.382 592.584 400.391 589.555 408.191C586.527 415.991 603.707 421.161 603.707 421.161C603.707 421.161 603.826 449.702 613.339 446.275C622.853 442.848 615.511 423.761 615.511 423.761Z" fill="#04054F"/>
<mask id="mask0_2397_11254" style="mask-type:luminance" maskUnits="userSpaceOnUse" x="589" y="370" width="71" height="77">
<path d="M615.511 423.761C615.511 423.761 629.781 453.233 642.323 438.283C654.865 423.333 633.666 417.705 633.666 417.705C633.666 417.705 659.193 420.733 659.193 406.891C659.193 393.049 641.023 401.691 641.023 401.691C641.023 401.691 664.659 383.284 653.137 375.514C645.13 370.122 625.881 389.637 625.881 389.637C625.881 389.637 633.267 370.551 624.596 370.122C615.924 369.694 610.311 397.378 610.311 397.378C610.311 397.378 605.554 376.962 596.912 382.841C588.27 388.721 603.707 411.382 603.707 411.382C603.707 411.382 592.584 400.391 589.555 408.191C586.527 415.991 603.707 421.161 603.707 421.161C603.707 421.161 603.826 449.702 613.339 446.275C622.853 442.848 615.511 423.761 615.511 423.761Z" fill="white"/>
</mask>
<g mask="url(#mask0_2397_11254)">
<path opacity="0.1" d="M615.511 423.761C615.511 423.761 629.781 453.233 642.323 438.283C654.865 423.333 633.666 417.705 633.666 417.705C633.666 417.705 659.193 420.733 659.193 406.891C659.193 393.049 641.023 401.691 641.023 401.691C641.023 401.691 664.659 383.284 653.137 375.514C645.13 370.122 625.881 389.637 625.881 389.637C625.881 389.637 633.267 370.551 624.596 370.122C615.924 369.694 610.311 397.378 610.311 397.378C610.311 397.378 605.554 376.962 596.912 382.841C588.27 388.721 603.707 411.382 603.707 411.382C603.707 411.382 592.584 400.391 589.555 408.191C586.527 415.991 603.707 421.161 603.707 421.161C603.707 421.161 603.826 449.702 613.339 446.275C622.853 442.848 615.511 423.761 615.511 423.761Z" fill="black"/>
</g>
<path d="M613.782 407.527C593.617 422.078 590.736 472.527 590.736 472.527" stroke="#263238" stroke-linecap="round" stroke-linejoin="round"/>
<path d="M607.828 413.377C615.966 416.512 623.292 421.44 629.263 427.795" stroke="#263238" stroke-linecap="round" stroke-linejoin="round"/>
<path d="M620.296 382.855C620.296 393.876 613.767 407.526 613.767 407.526L618.553 409.003" stroke="#263238" stroke-linecap="round" stroke-linejoin="round"/>
<path d="M622.498 410.186C622.498 410.186 634.656 412.904 643.874 410.186" stroke="#263238" stroke-linecap="round" stroke-linejoin="round"/>
<path d="M572.138 347.816C572.138 347.816 537.999 349.293 540.141 331.004C541.928 315.73 566.096 325.937 566.096 325.937C566.096 325.937 546.271 302.818 559.892 293.689C573.512 284.559 581.666 311.15 581.666 311.15C581.666 311.15 590.353 272.741 605.583 278.872C616.19 283.186 598.921 315.02 598.921 315.02C598.921 315.02 618.997 301.326 625.142 309.555C631.288 317.783 601.595 335.451 601.595 335.451C601.595 335.451 624.817 326.661 624.743 339.055C624.669 351.45 592.17 351.199 592.17 351.199C592.17 351.199 610.325 354.906 604.653 363.017C598.98 371.127 582.494 357.654 582.494 357.654C582.494 357.654 560.261 373.741 557.38 362.086C554.5 350.43 572.138 347.816 572.138 347.816Z" fill="#04054F"/>
<mask id="mask1_2397_11254" style="mask-type:luminance" maskUnits="userSpaceOnUse" x="540" y="278" width="86" height="89">
<path d="M572.138 347.816C572.138 347.816 537.999 349.293 540.141 331.004C541.928 315.73 566.096 325.937 566.096 325.937C566.096 325.937 546.271 302.818 559.892 293.689C573.512 284.559 581.666 311.15 581.666 311.15C581.666 311.15 590.353 272.741 605.583 278.872C616.19 283.186 598.921 315.02 598.921 315.02C598.921 315.02 618.997 301.326 625.142 309.555C631.288 317.783 601.595 335.451 601.595 335.451C601.595 335.451 624.817 326.661 624.743 339.055C624.669 351.45 592.17 351.199 592.17 351.199C592.17 351.199 610.325 354.906 604.653 363.017C598.98 371.127 582.494 357.654 582.494 357.654C582.494 357.654 560.261 373.741 557.38 362.086C554.5 350.43 572.138 347.816 572.138 347.816Z" fill="white"/>
</mask>
<g mask="url(#mask1_2397_11254)">
<path opacity="0.2" d="M572.138 347.816C572.138 347.816 537.999 349.293 540.141 331.004C541.928 315.73 566.096 325.937 566.096 325.937C566.096 325.937 546.271 302.818 559.892 293.689C573.512 284.559 581.666 311.15 581.666 311.15C581.666 311.15 590.353 272.741 605.583 278.872C616.19 283.186 598.921 315.02 598.921 315.02C598.921 315.02 618.997 301.326 625.142 309.555C631.288 317.783 601.595 335.451 601.595 335.451C601.595 335.451 624.817 326.661 624.743 339.055C624.669 351.45 592.17 351.199 592.17 351.199C592.17 351.199 610.325 354.906 604.653 363.017C598.98 371.127 582.494 357.654 582.494 357.654C582.494 357.654 560.261 373.741 557.38 362.086C554.5 350.43 572.138 347.816 572.138 347.816Z" fill="white"/>
</g>
<path d="M576.85 476.662C576.85 476.662 571.399 380.226 590.721 315.641" stroke="#263238" stroke-linecap="round" stroke-linejoin="round"/>
<path d="M553.141 333.251C553.141 333.251 567.529 332.039 584.532 341.376" stroke="#263238" stroke-linecap="round" stroke-linejoin="round"/>
<path d="M565.106 302.877C565.106 302.877 579.495 316.97 585.36 337.223" stroke="#263238" stroke-linecap="round" stroke-linejoin="round"/>
<path d="M586.645 331.256C586.645 331.256 595.996 320.915 607.828 318.256" stroke="#263238" stroke-linecap="round" stroke-linejoin="round"/>
<path d="M613.471 467.119H539.948L545.857 533.788C545.92 534.489 546.243 535.142 546.762 535.618C547.281 536.093 547.96 536.357 548.664 536.358L550.141 552.83C550.207 553.532 550.533 554.185 551.055 554.661C551.577 555.136 552.257 555.4 552.963 555.4H600.457C601.161 555.399 601.839 555.135 602.359 554.659C602.878 554.184 603.201 553.531 603.264 552.83L604.741 536.358C605.447 536.358 606.127 536.094 606.649 535.619C607.17 535.143 607.496 534.491 607.562 533.788L613.471 467.119Z" fill="white" stroke="#263238" stroke-linecap="round" stroke-linejoin="round"/>
<path d="M613.944 472.571H539.476C538.082 472.567 536.747 472.012 535.761 471.026C534.776 470.041 534.221 468.705 534.217 467.312C534.221 465.918 534.776 464.583 535.761 463.597C536.747 462.612 538.082 462.057 539.476 462.053H613.944C615.337 462.057 616.671 462.612 617.654 463.598C618.637 464.584 619.189 465.92 619.189 467.312C619.189 468.704 618.637 470.039 617.654 471.025C616.671 472.011 615.337 472.567 613.944 472.571Z" fill="#263238" stroke="#263238" stroke-linecap="round" stroke-linejoin="round"/>
<path d="M591.18 536.551H596.055" stroke="#263238" stroke-linecap="round" stroke-linejoin="round"/>
<path d="M557.351 536.551H586.29" stroke="#263238" stroke-linecap="round" stroke-linejoin="round"/>
<path d="M109.076 243.552C112.031 236.372 104.807 214.657 101.572 205.749C101.384 205.233 101.072 204.772 100.664 204.405C100.256 204.038 99.7649 203.777 99.2326 203.645C98.7004 203.512 98.1437 203.512 97.6115 203.644C97.0792 203.777 96.5875 204.038 96.1796 204.404C93.2251 207.019 89.6944 212.101 89.1035 221.526C89.1035 221.526 66.5605 261.22 66.5605 279.331C66.5605 296.305 100.124 331.656 100.124 331.656C103.908 330.48 107.107 327.915 109.076 324.476C109.076 324.476 96.5341 293.454 86.799 280.158C86.7842 280.173 105.752 251.499 109.076 243.552Z" fill="#263238"/>
<mask id="mask2_2397_11254" style="mask-type:luminance" maskUnits="userSpaceOnUse" x="66" y="203" width="44" height="129">
<path d="M109.076 243.552C112.031 236.372 104.807 214.657 101.572 205.749C101.384 205.233 101.072 204.772 100.664 204.405C100.256 204.038 99.7649 203.777 99.2326 203.645C98.7004 203.512 98.1437 203.512 97.6115 203.644C97.0792 203.777 96.5875 204.038 96.1796 204.404C93.2251 207.019 89.6944 212.101 89.1035 221.526C89.1035 221.526 66.5605 261.22 66.5605 279.331C66.5605 296.305 100.124 331.656 100.124 331.656C103.908 330.48 107.107 327.915 109.076 324.476C109.076 324.476 96.5341 293.454 86.799 280.158C86.7842 280.173 105.752 251.499 109.076 243.552Z" fill="white"/>
</mask>
<g mask="url(#mask2_2397_11254)">
<path opacity="0.2" d="M105.31 255.163C105.31 255.163 94.5698 232.28 90.5369 234.333C86.504 236.387 76.045 274.973 80.0484 281.118C84.0518 287.264 105.886 330.651 111.351 329.779C116.817 328.908 105.31 255.163 105.31 255.163Z" fill="black"/>
</g>
<path d="M109.076 243.552C112.031 236.372 104.807 214.657 101.572 205.749C101.384 205.233 101.072 204.772 100.664 204.405C100.256 204.038 99.7649 203.777 99.2326 203.645C98.7004 203.512 98.1437 203.512 97.6115 203.644C97.0792 203.777 96.5875 204.038 96.1796 204.404C93.2251 207.019 89.6944 212.101 89.1035 221.526C89.1035 221.526 66.5605 261.22 66.5605 279.331C66.5605 296.305 100.124 331.656 100.124 331.656C103.908 330.48 107.107 327.915 109.076 324.476C109.076 324.476 96.5341 293.454 86.799 280.158C86.7842 280.173 105.752 251.499 109.076 243.552Z" stroke="#263238" stroke-linecap="round" stroke-linejoin="round"/>
<path d="M106.224 321.668L111.291 329.778C111.291 329.778 127.069 334.712 128.708 339.927C130.348 345.142 122.268 352.41 117.466 350.947C112.665 349.485 104.836 335.008 104.836 335.008L98.4541 327.621L106.224 321.668Z" fill="white" stroke="#263238" stroke-linecap="round" stroke-linejoin="round"/>
<path d="M96.2832 329.6L99.6957 333.53C104.495 332.188 108.597 329.058 111.159 324.785L109.091 319.865C109.091 319.865 106.181 326.69 96.2832 329.6Z" fill="#04054F" stroke="#263238" stroke-linecap="round" stroke-linejoin="round"/>
<path d="M116.507 547.024L112.075 565.416C111.928 566.032 111.922 566.673 112.058 567.292C112.194 567.911 112.469 568.491 112.861 568.988C113.253 569.486 113.753 569.888 114.323 570.165C114.893 570.441 115.518 570.585 116.152 570.586H142.034C142.647 570.586 143.252 570.452 143.808 570.194C144.364 569.936 144.857 569.559 145.252 569.091C145.648 568.622 145.936 568.073 146.097 567.482C146.258 566.89 146.288 566.271 146.185 565.667C145.985 564.284 145.497 562.959 144.754 561.776C144.012 560.593 143.029 559.578 141.871 558.797C135.962 554.957 133.155 542.932 133.155 542.932L116.507 547.024Z" fill="#263238" stroke="#263238" stroke-linecap="round" stroke-linejoin="round"/>
<path d="M180.28 550.097C180.28 550.097 176.099 556.109 175.42 566.834C175.398 567.319 175.474 567.804 175.645 568.258C175.815 568.712 176.076 569.128 176.412 569.478C176.747 569.829 177.151 570.108 177.597 570.299C178.044 570.489 178.524 570.587 179.009 570.587H224.908C225.804 570.591 226.679 570.317 227.412 569.802C228.145 569.287 228.699 568.556 228.998 567.712C229.297 566.867 229.325 565.951 229.079 565.089C228.833 564.228 228.326 563.465 227.626 562.905C225.673 561.451 223.358 560.562 220.934 560.334C209.677 558.857 199.706 553.687 197.904 547.039L180.28 550.097Z" fill="#263238" stroke="#263238" stroke-linecap="round" stroke-linejoin="round"/>
<path d="M109.076 324.475C109.076 324.475 103.876 345.984 105.93 392.429L107.259 445.019C107.259 445.019 99.7844 481.95 114.129 548.811C114.129 548.811 118.56 558.709 136.42 546.329L138.489 444.325L157.176 331.654L109.076 324.475Z" fill="#999999"/>
<mask id="mask3_2397_11254" style="mask-type:luminance" maskUnits="userSpaceOnUse" x="105" y="324" width="53" height="229">
<path d="M109.076 324.475C109.076 324.475 103.876 345.984 105.93 392.429L107.259 445.019C107.259 445.019 99.7844 481.95 114.129 548.811C114.129 548.811 118.56 558.709 136.42 546.329L138.489 444.325L157.176 331.654L109.076 324.475Z" fill="white"/>
</mask>
<g mask="url(#mask3_2397_11254)">
<path opacity="0.2" d="M146.244 371.939C146.244 371.939 138.621 402.327 135.548 420.083C132.476 437.84 114.202 436.481 112.001 448.151C109.8 459.822 131.205 446.098 129.122 488.037C127.039 529.977 119.55 552.904 131.309 552.564C143.068 552.224 143.407 519.178 143.407 519.178L150.572 418.458V404.454L152.286 377.863L146.244 371.939Z" fill="black"/>
</g>
<path d="M109.076 324.475C109.076 324.475 103.876 345.984 105.93 392.429L107.259 445.019C107.259 445.019 99.7844 481.95 114.129 548.811C114.129 548.811 118.56 558.709 136.42 546.329L138.489 444.325L157.176 331.654L109.076 324.475Z" stroke="#263238" stroke-linecap="round" stroke-linejoin="round"/>
<path d="M112.001 456.424C111.206 457.475 110.471 458.57 109.8 459.703" stroke="#263238" stroke-linecap="round" stroke-linejoin="round"/>
<path d="M112.932 444.842C112.932 444.842 130.068 440.75 131.235 444.842C132.239 448.402 122.977 444.222 113.833 454.208" stroke="#263238" stroke-linecap="round" stroke-linejoin="round"/>
<path d="M142.64 379.325C155.935 400.79 174.652 443.025 174.652 443.025C174.652 443.025 171.83 447.914 174.652 456.113C174.652 456.113 167.266 484.639 177.976 552.844C177.976 552.844 187.194 558.753 200.519 548.412C200.519 548.412 207.166 445.891 204.611 432.063C202.055 418.236 178.02 326.912 178.02 326.912H125.193" fill="#999999"/>
<mask id="mask4_2397_11254" style="mask-type:luminance" maskUnits="userSpaceOnUse" x="125" y="326" width="81" height="229">
<path d="M142.64 379.325C155.935 400.79 174.652 443.025 174.652 443.025C174.652 443.025 171.83 447.914 174.652 456.113C174.652 456.113 167.266 484.639 177.976 552.844C177.976 552.844 187.194 558.753 200.519 548.412C200.519 548.412 207.166 445.891 204.611 432.063C202.055 418.236 178.02 326.912 178.02 326.912H125.193" fill="white"/>
</mask>
<g mask="url(#mask4_2397_11254)">
<path opacity="0.2" d="M139.641 380.818C139.641 380.818 147.692 384.91 163.129 380.818C178.566 376.726 165.773 394.113 170.885 413.081C175.996 432.049 190.355 440.75 188.05 448.934C185.746 457.118 178.921 459.187 177.458 481.212C175.996 503.238 195.319 543.922 187.711 552.254C180.103 560.586 161.667 540.879 161.667 540.879L146.244 436.452L139.641 380.818Z" fill="black"/>
</g>
<path d="M142.64 379.325C155.935 400.79 174.652 443.025 174.652 443.025C174.652 443.025 171.83 447.914 174.652 456.113C174.652 456.113 167.266 484.639 177.976 552.844C177.976 552.844 187.194 558.753 200.519 548.412C200.519 548.412 207.166 445.891 204.611 432.063C202.055 418.236 178.02 326.912 178.02 326.912H125.193" stroke="#263238" stroke-linecap="round" stroke-linejoin="round"/>
<path d="M184.432 446.644C190.503 445.729 198.259 445.167 197.948 447.915C197.446 452.524 186.618 447.841 180.029 455.597" stroke="#263238" stroke-linecap="round" stroke-linejoin="round"/>
<path d="M177.458 447.916C177.458 447.916 178.522 447.679 180.161 447.369" stroke="#263238" stroke-linecap="round" stroke-linejoin="round"/>
<path d="M219.738 181.95L220.698 172.2C220.698 172.2 218.777 162.051 219.738 158.609C220.698 155.167 229.118 133.348 231.792 134.308C234.466 135.268 227.774 147.131 227.966 150.558C227.966 150.558 231.526 150.75 232.398 153.04C232.398 153.04 235.781 153.616 235.973 156.674C236.799 157.201 237.466 157.942 237.903 158.819C238.34 159.696 238.531 160.675 238.454 161.652C238.085 164.902 231.57 173.707 231.57 173.707L231.955 186.337L219.738 181.95Z" fill="white" stroke="#263238" stroke-linecap="round" stroke-linejoin="round"/>
<path d="M163.099 165.479C163.099 165.479 159.332 158.092 158.786 155.315C158.387 153.38 159.185 149.406 158.786 147.456C157.87 142.95 151.562 130.556 151.562 130.556C151.309 130.023 150.922 129.565 150.439 129.227L146.746 133.777H136.73L121.426 153.985L128.96 172.126L126.759 174.741C128.103 176.07 128.96 176.839 128.96 176.839L126.759 190.001L148.327 192.187L148.829 183.841H155.388C156.273 183.841 157.123 183.489 157.749 182.863C158.375 182.237 158.727 181.388 158.727 180.502V169.068L161.681 168.211C161.966 168.145 162.234 168.018 162.465 167.839C162.696 167.659 162.886 167.432 163.02 167.172C163.155 166.912 163.232 166.626 163.246 166.334C163.259 166.042 163.209 165.75 163.099 165.479Z" fill="white" stroke="#263238" stroke-linecap="round" stroke-linejoin="round"/>
<path d="M110.938 158.904C119.624 171.697 128.96 176.838 128.96 176.838L132.639 167.694C132.639 167.694 125.252 166.911 126.36 159.731C128.089 149.139 136.701 158.668 136.701 158.668L138.562 150.484C138.562 150.484 143.157 145.55 142.832 143.821C142.586 142.566 142.26 141.327 141.857 140.113C141.857 140.113 158.476 124.292 156.718 115.473C156.718 115.473 142.876 118.279 126.36 121.382C106.255 125.016 101.129 144.486 110.938 158.904Z" fill="#263238" stroke="#263238" stroke-linecap="round" stroke-linejoin="round"/>
<path d="M155.448 183.84C155.448 183.84 143.881 181.875 139.464 176.453C135.047 171.032 138.562 176.837 140.631 180.161C145.062 187.267 148.829 183.84 155.448 183.84Z" fill="#263238"/>
<path d="M148.327 167.207C149.125 168.11 150.132 168.805 151.26 169.23C152.387 169.654 153.602 169.797 154.798 169.644" stroke="#263238" stroke-width="0.75" stroke-linecap="round" stroke-linejoin="round"/>
<path d="M156.747 153.068C156.747 154.102 156.363 154.93 155.875 154.93C155.388 154.93 155.019 154.102 155.019 153.068C155.019 152.034 155.403 151.207 155.875 151.207C156.348 151.207 156.747 152.049 156.747 153.068Z" fill="#263238"/>
<path d="M156.585 147.632C155.389 147.369 154.138 147.54 153.056 148.114C151.974 148.687 151.13 149.626 150.676 150.764" stroke="#263238" stroke-width="0.75" stroke-linecap="round" stroke-linejoin="round"/>
<path d="M115.487 195.746C115.487 195.746 115.487 185.642 132.904 187.208C154.073 189.128 162.612 199.971 162.612 199.971L115.487 195.746Z" fill="#04054F" stroke="#263238" stroke-linecap="round" stroke-linejoin="round"/>
<path d="M149.641 193.93C162.833 195.408 185.834 198.584 184.46 234.053C183.087 269.522 177.975 326.884 177.975 326.884C177.975 326.884 112.001 355.07 104.511 328.922C104.511 328.922 107.938 299.377 97.0067 253.39C86.075 207.403 91.0238 187.534 149.641 193.93Z" fill="#263238"/>
<mask id="mask5_2397_11254" style="mask-type:luminance" maskUnits="userSpaceOnUse" x="92" y="192" width="93" height="149">
<path d="M149.641 193.93C162.833 195.408 185.834 198.584 184.46 234.053C183.087 269.522 177.975 326.884 177.975 326.884C177.975 326.884 112.001 355.07 104.511 328.922C104.511 328.922 107.938 299.377 97.0067 253.39C86.075 207.403 91.0238 187.534 149.641 193.93Z" fill="white"/>
</mask>
<g mask="url(#mask5_2397_11254)">
<path opacity="0.2" d="M187.799 293.408C187.799 293.408 179.187 295.476 152.803 281.117C111.44 258.56 106.801 225.454 95.1898 230.89C83.5786 236.327 106.668 343.088 106.668 343.088L149.509 345.777H189.217L187.799 293.408Z" fill="black"/>
</g>
<path d="M149.641 193.93C162.833 195.408 185.834 198.584 184.46 234.053C183.087 269.522 177.975 326.884 177.975 326.884C177.975 326.884 112.001 355.07 104.511 328.922C104.511 328.922 107.938 299.377 97.0067 253.39C86.075 207.403 91.0238 187.534 149.641 193.93Z" stroke="#263238" stroke-linecap="round" stroke-linejoin="round"/>
<path d="M73.4885 278.68C72.7499 278.857 71.9669 279.079 71.1396 279.344" stroke="#7F7F7F" stroke-width="0.75" stroke-linecap="round" stroke-linejoin="round"/>
<path d="M84.3909 279.345C84.3909 279.345 81.6137 277.365 75.5273 278.281" stroke="#7F7F7F" stroke-width="0.75" stroke-linecap="round" stroke-linejoin="round"/>
<path d="M154.738 194.58C154.738 194.58 177.591 194.727 187.829 200.873C187.829 200.873 205.925 197.8 213.105 200.873L219.59 176.631C219.59 176.631 228.129 172.524 232.221 178.669C232.221 178.669 235.293 215.601 230.182 218.629C225.071 221.658 184.476 230.92 184.476 230.92C184.476 230.92 158.55 223.12 154.738 194.58Z" fill="#263238"/>
<mask id="mask6_2397_11254" style="mask-type:luminance" maskUnits="userSpaceOnUse" x="154" y="175" width="80" height="56">
<path d="M154.738 194.58C154.738 194.58 177.591 194.727 187.829 200.873C187.829 200.873 205.925 197.8 213.105 200.873L219.59 176.631C219.59 176.631 228.129 172.524 232.221 178.669C232.221 178.669 235.293 215.601 230.182 218.629C225.071 221.658 184.476 230.92 184.476 230.92C184.476 230.92 158.55 223.12 154.738 194.58Z" fill="white"/>
</mask>
<g mask="url(#mask6_2397_11254)">
<path opacity="0.2" d="M184.283 224.656C184.283 224.656 183.086 215.157 200.533 216.384C217.979 217.61 231.555 217.949 233.284 209.751C235.012 201.552 254.143 187.37 248.056 213.917L241.896 240.507L205.201 242.93L184.283 224.656Z" fill="black"/>
</g>
<path d="M154.738 194.58C154.738 194.58 177.591 194.727 187.829 200.873C187.829 200.873 205.925 197.8 213.105 200.873L219.59 176.631C219.59 176.631 228.129 172.524 232.221 178.669C232.221 178.669 235.293 215.601 230.182 218.629C225.071 221.658 184.476 230.92 184.476 230.92C184.476 230.92 158.55 223.12 154.738 194.58Z" stroke="#263238" stroke-linecap="round" stroke-linejoin="round"/>
<path d="M217.345 202.689C219.318 204.299 221.014 206.22 222.367 208.377" stroke="#7F7F7F" stroke-width="0.75" stroke-linecap="round" stroke-linejoin="round"/>
<path d="M213.651 201.109C214.208 201.107 214.758 201.228 215.262 201.464" stroke="#7F7F7F" stroke-width="0.75" stroke-linecap="round" stroke-linejoin="round"/>
<path d="M96.519 242.931C95.7213 235.279 93.5645 221.23 94.4066 211.51" stroke="#7F7F7F" stroke-width="0.75" stroke-linecap="round" stroke-linejoin="round"/>
<path d="M90.4775 224.656C90.4775 224.656 94.4661 248.292 96.3866 248.292" stroke="#7F7F7F" stroke-width="0.75" stroke-linecap="round" stroke-linejoin="round"/>
<path d="M104.821 312.436V325.701" stroke="#7F7F7F" stroke-width="0.75" stroke-linecap="round" stroke-linejoin="round"/>
<path d="M127.335 345.807C127.335 345.807 129.477 360.801 136.066 370.063L127.335 345.807Z" fill="#999999"/>
<path d="M127.335 345.807C127.335 345.807 129.477 360.801 136.066 370.063" stroke="#263238" stroke-linecap="round" stroke-linejoin="round"/>
<path d="M217.728 173.839L216.251 179.335C216.251 179.335 226.237 176.971 235.071 181.713L234.17 175.287C234.17 175.287 228.453 171.018 217.728 173.839Z" fill="#04054F" stroke="#263238" stroke-linecap="round" stroke-linejoin="round"/>
<path d="M163.174 315.508C155.979 318.699 141.709 321.505 113.686 318.743" stroke="#7F7F7F" stroke-width="0.75" stroke-linecap="round" stroke-linejoin="round"/>
<path d="M170.382 309.629C169.77 310.986 168.787 312.144 167.546 312.968" stroke="#7F7F7F" stroke-width="0.75" stroke-linecap="round" stroke-linejoin="round"/>
<path d="M190.192 201.566L201.848 208.775" stroke="#7F7F7F" stroke-width="0.75" stroke-linecap="round" stroke-linejoin="round"/>
<path d="M171.992 262.239C179.443 253.471 184.076 242.659 185.288 231.217" stroke="#7F7F7F" stroke-width="0.75" stroke-linecap="round" stroke-linejoin="round"/>
<path d="M165.197 260.096C155.726 271.034 143.896 279.681 130.6 285.386" stroke="#7F7F7F" stroke-width="0.75" stroke-linecap="round" stroke-linejoin="round"/>
<path d="M170.988 252.592C169.88 254.187 168.713 255.738 167.487 257.26" stroke="#7F7F7F" stroke-width="0.75" stroke-linecap="round" stroke-linejoin="round"/>
<path d="M174.548 247.244C173.987 248.19 173.396 249.105 172.805 250.021" stroke="#7F7F7F" stroke-width="0.75" stroke-linecap="round" stroke-linejoin="round"/>
<path d="M110.687 303.498C125.637 310.33 142.269 312.606 158.505 310.042" stroke="#7F7F7F" stroke-width="0.75" stroke-linecap="round" stroke-linejoin="round"/>
<path d="M150.676 120.053C152.202 119.388 153.657 118.572 155.019 117.615" stroke="#7F7F7F" stroke-width="0.75" stroke-linecap="round" stroke-linejoin="round"/>
<path d="M114.689 154.931C114.689 154.931 106.491 139.893 115.96 131.694C123.184 125.46 136.065 124.869 146.376 121.648" stroke="#7F7F7F" stroke-width="0.75" stroke-linecap="round" stroke-linejoin="round"/>
<path d="M121.588 144.251C121.128 142.884 121.052 141.416 121.37 140.009C121.688 138.602 122.387 137.31 123.39 136.273C129.019 130.926 145.446 130.364 153.63 122.225" stroke="#7F7F7F" stroke-width="0.75" stroke-linecap="round" stroke-linejoin="round"/>
<path d="M124.927 151.208C124.249 150.273 123.646 149.285 123.125 148.254" stroke="#7F7F7F" stroke-width="0.75" stroke-linecap="round" stroke-linejoin="round"/>
</svg>
