<svg width="105" height="108" viewBox="0 0 105 108" fill="none" xmlns="http://www.w3.org/2000/svg">
<path d="M96.2688 44.0438C100.044 41.8679 101.344 37.0315 99.1636 33.2638C98.6457 32.3638 97.9546 31.5754 97.1302 30.944C96.3058 30.3127 95.3646 29.8509 94.3607 29.5854C93.6892 29.4052 92.9969 29.3139 92.3016 29.314C90.9315 29.314 89.5782 29.6717 88.3596 30.375C87.4584 30.8901 86.6684 31.579 86.0353 32.4017C85.4022 33.2244 84.9387 34.1646 84.6716 35.1677C84.4001 36.1683 84.3302 37.2129 84.466 38.2407C84.6017 39.2686 84.9404 40.2592 85.4624 41.155C87.6431 44.9221 92.4945 46.2215 96.2682 44.0438H96.2688ZM101.177 52.1147L103.083 55.4091L93.8227 60.7416L91.5144 48.8497C87.7558 48.5873 84.184 46.5504 82.1615 43.0565C80.5948 40.3522 80.1809 37.1986 80.989 34.1804C81.3853 32.6945 82.0723 31.302 83.0104 30.0834C83.9484 28.8648 85.1189 27.8444 86.4539 27.0812C87.7857 26.3085 89.2574 25.8073 90.784 25.6066C92.3105 25.4059 93.8618 25.5096 95.348 25.9118C96.8358 26.3046 98.2309 26.9886 99.4526 27.9241C100.674 28.8597 101.698 30.0283 102.465 31.3623C105.696 36.9458 103.773 44.1139 98.1745 47.3376C97.2824 47.8524 96.3262 48.2471 95.3306 48.5112L96.5468 54.7795L101.177 52.1147ZM87.8528 75.1539C86.9544 74.6326 85.9617 74.2944 84.9319 74.1589C83.9021 74.0233 82.8556 74.0932 81.8529 74.3643C80.8489 74.6295 79.9074 75.0912 79.0829 75.7226C78.2584 76.3539 77.5672 77.1425 77.0494 78.0427C75.5589 80.6176 75.7266 83.676 77.1674 86.0609L78.8066 87.9457L78.7688 87.9798C79.1307 88.2878 79.5177 88.5789 79.9448 88.8245V88.8222C80.8433 89.3435 81.8362 89.6817 82.8661 89.8172C83.896 89.9528 84.9425 89.8829 85.9453 89.6117C86.9491 89.3462 87.8904 88.8845 88.7148 88.2531C89.5392 87.6217 90.2303 86.8333 90.7482 85.9333C92.9289 82.1657 91.6289 77.3298 87.8528 75.1539ZM94.0498 87.8354C93.2826 89.1693 92.2585 90.3377 91.0369 91.2733C89.8153 92.2088 88.4203 92.8929 86.9326 93.286C85.4464 93.6876 83.8953 93.7912 82.3688 93.5907C80.8423 93.3902 79.3706 92.8896 78.0385 92.1177V92.1165C77.252 91.6613 76.5221 91.1147 75.8638 90.4882L73.1266 92.8564L77.7546 95.5188L75.8483 98.8144L66.5827 93.4801L73.5537 87.4532C71.7349 84.0145 71.6588 79.7489 73.7478 76.1406C75.3127 73.4345 77.8402 71.5007 80.865 70.6919C82.3512 70.2892 83.9024 70.1851 85.429 70.3856C86.9556 70.5862 88.4274 71.0873 89.7591 71.8601C91.0942 72.6232 92.2645 73.6439 93.202 74.8629C94.1395 76.0819 94.8256 77.4749 95.2204 78.9611C95.623 80.4441 95.7268 81.9923 95.5258 83.5158C95.3249 85.0393 94.8231 86.5076 94.0498 87.8354ZM52.5407 95.9831C52.5407 91.6295 48.9899 88.0883 44.6285 88.0883C40.2671 88.0883 36.7187 91.6295 36.7187 95.9831C36.7187 100.334 40.2677 103.875 44.6285 103.875C48.9899 103.875 52.5407 100.334 52.5407 95.9831ZM56.3533 95.9831C56.3533 102.432 51.0939 107.679 44.6291 107.679C38.1649 107.679 32.9061 102.432 32.9061 95.9831C32.9061 95.0754 33.0188 94.1972 33.2171 93.3489L28.3033 91.6505V97.3807H24.4907V86.3084L34.677 89.8304C36.7469 86.5079 40.4277 84.2846 44.6285 84.2846C51.0939 84.2846 56.3527 89.5315 56.3527 95.9831H56.3533ZM19.2199 65.4487C18.7023 64.5487 18.0114 63.7603 17.1872 63.1289C16.3631 62.4975 15.4219 62.0357 14.4182 61.7703C13.4151 61.4996 12.3683 61.43 11.3382 61.5655C10.3081 61.701 9.31493 62.0389 8.41595 62.5599C7.51518 63.0751 6.72567 63.7641 6.09321 64.5868C5.46075 65.4095 4.99791 66.3496 4.73155 67.3526C4.45918 68.353 4.38883 69.3976 4.5246 70.4255C4.66038 71.4534 4.99956 72.4439 5.52235 73.3393C6.03975 74.2394 6.73056 75.028 7.55477 75.6594C8.37898 76.2908 9.32023 76.7525 10.324 77.0177C12.3598 77.5635 14.4931 77.2861 16.3269 76.2287C20.1024 74.0528 21.4024 69.2163 19.2199 65.4487ZM18.2326 79.5225C16.4575 80.5517 14.4422 81.0942 12.3903 81.0951C11.3598 81.0946 10.3338 80.9591 9.33855 80.6919C7.85053 80.2991 6.45518 79.6151 5.23322 78.6796C4.01127 77.744 2.98696 76.5754 2.21957 75.2414C1.44577 73.9137 0.943782 72.4454 0.742811 70.9218C0.541841 69.3983 0.645906 67.85 1.04895 66.3671C1.4438 64.8808 2.12989 63.4878 3.06739 62.2688C4.00489 61.0498 5.17515 60.0292 6.51025 59.2661V59.2643C7.05536 58.9558 7.62385 58.6906 8.21046 58.4711L7.02846 52.3903L2.41966 55.0515L0.509766 51.7595L9.75252 46.4228L11.9422 57.7043C13.1091 57.6628 14.2756 57.7948 15.4037 58.096C16.8918 58.4891 18.2872 59.1732 19.5092 60.1089C20.7313 61.0445 21.7557 62.2131 22.5233 63.5472C25.7542 69.1307 23.8293 76.2988 18.2326 79.5225ZM21.9362 20.5787C20.7383 19.8868 19.3793 19.5227 17.996 19.5231C15.2593 19.5231 12.5946 20.9381 11.1304 23.4675C10.6084 24.3636 10.2696 25.3545 10.1339 26.3827C9.99813 27.4108 10.0681 28.4557 10.3396 29.4566C10.607 30.4594 11.0706 31.3991 11.7037 32.2215C12.3367 33.0439 13.1266 33.7325 14.0276 34.2475C14.9259 34.7694 15.9188 35.1079 16.9488 35.2434C17.9788 35.3788 19.0255 35.3085 20.0281 35.0365C21.0318 34.7717 21.973 34.3105 22.7972 33.6795C23.6214 33.0485 24.3123 32.2603 24.8298 31.3605C27.0123 27.591 25.7123 22.7546 21.9362 20.5787ZM28.0469 21.4366C30.1377 24.9568 30.3246 29.4716 28.1326 33.2626C27.3649 34.5958 26.3407 35.7637 25.1191 36.6988C23.8976 37.6339 22.5028 38.3177 21.0154 38.7107C19.529 39.1113 17.9781 39.2143 16.4518 39.0138C14.9255 38.8133 13.4538 38.3133 12.1213 37.5425C10.7863 36.7788 9.61601 35.758 8.67808 34.5392C7.74015 33.3203 7.05321 31.9276 6.65702 30.4415C6.25445 28.9582 6.15079 27.4097 6.35206 25.886C6.55334 24.3623 7.05553 22.8938 7.82944 21.566C11.0621 15.9801 18.2458 14.0594 23.8425 17.2849C24.4751 17.6503 25.0527 18.0697 25.59 18.5268L30.4547 14.3122L25.8399 11.6475L27.7498 8.35366L36.9829 13.6885L28.0469 21.4366ZM66.5654 12.0207C66.5654 7.6689 63.0163 4.12588 58.6532 4.12588C54.2918 4.12588 50.741 7.6689 50.741 12.0207C50.741 16.3737 54.2918 19.9131 58.6532 19.9131C63.0163 19.9131 66.5654 16.3737 66.5654 12.0207ZM78.791 20.8333L69.0186 17.4712C67.0494 21.1814 63.144 23.7167 58.6532 23.7167C52.1878 23.7167 46.929 18.4699 46.929 12.0207C46.929 5.57148 52.1878 0.322266 58.6538 0.322266C65.1174 0.322266 70.378 5.57148 70.378 12.0207C70.374 12.637 70.3205 13.2521 70.218 13.8599L74.9796 15.499V10.6206H78.7916L78.791 20.8333ZM59.9472 39.8634L56.4551 38.3357L43.0253 68.8569L46.5168 70.3858L59.9472 39.8634ZM74.4392 54.4236L63.4339 43.6999L60.7728 46.421L68.5933 54.0432L59.8484 60.5913L62.1369 63.6322L74.4392 54.4242V54.4236ZM39.7238 62.1794L28.7197 51.4569L41.022 42.2465L43.3105 45.2893L34.5638 51.8356L42.3849 59.4578L39.7238 62.1794Z" fill="#F9CD0B"/>
</svg>
