<svg width="88" height="140" viewBox="0 0 88 140" fill="none" xmlns="http://www.w3.org/2000/svg">
<path d="M24.9453 26.2173H30.3828V21.0692H24.9453V26.2173ZM19.5078 28.7914V18.4951C19.5078 17.8124 19.7943 17.1577 20.3041 16.6749C20.814 16.1922 21.5055 15.921 22.2266 15.921H33.1016C33.8226 15.921 34.5141 16.1922 35.024 16.6749C35.5339 17.1577 35.8203 17.8124 35.8203 18.4951V28.7914C35.8203 29.4741 35.5339 30.1288 35.024 30.6115C34.5141 31.0943 33.8226 31.3655 33.1016 31.3655H22.2266C21.5055 31.3655 20.814 31.0943 20.3041 30.6115C19.7943 30.1288 19.5078 29.4741 19.5078 28.7914ZM46.6953 10.7729H52.1328V5.62471H46.6953V10.7729ZM41.2578 13.3469V3.05064C41.2578 2.36795 41.5443 1.71323 42.0541 1.23049C42.564 0.74776 43.2555 0.476563 43.9766 0.476562H54.8516C55.5726 0.476563 56.2641 0.74776 56.774 1.23049C57.2839 1.71323 57.5703 2.36795 57.5703 3.05064V13.3469C57.5703 14.0296 57.2839 14.6843 56.774 15.1671C56.2641 15.6498 55.5726 15.921 54.8516 15.921H43.9766C43.2555 15.921 42.564 15.6498 42.0541 15.1671C41.5443 14.6843 41.2578 14.0296 41.2578 13.3469ZM52.1328 36.5136H57.5703V31.3655H52.1328V36.5136ZM49.4141 26.2173H60.2891C61.0101 26.2173 61.7016 26.4885 62.2115 26.9712C62.7214 27.454 63.0078 28.1087 63.0078 28.7914V39.0877C63.0078 39.7704 62.7214 40.4251 62.2115 40.9078C61.7016 41.3905 61.0101 41.6618 60.2891 41.6618H49.4141C48.693 41.6618 48.0015 41.3905 47.4916 40.9078C46.9817 40.4251 46.6953 39.7704 46.6953 39.0877V28.7914C46.6953 28.1087 46.9817 27.454 47.4916 26.9712C48.0015 26.4885 48.693 26.2173 49.4141 26.2173ZM43.9766 53.2451C39.189 53.2451 21.8298 53.052 10.5385 50.4241L38.1202 91.7685C38.3921 92.1804 38.5391 92.6566 38.5391 93.1432V99.0041C42.3564 100.052 45.8822 100.063 49.4141 99.0459V93.1432C49.4141 92.6566 49.5611 92.1804 49.8329 91.7685L77.4146 50.4241C66.1233 53.052 48.7641 53.2451 43.9766 53.2451ZM1.16729 46.0168C0.73484 45.4199 0.476562 44.7764 0.476562 44.0733C0.476562 36.7501 25.9895 35.3963 41.1983 35.2394L41.2553 40.3876C22.5723 40.5806 11.1562 42.5989 7.1324 44.1023C11.4008 45.7907 23.9751 48.0969 43.9766 48.0969C63.9271 48.0969 76.4843 45.8036 80.7859 44.1176C79.0297 43.4459 75.3917 42.4525 68.1165 41.6103L68.7741 36.5007C85.2557 38.4055 87.4766 41.3963 87.4766 44.0733C87.4766 44.7764 87.2183 45.4199 86.7858 46.0168L54.8516 93.8897V100.865C54.8518 101.379 54.6895 101.881 54.3858 102.307C54.0821 102.733 53.6507 103.063 53.1473 103.255C50.1804 104.381 47.2008 104.943 44.1558 104.943C41.138 104.943 38.0607 104.39 34.8798 103.28C34.3584 103.098 33.9085 102.769 33.5906 102.337C33.2726 101.905 33.102 101.392 33.1016 100.865V93.8897L1.16729 46.0168ZM62.8014 120.472C63.0071 120.942 63.0608 121.46 62.9557 121.96C62.8506 122.459 62.5914 122.918 62.2109 123.278L45.8984 138.722C45.6463 138.961 45.3468 139.151 45.017 139.281C44.6872 139.41 44.3336 139.477 43.9766 139.477C43.6195 139.477 43.2659 139.41 42.9361 139.281C42.6063 139.151 42.3068 138.961 42.0547 138.722L25.7422 123.278C25.3623 122.918 25.1035 122.459 24.9987 121.96C24.8939 121.461 24.9478 120.943 25.1535 120.473C25.3591 120.003 25.7074 119.601 26.1543 119.318C26.6011 119.035 27.1265 118.884 27.6641 118.884H35.8203V111.162H41.2578V121.458C41.2578 122.141 40.9714 122.795 40.4615 123.278C39.9516 123.761 39.2601 124.032 38.5391 124.032H34.2273L43.9766 133.263L53.7258 124.032H49.4141C48.693 124.032 48.0015 123.761 47.4916 123.278C46.9817 122.795 46.6953 122.141 46.6953 121.458V111.162H52.1328V118.884H60.2891C61.3876 118.884 62.3825 119.511 62.8014 120.472Z" fill="#F9CD0B"/>
</svg>
