<svg width="106" height="95" viewBox="0 0 106 95" fill="none" xmlns="http://www.w3.org/2000/svg">
<path d="M5.2998 12.1634V19.9929H101.472L101.428 12.1908C101.436 10.1164 100.525 8.12379 98.8935 6.65068C97.2624 5.17757 95.0452 4.34434 92.7287 4.33398H14.0427C11.7243 4.33502 9.50118 5.16024 7.86182 6.62832C6.22246 8.09641 5.30096 10.0873 5.2998 12.1634ZM18.4141 16.0782C17.5496 16.0782 16.7044 15.8486 15.9855 15.4184C15.2666 14.9883 14.7063 14.3769 14.3755 13.6615C14.0446 12.9462 13.958 12.1591 14.1267 11.3997C14.2954 10.6403 14.7117 9.94279 15.3231 9.39531C15.9344 8.84783 16.7133 8.47498 17.5613 8.32393C18.4093 8.17288 19.2882 8.25041 20.087 8.5467C20.8858 8.843 21.5685 9.34476 22.0489 9.98853C22.5292 10.6323 22.7856 11.3892 22.7856 12.1634C22.7856 13.2017 22.325 14.1974 21.5052 14.9316C20.6854 15.6657 19.5735 16.0782 18.4141 16.0782ZM31.5285 16.0782C30.6639 16.0782 29.8187 15.8486 29.0998 15.4184C28.381 14.9883 27.8207 14.3769 27.4898 13.6615C27.1589 12.9462 27.0724 12.1591 27.241 11.3997C27.4097 10.6403 27.826 9.94279 28.4374 9.39531C29.0488 8.84783 29.8277 8.47498 30.6757 8.32393C31.5236 8.17288 32.4026 8.25041 33.2014 8.5467C34.0001 8.843 34.6829 9.34476 35.1632 9.98853C35.6435 10.6323 35.8999 11.3892 35.8999 12.1634C35.8953 13.2004 35.4333 14.1938 34.6145 14.927C33.7957 15.6603 32.6864 16.074 31.5285 16.0782ZM53.3857 39.5665C49.9274 39.5665 46.5467 40.4849 43.6711 42.2055C40.7956 43.9262 38.5544 46.3718 37.231 49.233C35.9075 52.0943 35.5612 55.2428 36.2359 58.2804C36.9106 61.3179 38.576 64.108 41.0214 66.298C43.4668 68.4879 46.5825 69.9793 49.9744 70.5835C53.3663 71.1877 56.8821 70.8776 60.0772 69.6924C63.2724 68.5072 66.0033 66.5002 67.9246 63.9251C69.846 61.35 70.8715 58.3225 70.8715 55.2255H53.3857V39.5665Z" fill="#F9CD0B"/>
<path d="M5.29988 23.9082V51.3113V79.4262C5.29988 81.5027 5.00531 83.652 6.64492 85.1203C8.28453 86.5886 9.33506 86.5439 14.0428 86.5439H95.7552C98.0739 86.5439 98.8233 86.5886 100.463 85.1203C100.799 84.7644 101.135 84.4086 101.472 82.6291V23.9082H5.29988ZM98.911 82.6291H53.0495H7.65372V54.1584V27.467H98.911V82.6291Z" fill="#F9CD0B"/>
</svg>
