<svg width="14" height="14" viewBox="0 0 14 14" fill="none" xmlns="http://www.w3.org/2000/svg">
<path d="M8.8179 0C7.99921 0.000733842 7.19229 0.195013 6.46304 0.566974C5.73378 0.938936 5.10287 1.47803 4.62181 2.14025C4.14074 2.80247 3.82317 3.56903 3.69501 4.37735C3.56686 5.18567 3.63176 6.01283 3.88442 6.7913L0.15172 10.522C0.103567 10.5702 0.0653832 10.6274 0.0393506 10.6904C0.013318 10.7533 -5.34188e-05 10.8208 1.60381e-07 10.8889V13.4815C1.60381e-07 13.619 0.0546487 13.7509 0.151924 13.8481C0.249199 13.9454 0.381132 14 0.5187 14H3.1122C3.24977 14 3.3817 13.9454 3.47898 13.8481C3.57625 13.7509 3.6309 13.619 3.6309 13.4815V12.4444H4.6683C4.80587 12.4444 4.9378 12.3898 5.03508 12.2926C5.13235 12.1953 5.187 12.0634 5.187 11.9259V10.8889H6.2244C6.29254 10.8889 6.36002 10.8756 6.42299 10.8496C6.48595 10.8235 6.54317 10.7854 6.59138 10.7372L7.21123 10.1169C7.92413 10.3483 8.67873 10.4225 9.42306 10.3344C10.1674 10.2463 10.8838 9.99792 11.5229 9.60647C12.162 9.21502 12.7087 8.68975 13.1252 8.06684C13.5418 7.44394 13.8183 6.73818 13.9358 5.99817C14.0534 5.25817 14.0091 4.50149 13.806 3.78024C13.6029 3.059 13.2458 2.39032 12.7594 1.82025C12.273 1.25018 11.6688 0.792263 10.9883 0.478029C10.3079 0.163794 9.56744 0.000708238 8.8179 0ZM10.1147 4.92593C9.90947 4.92593 9.7089 4.8651 9.5383 4.75115C9.3677 4.6372 9.23474 4.47524 9.15622 4.28575C9.0777 4.09625 9.05716 3.88774 9.09718 3.68657C9.13721 3.48541 9.23602 3.30063 9.3811 3.15559C9.52618 3.01056 9.71103 2.91179 9.91226 2.87178C10.1135 2.83176 10.3221 2.8523 10.5116 2.93079C10.7012 3.00928 10.8632 3.1422 10.9772 3.31274C11.0912 3.48328 11.1521 3.68378 11.1521 3.88889C11.1521 4.16393 11.0428 4.4277 10.8482 4.62218C10.6537 4.81667 10.3898 4.92593 10.1147 4.92593Z" fill="black"/>
</svg>
