<svg width="19" height="7" viewBox="0 0 19 7" fill="none" xmlns="http://www.w3.org/2000/svg">
<path d="M9.13124 6.03874C9.73668 6.03874 10.3173 5.76656 10.7454 5.2821C11.1735 4.79763 11.4141 4.14055 11.4141 3.4554C11.4141 2.77026 11.1735 2.11318 10.7454 1.62871C10.3173 1.14424 9.73668 0.87207 9.13124 0.87207C8.52581 0.87207 7.94516 1.14424 7.51705 1.62871C7.08894 2.11318 6.84843 2.77026 6.84843 3.4554C6.84843 4.14055 7.08894 4.79763 7.51705 5.2821C7.94516 5.76656 8.52581 6.03874 9.13124 6.03874ZM2.28281 6.03874C2.88825 6.03874 3.46889 5.76656 3.897 5.2821C4.32511 4.79763 4.56562 4.14055 4.56562 3.4554C4.56562 2.77026 4.32511 2.11318 3.897 1.62871C3.46889 1.14424 2.88825 0.87207 2.28281 0.87207C1.67737 0.87207 1.09673 1.14424 0.66862 1.62871C0.24051 2.11318 0 2.77026 0 3.4554C0 4.14055 0.24051 4.79763 0.66862 5.2821C1.09673 5.76656 1.67737 6.03874 2.28281 6.03874ZM15.9797 6.03874C16.5851 6.03874 17.1658 5.76656 17.5939 5.2821C18.022 4.79763 18.2625 4.14055 18.2625 3.4554C18.2625 2.77026 18.022 2.11318 17.5939 1.62871C17.1658 1.14424 16.5851 0.87207 15.9797 0.87207C15.3742 0.87207 14.7936 1.14424 14.3655 1.62871C13.9374 2.11318 13.6969 2.77026 13.6969 3.4554C13.6969 4.14055 13.9374 4.79763 14.3655 5.2821C14.7936 5.76656 15.3742 6.03874 15.9797 6.03874Z" fill="black" fill-opacity="0.2"/>
</svg>
