<svg width="19" height="13" viewBox="0 0 19 13" fill="none" xmlns="http://www.w3.org/2000/svg">
<path d="M7.53822 8.43538V9.65683M12.4427 4.85375V3.3625M12.4427 4.85375L11.5393 5.97006M12.4427 4.85375L11.1346 4.03507M12.4427 4.85375L13.346 5.97006M12.4427 4.85375L13.75 4.03507M16.6927 5.04083V3.55035M16.6927 5.04083L15.7893 6.15792M16.6927 5.04083L15.3846 4.22138M16.6927 5.04083L17.596 6.15792M16.6927 5.04083L18 4.22138M11.2167 7.6453V11.1852C11.2167 11.6367 10.8523 12 10.3995 12H4.67775C4.22491 12 3.86047 11.6367 3.86047 11.1852V6.7037C3.86047 6.25223 4.22491 5.88889 4.67775 5.88889H9.45425M1 3.44444C1 2.79614 1.25832 2.17438 1.71813 1.71596C2.17793 1.25754 2.80157 1 3.45183 1C4.1021 1 4.72573 1.25754 5.18554 1.71596C5.64535 2.17438 5.90367 2.79614 5.90367 3.44444V4.25849M1 3.24113V4.25849" stroke="black" stroke-width="1.45833" stroke-linecap="round" stroke-linejoin="round"/>
</svg>
