<svg width="16" height="20" viewBox="0 0 16 20" fill="none" xmlns="http://www.w3.org/2000/svg">
<path d="M6.77958 11.849C7.13445 12.2509 7.13445 12.9104 6.77958 13.3123C6.44201 13.7141 5.88806 13.7141 5.5505 13.3123C4.73981 12.3457 4.28447 11.0356 4.28447 9.66966C4.28447 8.30373 4.73981 6.99363 5.5505 6.02705L8.61454 2.37929C9.42645 1.41415 10.5269 0.87207 11.6743 0.87207C12.8216 0.87207 13.9221 1.41415 14.734 2.37929C15.5447 3.34587 16 4.65597 16 6.0219C16 7.38783 15.5447 8.69793 14.734 9.66451L13.4443 11.1999C13.453 10.3549 13.3404 9.50994 13.0981 8.7062L13.5049 8.21159C13.7475 7.92583 13.9402 7.58562 14.0716 7.21065C14.2031 6.83567 14.2708 6.43338 14.2708 6.02705C14.2708 5.62072 14.2031 5.21843 14.0716 4.84345C13.9402 4.46848 13.7475 4.12827 13.5049 3.84251C13.2649 3.55364 12.9791 3.32431 12.6641 3.1678C12.3492 3.01129 12.0112 2.9307 11.6699 2.9307C11.3286 2.9307 10.9907 3.01129 10.6757 3.1678C10.3608 3.32431 10.075 3.55364 9.83496 3.84251L6.77958 7.47997C6.53693 7.76573 6.3443 8.10594 6.21283 8.48091C6.08137 8.85589 6.01367 9.25818 6.01367 9.66451C6.01367 10.0708 6.08137 10.4731 6.21283 10.8481C6.3443 11.2231 6.53693 11.5633 6.77958 11.849ZM9.22042 7.47997C9.55799 7.0781 10.1119 7.0781 10.4495 7.47997C11.2602 8.44656 11.7155 9.75665 11.7155 11.1226C11.7155 12.4885 11.2602 13.7986 10.4495 14.7652L7.38546 18.413C6.57355 19.3781 5.4731 19.9202 4.32575 19.9202C3.17839 19.9202 2.07794 19.3781 1.26603 18.413C0.455339 17.4464 0 16.1363 0 14.7703C0 13.4044 0.455339 12.0943 1.26603 11.1277L2.5557 9.59238C2.54704 10.4373 2.65956 11.2823 2.90192 12.0963L2.49511 12.5807C2.25246 12.8664 2.05983 13.2066 1.92837 13.5816C1.7969 13.9566 1.72921 14.3589 1.72921 14.7652C1.72921 15.1715 1.7969 15.5738 1.92837 15.9488C2.05983 16.3238 2.25246 16.664 2.49511 16.9497C2.73514 17.2386 3.02091 17.4679 3.33588 17.6244C3.65085 17.781 3.98877 17.8615 4.33007 17.8615C4.67138 17.8615 5.0093 17.781 5.32427 17.6244C5.63924 17.4679 5.92501 17.2386 6.16504 16.9497L9.22042 13.3123C9.46307 13.0265 9.6557 12.6863 9.78717 12.3113C9.91864 11.9364 9.98633 11.5341 9.98633 11.1277C9.98633 10.7214 9.91864 10.3191 9.78717 9.94414C9.6557 9.56916 9.46307 9.22895 9.22042 8.9432C9.13636 8.84942 9.06935 8.73611 9.02354 8.61027C8.97773 8.48443 8.9541 8.34874 8.9541 8.21159C8.9541 8.07444 8.97773 7.93874 9.02354 7.8129C9.06935 7.68706 9.13636 7.57375 9.22042 7.47997Z" fill="black" fill-opacity="0.7"/>
</svg>
